<?xml version="1.0" encoding="UTF-8"?><svg xmlns="http://www.w3.org/2000/svg" viewBox="0 0 636.59 563.35"><defs><style>.d{fill:none;stroke:#000;stroke-linecap:round;stroke-miterlimit:10;stroke-width:3px;}.e{fill:#f7a1c9;}</style></defs><g id="a"/><g id="b"><g id="c"><g><path class="e" d="M636.53,270.79c-3.83,137.3-151.39,82.86-236.01,208.32-79.21,117.45-334.69-108-348.26-221.25C34.69,111.16,243.29-75.08,315.37,31.49c81.06,119.85,325.53,82.95,321.16,239.3Z"/><path class="d" d="M204.47,367.33c5,2,37,10,42,10,.38,0-.4-.02,0,0,96.89,5.27,154.03-35.17,154.03-131.5S311.18,63.83,201,63.83,1.5,145.31,1.5,245.83c0,33.99,10.22,65.8,28,93.02,1.94,2.96,2.96,6.43,2.93,9.97l-15.87,125.69c-.03,4.23,4.65,6.81,8.21,4.53,0,0,72.84-76.91,98.54-62.97"/><path class="d" d="M201.45,366.84c-118-42,39-230,178-202,108.01,21.76,188.22,70.05,171,174-5.55,33.53-38.43,54.75-56.21,81.98-1.94,2.96-2.96,6.43-2.93,9.97l15.87,125.69c.03,4.23-4.65,6.81-8.21,4.53,0,0-72.84-76.91-98.54-62.97"/></g></g></g></svg>