<svg xmlns="http://www.w3.org/2000/svg" viewBox="0 0 1036.71 462.32"><defs><style>.cls-1{fill:#fff;}</style></defs><g id="Layer_2" data-name="Layer 2"><g id="Layer_1-2" data-name="Layer 1"><path class="cls-1" d="M1002.86,333.49c.46-1,1.29-2.2,4.87-10l2-4.22-19.1-40.59c-3.58-7.71-4.59-9.27-5.14-10.55a.57.57,0,0,1,.45-.92h1.84a.81.81,0,0,1,.74.55c.55,1.1,1.1,2.75,4.77,10.65l17.81,38,17.63-38c3.77-8.08,4.32-9.83,4.87-10.93a.8.8,0,0,1,.74-.55h1.74a.7.7,0,0,1,.55,1c-.64,1.19-1.65,2.76-5.42,10.93l-20.84,44.72c-3.67,7.89-4,9.36-4.5,10.28a.88.88,0,0,1-.73.55h-1.84C1002.86,334.41,1002.68,333.86,1002.86,333.49Z"/><path class="cls-1" d="M362.41,312.42v8.63a.68.68,0,0,1-.73.74h-1.56a.66.66,0,0,1-.65-.74c0-1.28.46-3,.46-10.74V276.15c0-17.35-.18-21.12-.18-22.59,0-.45.27-.73.55-.73H362a.73.73,0,0,1,.74.73c0,1.47-.28,5.15-.28,21.31v2.75A27.82,27.82,0,1,1,384,322.89,27.48,27.48,0,0,1,362.41,312.42Zm47-17.35A25.59,25.59,0,0,0,384,269.45c-14.32,0-21.58,11.39-21.58,12.67v25.71c0,1.38,7.26,12.76,21.58,12.76A25.51,25.51,0,0,0,409.43,295.07Z"/><path class="cls-1" d="M357.17,206.71c0-23.29,19.36-42.38,42.66-42.38A40.65,40.65,0,0,1,427.33,175v-7.58a1.37,1.37,0,0,1,1.54-1.4h10.81a1.44,1.44,0,0,1,1.54,1.4c0,5.61-.28,11-.28,19.5v41.54c0,7,.28,12.91.28,17.82a1.44,1.44,0,0,1-1.54,1.4H428.87a1.37,1.37,0,0,1-1.54-1.4V238.7a40.07,40.07,0,0,1-27.5,10.81A42.94,42.94,0,0,1,357.17,206.71ZM426.91,213V200.54c0-10.11-10.81-23.58-27.08-23.58s-29.05,13.75-29.05,29.75c0,16.42,12.77,30.17,29.05,30.17S426.91,223.41,426.91,213Z"/><path class="cls-1" d="M457.64,214V183.7c0-8.14-.14-11.93-.14-16.28A1.36,1.36,0,0,1,459,166h10.81a1.36,1.36,0,0,1,1.54,1.4c0,4.21-.14,8.84-.14,16.28v30.59c0,13.05,8.14,22.73,22.45,22.73s22.45-9.68,22.45-22.73V183.7c0-8.14-.14-11.93-.14-16.28a1.36,1.36,0,0,1,1.54-1.4h11a1.32,1.32,0,0,1,1.4,1.4c0,4.21-.14,8.84-.14,16.28v30.45c0,18.8-11.93,35.36-36.06,35.36S457.64,233,457.64,214Z"/><path class="cls-1" d="M551.05,219.76V178.65c-5.19,0-8.56.14-11.23.14a1.41,1.41,0,0,1-1.4-1.41v-10.1a1.4,1.4,0,0,1,1.4-1.4c2.67,0,6,.14,11.23.14v-2.39c0-7.15-.14-11.22-.14-14.45a1.82,1.82,0,0,1,1.54-1.82c3.37-.42,7.44-1.13,10.53-1.69a1.45,1.45,0,0,1,1.82,1.55c0,4.91-.14,6.31-.14,14.45V166h7.72c9.82,0,14.59-.14,17.68-.14a1.4,1.4,0,0,1,1.4,1.4v10.1a1.41,1.41,0,0,1-1.4,1.41c-2.95,0-7.86-.14-17.54-.14h-7.86V219.2c0,10.66,7.3,17.26,18.52,17.26a18.6,18.6,0,0,0,7.58-1.41c1-.28,1.68,0,2,.7l2.25,9.41a1.36,1.36,0,0,1-.84,1.68,37.13,37.13,0,0,1-12.21,2C562,248.8,551.05,235.33,551.05,219.76Z"/><path class="cls-1" d="M602.79,246.28c0-4.35.14-8.42.14-15.72v-71c0-7.71-.14-11.36-.14-15.71a1.32,1.32,0,0,1,1.4-1.4h10.94a1.36,1.36,0,0,1,1.55,1.4c0,4.21-.14,8.7-.14,15.71v17c4.91-7.29,14.31-12.35,25.25-12.35,21.05,0,33.12,14.6,33.26,33.26v33.11c0,6.46.14,11.51.14,15.72a1.32,1.32,0,0,1-1.41,1.4H662.7a1.32,1.32,0,0,1-1.4-1.4c0-4.35.14-8.56.14-15.72V198c0-13.47-8.14-21.19-21.19-21.19-14.59,0-23.71,10.24-23.71,23.15v30.59c0,6.6.14,11.51.14,15.72a1.36,1.36,0,0,1-1.55,1.4H604.19A1.32,1.32,0,0,1,602.79,246.28Z"/><path class="cls-1" d="M687.37,206.71A42.67,42.67,0,0,1,730,164.33c23.43,0,42.93,18.95,42.93,42.24,0,3.51-1.4,6.59-4.49,6.59H701.68c2.81,13.61,14.17,23.72,28.63,23.72a29.75,29.75,0,0,0,25.39-13.33,1.42,1.42,0,0,1,2.11-.42l8,6.17a1.44,1.44,0,0,1,.28,2.1,43.75,43.75,0,0,1-35.92,18.11A42.88,42.88,0,0,1,687.37,206.71Zm14.31-6.17h57.11A29.61,29.61,0,0,0,730,177,28.74,28.74,0,0,0,701.68,200.54Z"/><path class="cls-1" d="M784.85,246.28c0-4.49.14-8.42.14-16V187.63c0-8.84-.28-14.46-.28-20.07a1.44,1.44,0,0,1,1.4-1.54h10a1.47,1.47,0,0,1,1.55,1.54v8.84A33.54,33.54,0,0,1,824,164.19c20.76,0,33.11,14.6,33.11,33.26v33c0,6.88.14,11.51.14,15.86a1.32,1.32,0,0,1-1.4,1.4h-11a1.36,1.36,0,0,1-1.54-1.4c0-4.49.14-8.42.14-15.86V198c0-13.47-8.42-21.19-20.91-21.19-14.31,0-24,10.24-24,23.15v30.31c0,6.88.14,11.65.14,16a1.36,1.36,0,0,1-1.54,1.4h-11A1.32,1.32,0,0,1,784.85,246.28Z"/><path class="cls-1" d="M876.6,219.76V178.65c-5.19,0-8.56.14-11.22.14a1.41,1.41,0,0,1-1.4-1.41v-10.1a1.4,1.4,0,0,1,1.4-1.4c2.66,0,6,.14,11.22.14v-2.39c0-7.15-.14-11.22-.14-14.45a1.82,1.82,0,0,1,1.55-1.82c3.36-.42,7.43-1.13,10.52-1.69a1.45,1.45,0,0,1,1.82,1.55c0,4.91-.14,6.31-.14,14.45V166h7.72c9.82,0,14.59-.14,17.68-.14a1.4,1.4,0,0,1,1.4,1.4v10.1a1.41,1.41,0,0,1-1.4,1.41c-3,0-7.86-.14-17.54-.14h-7.86V219.2c0,10.66,7.3,17.26,18.53,17.26a18.55,18.55,0,0,0,7.57-1.41c1-.28,1.69,0,2,.7l2.24,9.41a1.36,1.36,0,0,1-.84,1.68,37.13,37.13,0,0,1-12.21,2C887.55,248.8,876.6,235.33,876.6,219.76Z"/><path class="cls-1" d="M927.41,148.06c0-4.35,3.23-7.16,8.56-7.16,5,0,8.42,2.81,8.42,7.16s-3.37,7-8.42,7C930.64,155.07,927.41,152.27,927.41,148.06ZM929,246.28c0-4.35.14-8,.14-15.86V183.28c0-7.86-.14-11.65-.14-15.86a1.36,1.36,0,0,1,1.54-1.4h10.8a1.36,1.36,0,0,1,1.55,1.4c0,4.21-.14,8.7-.14,15.86v47.14c0,7.16.14,11.65.14,15.86a1.36,1.36,0,0,1-1.55,1.4H930.5A1.36,1.36,0,0,1,929,246.28Z"/><path class="cls-1" d="M956.23,206.71c0-23.29,19.37-42.38,42.8-42.38a42.08,42.08,0,0,1,34.66,18,1.5,1.5,0,0,1-.14,2l-8,6.45a1.57,1.57,0,0,1-2.25-.42A28.54,28.54,0,0,0,999,177c-16.14,0-29.19,13.75-29.19,29.75v.14c0,16.28,13,30,29.19,30,11.08,0,20.06-5.33,25-13.33a1.47,1.47,0,0,1,2.25-.28l8,6a1.48,1.48,0,0,1,.42,2.1A43.42,43.42,0,0,1,999,249.51,43,43,0,0,1,956.23,206.71Z"/><path class="cls-1" d="M421.06,300.85V280.19c0-8.44-.27-10.1-.27-11.2a.67.67,0,0,1,.73-.73h1.56a.65.65,0,0,1,.65.73c0,1.1-.28,2.85-.28,11.2v20.57c0,9.64,6.15,19.83,19.83,19.83s19.84-10.19,19.84-19.83V280.28c0-8.53-.28-10.19-.28-11.29a.67.67,0,0,1,.74-.73h1.56c.36,0,.64.18.64.73,0,1.1-.28,2.85-.28,11.29v20.57c0,10.65-6.79,22-22.22,22S421.06,311.5,421.06,300.85Z"/><path class="cls-1" d="M489.32,334.55c.46-1,1.28-2.2,4.86-10l2-4.22-19.1-40.59c-3.58-7.71-4.59-9.27-5.14-10.56a.57.57,0,0,1,.46-.91h1.84a.79.79,0,0,1,.73.55c.55,1.1,1.1,2.75,4.78,10.65l17.81,38,17.63-38c3.77-8.08,4.32-9.83,4.87-10.93a.79.79,0,0,1,.73-.55h1.75a.71.71,0,0,1,.55,1c-.65,1.19-1.66,2.76-5.42,10.93l-20.84,44.72c-3.68,7.89-4,9.36-4.5,10.28a.91.91,0,0,1-.74.55h-1.83A.61.61,0,0,1,489.32,334.55Z"/><path class="cls-1" d="M523.19,294.88a27.59,27.59,0,0,1,27.73-27.73c15.34,0,27.92,12.31,27.92,27.46,0,.64-.37,1.56-1.2,1.56h-52a25.43,25.43,0,0,0,25.53,24.42c9.64,0,18.45-5,22.31-12.76a.68.68,0,0,1,.92-.46l1.28.92a.84.84,0,0,1,.1,1.1c-4.78,8.17-14.24,13.5-24.61,13.5A27.83,27.83,0,0,1,523.19,294.88Zm53.26-1.1c-.28-13-11.57-24.33-25.53-24.33a25.17,25.17,0,0,0-25.25,24.33h50.78Z"/><path class="cls-1" d="M588,321c0-1.1.18-2.94.18-10.65V280c0-7.53-.46-9.55-.46-10.93a.75.75,0,0,1,.73-.82h1.47c.37,0,.55.36.55.82v10.38c2.85-7,9.37-12.12,16.81-12.12a20,20,0,0,1,8.17,1.47.65.65,0,0,1,.46.82L615.5,271a.69.69,0,0,1-1,.28,12.58,12.58,0,0,0-7.07-1.66c-10.65,0-16.8,10.47-16.8,16.35v24.33c0,7.62.27,9.55.27,10.65a.71.71,0,0,1-.64.74H588.6A.65.65,0,0,1,588,321Z"/><path class="cls-1" d="M617.62,313.71a.85.85,0,0,1-.1-1l.92-1a.71.71,0,0,1,1-.09c4.32,5.32,12.4,9,20.85,9,9,0,18-4.4,18-11.93,0-17.63-40-8.45-40-28.38,0-7.53,8.9-13.13,20.66-13.13a30.64,30.64,0,0,1,19.92,7.07.77.77,0,0,1,.19,1l-.92,1a.68.68,0,0,1-1.1,0c-4-4.13-10.47-6.79-18.09-6.79-10.47,0-18.18,4.77-18.18,10.74,0,17.45,40,8.54,40,28.19,0,9-9.91,14.51-20.47,14.51A32.47,32.47,0,0,1,617.62,313.71Z"/><path class="cls-1" d="M694.2,295A27.8,27.8,0,0,1,722,267.15a26.32,26.32,0,0,1,21.58,10.93V269a.67.67,0,0,1,.73-.73h1.56a.65.65,0,0,1,.65.73c0,1.47-.46,3-.46,10.84v30.39c0,7.71.46,9.55.46,10.74a.66.66,0,0,1-.65.74h-1.56a.68.68,0,0,1-.73-.74v-9.18A25.9,25.9,0,0,1,722,322.89,27.88,27.88,0,0,1,694.2,295Zm49.4,11.29V283.59c0-3.12-7.44-14.14-21.58-14.14a25.57,25.57,0,0,0,0,51.14C736.07,320.59,743.6,309.58,743.6,306.27Z"/><path class="cls-1" d="M761.62,330.33c-.46-.37-.37-.92-.19-1l.74-1.2c.18-.18.55-.36,1,.1a26.43,26.43,0,0,0,18,6.42c11.57,0,19.56-7.62,19.56-19.46v-6.43a23.9,23.9,0,0,1-19.56,9.83,25.72,25.72,0,0,1,0-51.43,25,25,0,0,1,19.65,9.46V269a.72.72,0,0,1,.74-.73h1.56a.65.65,0,0,1,.64.73c0,1.47-.46,3-.46,10.84V315c0,12.95-9,21.86-21.94,21.86C772.64,336.85,767,334,761.62,330.33Zm39.2-26V281.2c0-1.37-6.79-11.75-19.65-11.75a23.42,23.42,0,0,0-.09,46.83C793.94,316.28,800.82,306.18,800.82,304.34Z"/><path class="cls-1" d="M812.9,294.88a27.59,27.59,0,0,1,27.73-27.73c15.34,0,27.92,12.31,27.92,27.46,0,.64-.37,1.56-1.2,1.56h-52a25.43,25.43,0,0,0,25.53,24.42c9.64,0,18.45-5,22.31-12.76a.68.68,0,0,1,.92-.46l1.28.92a.84.84,0,0,1,.1,1.1c-4.78,8.17-14.24,13.5-24.61,13.5A27.83,27.83,0,0,1,812.9,294.88Zm53.26-1.1c-.28-13-11.57-24.33-25.53-24.33a25.17,25.17,0,0,0-25.25,24.33h50.78Z"/><path class="cls-1" d="M877.67,321c0-1.47.18-3.49.18-10.74v-30c0-8.08-.46-9.64-.46-11.11,0-.64.37-.82.64-.82h1.56c.19,0,.56.18.56.82v12.31c2.93-8,10.56-14.33,21.3-14.33,13.68,0,20.93,10.47,20.93,21v22.5c0,7.07.28,9,.28,10.37a.71.71,0,0,1-.64.74h-1.66a.66.66,0,0,1-.64-.74c0-1.37.18-3.21.18-10.37V288.27c0-9.64-6.33-18.91-18.64-18.91-13.58,0-20.93,10.28-20.93,19.83v21.12c0,7.16.27,9.18.27,10.65a.7.7,0,0,1-.64.74h-1.74C878,321.7,877.67,321.51,877.67,321Z"/><path class="cls-1" d="M931.59,295a27.82,27.82,0,0,1,27.91-27.83,27.53,27.53,0,0,1,23.78,13.5c.28.37.19.74,0,.83l-1.19,1a.76.76,0,0,1-1.2-.28c-3.58-7.71-12-12.76-21.39-12.76A25.54,25.54,0,0,0,934,295v.09a25.59,25.59,0,0,0,25.53,25.52c9.73,0,18.55-5.41,21.76-12.76.28-.55.83-.64,1.1-.37l1.2.92c.37.28.18.74.09.92A28,28,0,0,1,931.59,295Z"/><path class="cls-1" d="M201.87,160.24a1.38,1.38,0,0,0-1.47-1.34H190.1a1.3,1.3,0,0,0-1.47,1.34v7.26a38.68,38.68,0,0,0-26.22-10.21,40.86,40.86,0,0,0-40.66,40.59c0,22.58,18.46,41,40.66,41a38.15,38.15,0,0,0,26.22-10.34v7.25a1.31,1.31,0,0,0,1.47,1.35h10.3a1.38,1.38,0,0,0,1.47-1.35c0-4.7-.27-10.35-.27-17.07V178.93C201.6,170.73,201.87,165.62,201.87,160.24Zm-13.64,43.69c0,9.94-10.3,22.85-25.82,22.85s-27.68-13.17-27.68-28.9c0-15.32,12.17-28.5,27.68-28.5s25.82,12.91,25.82,22.59Z"/><path class="cls-1" d="M161.81,0C72.45,0,0,77.84,0,173.85,0,214.25,12.83,251.44,34.35,281L156.26,459.38a6.71,6.71,0,0,0,11.1,0L287.79,283c22.41-29.84,35.83-67.78,35.83-109.1C323.62,77.84,251.18,0,161.81,0Zm73.44,279.13H88.37a6.69,6.69,0,0,1-6.68-6.7V124.81a6.69,6.69,0,0,1,6.68-6.7H216.56a2.23,2.23,0,0,0,1.56-3.8l-54-54.22a3.33,3.33,0,0,0-4.72,0L116.86,102.9a3.33,3.33,0,0,1-2.35,1H101.23a2.23,2.23,0,0,1-1.57-3.81l57.43-57.73a6.67,6.67,0,0,1,9.44,0L241,117.13a3.3,3.3,0,0,1,1,2.36V272.43A6.69,6.69,0,0,1,235.25,279.13Z"/></g></g></svg>