<svg xmlns="http://www.w3.org/2000/svg" viewBox="0 0 915.95 921.34"><defs><style>.cls-1{fill:#57b0c7;}.cls-2{fill:#1e4f5c;}</style></defs><g id="Layer_2" data-name="Layer 2"><g id="Layer_1-2" data-name="Layer 1"><path class="cls-1" d="M0,745.92c0-31.39,26.1-57.12,57.5-57.12a54.8,54.8,0,0,1,37.07,14.38V693a1.84,1.84,0,0,1,2.08-1.9h14.56a2,2,0,0,1,2.08,1.9c0,7.56-.38,14.75-.38,26.29v56c0,9.45.38,17.4.38,24a2,2,0,0,1-2.08,1.89H96.65a1.84,1.84,0,0,1-2.08-1.89V789.05A54,54,0,0,1,57.5,803.61C26.1,803.61,0,777.7,0,745.92Zm94,8.51V737.6c0-13.62-14.56-31.77-36.5-31.77s-39.15,18.53-39.15,40.09c0,22.13,17.21,40.67,39.15,40.67S94,768.43,94,754.43Z"/><path class="cls-1" d="M135.42,755.76V714.91c0-11-.19-16.08-.19-21.94a1.84,1.84,0,0,1,2.08-1.9h14.57A1.84,1.84,0,0,1,154,693c0,5.67-.19,11.91-.19,21.94v41.23c0,17.59,11,30.64,30.26,30.64s30.26-13,30.26-30.64V714.91c0-11-.19-16.08-.19-21.94a1.84,1.84,0,0,1,2.08-1.9h14.75a1.78,1.78,0,0,1,1.89,1.9c0,5.67-.18,11.91-.18,21.94v41c0,25.34-16.08,47.66-48.61,47.66C151.31,803.61,135.42,781.29,135.42,755.76Z"/><path class="cls-1" d="M261.33,763.51V708.1c-7,0-11.54.19-15.13.19a1.9,1.9,0,0,1-1.89-1.89V692.78a1.89,1.89,0,0,1,1.89-1.89c3.59,0,8.13.18,15.13.18v-3.21c0-9.65-.19-15.13-.19-19.48a2.47,2.47,0,0,1,2.08-2.46c4.54-.57,10-1.51,14.19-2.27a2,2,0,0,1,2.46,2.08c0,6.62-.19,8.51-.19,19.48v5.86h10.4c13.24,0,19.67-.18,23.83-.18a1.89,1.89,0,0,1,1.89,1.89V706.4a1.9,1.9,0,0,1-1.89,1.89c-4,0-10.59-.19-23.64-.19H279.68v54.66c0,14.37,9.83,23.26,25,23.26,3.41,0,7.57-.57,10.22-1.89,1.32-.38,2.26,0,2.64.94l3,12.67a1.83,1.83,0,0,1-1.14,2.27,49.64,49.64,0,0,1-16.45,2.65C276.08,802.66,261.33,784.51,261.33,763.51Z"/><path class="cls-1" d="M331.07,799.26c0-5.86.18-11.35.18-21.18V682.37c0-10.4-.18-15.31-.18-21.18A1.78,1.78,0,0,1,333,659.3h14.75a1.84,1.84,0,0,1,2.08,1.89c0,5.68-.19,11.73-.19,21.18v22.89c6.62-9.84,19.29-16.64,34-16.64,28.37,0,44.64,19.67,44.83,44.82v44.64c0,8.7.19,15.5.19,21.18a1.78,1.78,0,0,1-1.89,1.89H411.82a1.78,1.78,0,0,1-1.89-1.89c0-5.86.19-11.54.19-21.18V734.2c0-18.16-11-28.56-28.56-28.56-19.67,0-32,13.8-32,31.2v41.24c0,8.88.19,15.5.19,21.18a1.84,1.84,0,0,1-2.08,1.89H333A1.78,1.78,0,0,1,331.07,799.26Z"/><path class="cls-1" d="M445.08,745.92c0-31.39,25.91-57.12,57.49-57.12s57.88,25.54,57.88,56.93c0,4.73-1.89,8.89-6.05,8.89h-90c3.78,18.35,19.1,32,38.58,32,14.75,0,27.05-7,34.23-18a1.9,1.9,0,0,1,2.84-.57l10.78,8.32a1.94,1.94,0,0,1,.38,2.84,59,59,0,0,1-48.42,24.4A57.79,57.79,0,0,1,445.08,745.92Zm19.29-8.32h77c-3.79-18-19.67-31.77-38.78-31.77A38.73,38.73,0,0,0,464.37,737.6Z"/><path class="cls-1" d="M576.47,799.26c0-6,.19-11.35.19-21.56V720.2c0-11.91-.38-19.48-.38-27a2,2,0,0,1,1.89-2.09H591.6a2,2,0,0,1,2.08,2.09v11.91c8.13-10.21,21.18-16.45,35.56-16.45,28,0,44.63,19.67,44.63,44.82v44.45c0,9.26.19,15.51.19,21.37a1.78,1.78,0,0,1-1.89,1.89H657.42a1.84,1.84,0,0,1-2.08-1.89c0-6,.19-11.35.19-21.37V734.2c0-18.16-11.35-28.56-28.18-28.56-19.29,0-32.34,13.8-32.34,31.2V777.7c0,9.26.18,15.7.18,21.56a1.84,1.84,0,0,1-2.08,1.89H578.36A1.78,1.78,0,0,1,576.47,799.26Z"/><path class="cls-1" d="M700.15,763.51V708.1c-7,0-11.54.19-15.13.19a1.9,1.9,0,0,1-1.9-1.89V692.78a1.9,1.9,0,0,1,1.9-1.89c3.59,0,8.13.18,15.13.18v-3.21c0-9.65-.19-15.13-.19-19.48a2.46,2.46,0,0,1,2.08-2.46c4.54-.57,10-1.51,14.18-2.27a2,2,0,0,1,2.46,2.08c0,6.62-.19,8.51-.19,19.48v5.86h10.4c13.24,0,19.67-.18,23.83-.18a1.9,1.9,0,0,1,1.9,1.89V706.4a1.9,1.9,0,0,1-1.9,1.89c-4,0-10.59-.19-23.64-.19H718.49v54.66c0,14.37,9.84,23.26,25,23.26,3.4,0,7.56-.57,10.21-1.89,1.32-.38,2.27,0,2.65.94l3,12.67a1.83,1.83,0,0,1-1.13,2.27,49.72,49.72,0,0,1-16.45,2.65C714.9,802.66,700.15,784.51,700.15,763.51Z"/><path class="cls-1" d="M768.63,666.87c0-5.87,4.35-9.65,11.54-9.65,6.81,0,11.35,3.78,11.35,9.65,0,5.67-4.54,9.45-11.35,9.45C773,676.32,768.63,672.54,768.63,666.87Zm2.08,132.39c0-5.86.19-10.78.19-21.37V714.34c0-10.59-.19-15.7-.19-21.37a1.84,1.84,0,0,1,2.08-1.9h14.57a1.84,1.84,0,0,1,2.08,1.9c0,5.67-.19,11.72-.19,21.37v63.55c0,9.64.19,15.69.19,21.37a1.84,1.84,0,0,1-2.08,1.89H772.79A1.84,1.84,0,0,1,770.71,799.26Z"/><path class="cls-1" d="M807.48,745.92c0-31.39,26.1-57.12,57.68-57.12A56.69,56.69,0,0,1,911.88,713a2,2,0,0,1-.19,2.65l-10.78,8.7a2.11,2.11,0,0,1-3-.57,38.49,38.49,0,0,0-32.72-18c-21.75,0-39.34,18.53-39.34,40.09v.19c0,21.94,17.59,40.48,39.34,40.48,15,0,27.05-7.19,33.67-18a2,2,0,0,1,3-.38l10.78,8.13a2,2,0,0,1,.56,2.84,58.52,58.52,0,0,1-48,24.4A57.92,57.92,0,0,1,807.48,745.92Z"/><path class="cls-2" d="M7.06,888.42v11.63a.91.91,0,0,1-1,1H4a.88.88,0,0,1-.87-1c0-1.73.62-4.09.62-14.48v-46c0-23.4-.25-28.47-.25-30.45,0-.62.38-1,.75-1H6.45a1,1,0,0,1,1,1c0,2-.38,6.93-.38,28.71v3.72a37.5,37.5,0,1,1,29.09,61A37,37,0,0,1,7.06,888.42ZM70.43,865a34.49,34.49,0,0,0-34.28-34.53c-19.31,0-29.09,15.35-29.09,17.08v34.66c0,1.85,9.78,17.2,29.09,17.2A34.38,34.38,0,0,0,70.43,865Z"/><path class="cls-2" d="M86.12,872.82V845c0-11.38-.37-13.61-.37-15.1a.91.91,0,0,1,1-1h2.1a.88.88,0,0,1,.87,1c0,1.49-.37,3.84-.37,15.1V872.7c0,13,8.29,26.73,26.73,26.73s26.74-13.74,26.74-26.73V845.1c0-11.51-.38-13.74-.38-15.23a.91.91,0,0,1,1-1h2.11c.49,0,.86.25.86,1,0,1.49-.37,3.84-.37,15.23v27.72c0,14.36-9.16,29.7-30,29.7S86.12,887.18,86.12,872.82Z"/><path class="cls-2" d="M178.12,918.24c.62-1.36,1.73-3,6.56-13.49l2.72-5.69-25.74-54.71c-4.83-10.39-6.19-12.5-6.93-14.23a.77.77,0,0,1,.62-1.24h2.47a1.09,1.09,0,0,1,1,.74c.74,1.49,1.49,3.72,6.44,14.36l24,51.24L213,844c5.08-10.89,5.82-13.24,6.56-14.73a1.08,1.08,0,0,1,1-.74h2.35a1,1,0,0,1,.75,1.36c-.87,1.61-2.23,3.72-7.31,14.73l-28.09,60.28c-5,10.64-5.45,12.62-6.07,13.86a1.18,1.18,0,0,1-1,.74h-2.47A.83.83,0,0,1,178.12,918.24Z"/><path class="cls-2" d="M223.78,864.78a37.19,37.19,0,0,1,37.38-37.38c20.67,0,37.62,16.58,37.62,37,0,.87-.49,2.11-1.61,2.11H227.12a34.29,34.29,0,0,0,34.41,32.92c13,0,24.88-6.81,30.07-17.2.25-.62.87-.87,1.24-.62l1.73,1.24c.5.37.38,1,.13,1.48-6.44,11-19.19,18.19-33.17,18.19A37.5,37.5,0,0,1,223.78,864.78Zm71.79-1.49c-.38-17.58-15.6-32.8-34.41-32.8a33.94,33.94,0,0,0-34,32.8h68.45Z"/><path class="cls-2" d="M311.08,899.93c0-1.49.24-4,.24-14.36V844.72c0-10.14-.62-12.87-.62-14.72a1,1,0,0,1,1-1.12h2c.5,0,.75.5.75,1.12v14c3.83-9.4,12.62-16.34,22.65-16.34a27.31,27.31,0,0,1,11,2,.89.89,0,0,1,.62,1.12l-.49,1.85a.94.94,0,0,1-1.37.38c-3.21-1.86-5.81-2.23-9.53-2.23-14.35,0-22.65,14.11-22.65,22v32.8c0,10.27.38,12.87.38,14.36a1,1,0,0,1-.87,1h-2.23A.88.88,0,0,1,311.08,899.93Z"/><path class="cls-2" d="M351.05,890.15a1.13,1.13,0,0,1-.12-1.36l1.24-1.37a1,1,0,0,1,1.36-.12c5.82,7.18,16.71,12.13,28.1,12.13,12.12,0,24.25-5.94,24.25-16.09,0-23.76-54-11.39-54-38.24,0-10.15,12-17.7,27.85-17.7a41.31,41.31,0,0,1,26.86,9.53,1,1,0,0,1,.24,1.36l-1.23,1.36a.93.93,0,0,1-1.49,0c-5.44-5.57-14.11-9.16-24.38-9.16-14.11,0-24.51,6.44-24.51,14.48,0,23.52,54,11.51,54,38,0,12.13-13.37,19.55-27.6,19.55A43.83,43.83,0,0,1,351.05,890.15Z"/><path class="cls-2" d="M454.28,864.9a37.48,37.48,0,0,1,37.5-37.5,35.44,35.44,0,0,1,29.09,14.73V829.87a.91.91,0,0,1,1-1H524a.88.88,0,0,1,.87,1c0,2-.62,4.09-.62,14.61v41c0,10.4.62,12.88.62,14.49a.89.89,0,0,1-.87,1h-2.1a.91.91,0,0,1-1-1V887.55a34.93,34.93,0,0,1-29.09,15A37.58,37.58,0,0,1,454.28,864.9Zm66.59,15.22V849.55c0-4.21-10-19.06-29.09-19.06a34.47,34.47,0,0,0,0,68.94C510.72,899.43,520.87,884.58,520.87,880.12Z"/><path class="cls-2" d="M545.15,912.55c-.62-.49-.49-1.24-.24-1.36l1-1.61c.24-.25.74-.5,1.36.12,5.82,4.95,13.37,8.67,24.26,8.67,15.59,0,26.36-10.28,26.36-26.24v-8.67a32.23,32.23,0,0,1-26.36,13.25,34.66,34.66,0,1,1,0-69.31A33.6,33.6,0,0,1,598,840.15V829.87a1,1,0,0,1,1-1h2.11a.88.88,0,0,1,.86,1c0,2-.61,4.09-.61,14.61v47.4c0,17.45-12.13,29.46-29.59,29.46C560,921.34,552.46,917.5,545.15,912.55Zm52.85-35V846.33c0-1.85-9.16-15.84-26.48-15.84a31.65,31.65,0,0,0-31.44,31.44c0,17.33,14.11,31.68,31.31,31.68S598,880,598,877.52Z"/><path class="cls-2" d="M614.28,864.78a37.19,37.19,0,0,1,37.38-37.38c20.67,0,37.63,16.58,37.63,37,0,.87-.5,2.11-1.61,2.11H617.62A34.3,34.3,0,0,0,652,899.43c13,0,24.88-6.81,30.08-17.2.24-.62.86-.87,1.23-.62l1.74,1.24c.49.37.37,1,.12,1.48-6.43,11-19.18,18.19-33.17,18.19A37.5,37.5,0,0,1,614.28,864.78Zm71.79-1.49c-.37-17.58-15.6-32.8-34.41-32.8a34,34,0,0,0-34,32.8h68.45Z"/><path class="cls-2" d="M701.58,899.93c0-2,.25-4.71.25-14.49V845c0-10.89-.62-13-.62-15,0-.87.49-1.12.86-1.12h2.11c.25,0,.74.25.74,1.12v16.58c4-10.77,14.23-19.31,28.71-19.31,18.45,0,28.22,14.11,28.22,28.35v30.32c0,9.53.38,12.13.38,14a1,1,0,0,1-.87,1h-2.23a.88.88,0,0,1-.86-1c0-1.86.24-4.34.24-14V855.86c0-13-8.54-25.49-25.12-25.49-18.32,0-28.22,13.86-28.22,26.73v28.47c0,9.65.37,12.38.37,14.36a1,1,0,0,1-.87,1h-2.35C702.07,900.92,701.58,900.67,701.58,899.93Z"/><path class="cls-2" d="M774.26,864.9a37.5,37.5,0,0,1,37.62-37.5,37.12,37.12,0,0,1,32.06,18.19c.37.5.25,1,0,1.11l-1.61,1.37a1,1,0,0,1-1.61-.37c-4.82-10.4-16.21-17.21-28.84-17.21a34.41,34.41,0,0,0-34.4,34.41V865a34.48,34.48,0,0,0,34.4,34.41c13.12,0,25-7.3,29.34-17.2.37-.75,1.11-.87,1.48-.5l1.61,1.24c.5.37.25,1,.13,1.24a37.8,37.8,0,0,1-70.18-19.31Z"/><path class="cls-2" d="M870.33,918.24c.62-1.36,1.73-3,6.56-13.49l2.72-5.69-25.74-54.71c-4.83-10.39-6.19-12.5-6.93-14.23a.77.77,0,0,1,.62-1.24H850a1.09,1.09,0,0,1,1,.74c.74,1.49,1.49,3.72,6.44,14.36l24,51.24L905.23,844c5.08-10.89,5.82-13.24,6.56-14.73a1.08,1.08,0,0,1,1-.74h2.35a1,1,0,0,1,.75,1.36c-.87,1.61-2.23,3.72-7.31,14.73l-28.09,60.28c-5,10.64-5.45,12.62-6.07,13.86a1.18,1.18,0,0,1-1,.74H871A.83.83,0,0,1,870.33,918.24Z"/><path class="cls-1" d="M511.45,216a1.86,1.86,0,0,0-2-1.81H495.59a1.76,1.76,0,0,0-2,1.81v9.79A52.11,52.11,0,0,0,458.27,212c-29.93,0-54.8,24.64-54.8,54.71,0,30.44,24.87,55.26,54.8,55.26a51.39,51.39,0,0,0,35.34-14v9.78a1.76,1.76,0,0,0,2,1.82h13.88a1.86,1.86,0,0,0,2-1.82c0-6.34-.36-13.95-.36-23V241.18C511.09,230.13,511.45,223.24,511.45,216Zm-18.38,58.89c0,13.4-13.89,30.8-34.8,30.8S421,287.92,421,266.72c0-20.65,16.41-38.41,37.32-38.41s34.8,17.4,34.8,30.44Z"/><path class="cls-1" d="M457.46,0C337,0,239.35,104.91,239.35,234.33c0,54.47,17.3,104.59,46.31,144.38L450,619.2a9.05,9.05,0,0,0,15,0L627.26,381.38c30.21-40.21,48.31-91.35,48.31-147C675.57,104.91,577.92,0,457.46,0Zm99,376.24h-198a9,9,0,0,1-9-9v-199a9,9,0,0,1,9-9H531.25a3,3,0,0,0,2.11-5.12L460.64,81a4.47,4.47,0,0,0-6.36,0l-57.41,57.69A4.45,4.45,0,0,1,393.7,140H375.8a3,3,0,0,1-2.12-5.14L451.1,57.06a9,9,0,0,1,12.72,0L564.14,157.88a4.5,4.5,0,0,1,1.31,3.18V367.2A9,9,0,0,1,556.46,376.24Z"/></g></g></svg>