<?xml version="1.0" encoding="UTF-8"?><svg id="a" xmlns="http://www.w3.org/2000/svg" viewBox="0 0 2400 1519"><g><g><path d="M1406.14,203.84V27.14c0-4.61-3.73-8.34-8.34-8.34H732.26c-4.61,0-8.34,3.73-8.34,8.34V203.84c0,4.61,3.73,8.34,8.34,8.34h219.99c4.61,0,8.34,3.73,8.34,8.34v211.05c0,4.61,3.73,8.34,8.34,8.34h193.32c4.61,0,8.34-3.73,8.34-8.34V220.52c0-4.61,3.73-8.34,8.34-8.34h218.88c4.61,0,8.34-3.73,8.34-8.34Z"/><rect x="960.58" y="467.12" width="210" height="395.05" rx="8.34" ry="8.34"/></g><g><path d="M1592.08,467.12h-160.84c-3.9,0-7.2,3.08-7.72,7.21l-48.36,377.66c-.64,5.01,3,9.47,7.72,9.47h170.03c3.97,0,7.31-3.2,7.75-7.42l39.18-377.66c.51-4.94-3.1-9.26-7.75-9.26Z"/><path d="M1828.01,429.16L1714.25,24.04c-.99-3.53-4.02-5.94-7.47-5.94h-218.01c-3.9,0-7.2,3.08-7.72,7.21l-51.88,405.13c-.64,5.01,3,9.47,7.72,9.47h159.77c3.97,0,7.31-3.2,7.75-7.42l12.6-121.5h4.15l33.15,122.89c.96,3.57,4.02,6.03,7.49,6.03h158.73c5.22,0,8.97-5.39,7.47-10.74Z"/><path d="M2111.49,439.9h158.8c4.73,0,8.37-4.47,7.72-9.48l-52.38-405.13c-.53-4.13-3.83-7.2-7.72-7.2h-211.74c-3.46,0-6.51,2.45-7.48,6l-110.5,405.13c-1.46,5.34,2.29,10.68,7.48,10.68h150.34c3.46,0,6.5-2.44,7.48-5.99l34.09-124.06h4.15l12,122.58c.42,4.25,3.76,7.47,7.75,7.47Z"/><path d="M2029.43,467.12h-150.25c-3.46,0-6.51,2.45-7.48,6l-17.09,62.65h-1.04l-17.61-62.72c-.99-3.53-4.02-5.94-7.47-5.94h-159.22c-5.19,0-8.93,5.32-7.49,10.65l101.87,377.66c.96,3.57,4.02,6.03,7.49,6.03h154.51c3.46,0,6.5-2.44,7.48-5.99l103.79-377.66c1.47-5.34-2.28-10.69-7.48-10.69Z"/><path d="M2329.17,851.99l-48.83-377.66c-.53-4.12-3.83-7.2-7.72-7.2h-160.19c-4.63,0-8.24,4.29-7.75,9.21l36.97,377.66c.42,4.25,3.76,7.47,7.75,7.47h172.05c4.73,0,8.37-4.47,7.72-9.48Z"/></g><path d="M350.14,21.54H86.49c-8.42,0-15.24,6.82-15.24,15.24V427.39c0,8.42,6.82,15.24,15.24,15.24H641.91c5.58,0,10.72-3.04,13.41-7.93,23.61-42.83,32.59-88.76,32.59-129.33,0-187.72-134.44-283.84-337.78-283.84Zm148.75,29.23c-111.44,78.52-276.72,362.83-288.18,382.7-.88-1.67-1.45-3.54-1.6-5.55-5.04-64.8-6.17-323.94,289.79-377.15ZM224.52,441.1c-2.46,.17-4.82-.28-6.92-1.21,.32-.3,.6-.65,.83-1.05,1.79-3.11,179.97-311.35,291.04-383.93,.33-.22,.61-.48,.87-.75,.91,1.49,1.39,3.28,1.18,5.2-6.95,61.84-53.29,365.53-287,381.74Z"/><path d="M718.8,851.67l-215.1-281.77c-3.38-4.43-1.53-10.87,3.68-12.84,48.48-18.33,85.06-43.86,112.17-73.02,4.96-5.33,1.13-14.02-6.14-14.02H79.59c-4.61,0-8.34,3.73-8.34,8.34v378.37c0,4.61,3.73,8.34,8.34,8.34h202.77l179.44,.26c.7,.39,1.48,.6,2.28,.6s1.54-.19,2.25-.58h4.91s.04-.02,.07-.02l240.86-.25c6.9,0,10.82-7.91,6.63-13.4ZM178.98,479.32c.08-.27,.23-.51,.35-.77,.07,.06,.13,.13,.21,.18,101.19,69.23,253.35,336.39,277.22,379.01-55.27-35.01-324.1-221.56-277.79-378.43Zm288.42,378.24c-13.84-25.08-170.33-305.86-278.94-383.99,.82-.02,1.63,.03,2.37,.2,49.14,11.87,317.12,96.93,276.57,383.79Z"/></g><path d="M203.36,1114.06c16.89,0,28.95-3.45,41.36-9.31v-90.31h44.46v119.26c-24.47,15.17-51.7,25.16-86.52,25.16-69.97,0-130.98-52.39-130.98-134.08s60.67-134.43,131.33-134.43c29.99,0,56.53,7.58,77.21,19.3v48.6c-22.4-15.51-47.91-22.06-72.04-22.06-50.67,0-87.21,37.57-87.21,89.27s35.85,88.58,82.38,88.58Z"/><path d="M323.3,1058.56c0-60.32,41.71-99.61,84.79-99.61,27.92,0,51.01,13.79,64.11,35.5l4.83-31.02h39.98v189.58h-39.98l-4.83-31.02c-13.1,21.71-36.19,35.85-64.11,35.85-43.09,0-84.79-39.64-84.79-99.27Zm146.84-.35c0-33.09-21.03-56.18-48.95-56.18s-49.98,23.44-49.98,56.18,21.37,56.18,49.98,56.18,48.95-23.09,48.95-56.18Z"/><path d="M566.64,963.43h37.92l4.83,28.95h.69c12.75-23.44,35.5-31.02,52.39-31.02,5.17,0,9.65,.35,13.79,1.38v44.47c-5.17-1.03-10-1.38-15.17-1.38-23.78,0-46.88,13.44-46.88,49.63v97.55h-47.57v-189.58Z"/><path d="M690.73,1058.22c0-60.67,40.67-99.27,85.14-99.27,25.85,0,48.95,13.1,61.01,33.78v-116.16h47.57v276.44h-39.98l-4.83-31.02c-13.1,21.71-36.19,35.85-63.42,35.85-44.12,0-85.48-38.95-85.48-99.61Zm146.84,0c0-33.09-21.03-56.18-48.95-56.18s-49.98,23.44-49.98,56.18,21.37,56.18,49.98,56.18,48.95-23.09,48.95-56.18Z"/><path d="M1101.93,1072h-133.05c6.55,30.33,31.02,47.22,62.39,47.22,21.03,0,41.71-7.58,60.32-20.68v40.67c-19.3,12.06-41.71,18.61-65.84,18.61-64.11,0-102.37-41.02-102.37-98.93s42.4-99.96,94.1-99.96c47.22,0,85.83,33.09,85.83,95.82,0,6.55-.69,12.06-1.38,17.23Zm-44.12-29.99c-.69-29.3-18.61-44.81-40.67-44.81-23.44,0-43.43,17.23-48.6,44.81h89.27Z"/><path d="M1309.08,1026.51v126.5h-47.57v-112.02c0-26.2-11.72-38.6-34.47-38.6s-37.57,15.51-37.57,37.23v113.4h-47.57v-189.58h36.88l5.17,27.23h1.03c11.03-17.58,31.02-31.71,57.22-31.71,41.36,0,66.87,25.85,66.87,67.56Z"/><path d="M1354.58,905.52c0-14.82,11.72-26.54,26.89-26.54s26.54,11.72,26.54,26.54-11.72,26.2-26.54,26.2-26.89-11.37-26.89-26.2Zm3.1,57.91h47.57v189.58h-47.57v-189.58Z"/><path d="M1622.39,1026.51v126.5h-47.57v-112.02c0-26.2-11.72-38.6-34.47-38.6s-37.57,15.51-37.57,37.23v113.4h-47.57v-189.58h36.88l5.17,27.23h1.03c11.03-17.58,31.02-31.71,57.22-31.71,41.36,0,66.87,25.85,66.87,67.56Z"/><path d="M1807.49,993.07l5.17-29.64h39.64v168.21c0,63.42-44.12,98.58-102.03,98.58-26.2,0-51.7-8.27-71.35-22.4v-46.53c18.96,16.55,44.47,26.89,67.56,26.89,33.43,0,58.25-20.34,58.25-50.67v-21.03c-12.06,18.96-33.78,32.75-60.32,32.75-44.47,0-84.79-38.26-84.79-95.13s41.36-94.79,85.48-94.79c26.89,0,49.63,13.79,62.39,33.78Zm-99.96,61.35c0,29.64,21.03,52.74,49.29,52.74s48.95-23.44,48.95-53.43-21.03-52.05-48.95-52.05-49.29,23.09-49.29,52.74Z"/><path d="M2259.36,1153l-25.16-25.85c-20.34,19.99-45.5,31.37-75.14,31.37-49.64,0-84.45-31.02-84.45-74.45,0-35.5,23.09-54.46,51.36-68.94-18.96-20.68-32.06-37.92-32.06-60.32,0-35.85,32.06-64.46,76.18-64.46s73.76,27.92,73.76,65.15c0,34.47-25.85,53.08-56.18,68.25l44.46,45.84,33.78-54.81h45.5l-53.08,82.38,54.12,55.84h-53.08Zm-50.67-52.39l-57.56-59.29c-18.96,10-31.71,21.37-31.71,40.67,0,22.75,17.92,38.95,43.43,38.95,15.17,0,30.68-5.86,45.84-20.34Zm-72.04-145.11c0,11.72,7.93,22.75,26.54,42.74,23.44-11.03,40.33-22.4,40.33-41.02,0-16.2-12.41-30.33-33.43-30.33s-33.43,12.75-33.43,28.61Z"/><path d="M117.53,1461.62h-46.53l37.92-256.79h57.22l59.98,183.37h.34l58.25-183.37h56.87l37.57,256.79h-46.88l-24.47-189.92h-1.03l-61.01,189.92h-41.71l-60.66-188.89h-1.03l-24.82,188.89Z"/><path d="M407.75,1367.18c0-60.32,41.71-99.61,84.79-99.61,27.92,0,51.01,13.79,64.11,35.5l4.83-31.02h39.98v189.58h-39.98l-4.83-31.02c-13.1,21.71-36.19,35.85-64.11,35.85-43.09,0-84.79-39.64-84.79-99.27Zm146.84-.35c0-33.09-21.03-56.18-48.95-56.18s-49.98,23.44-49.98,56.18,21.37,56.18,49.98,56.18,48.95-23.09,48.95-56.18Z"/><path d="M648.68,1214.14c0-14.82,11.72-26.54,26.89-26.54s26.54,11.72,26.54,26.54-11.72,26.2-26.54,26.2-26.89-11.37-26.89-26.2Zm3.1,57.91h47.57v189.58h-47.57v-189.58Z"/><path d="M916.5,1335.12v126.5h-47.57v-112.02c0-26.2-11.72-38.6-34.47-38.6s-37.57,15.51-37.57,37.23v113.4h-47.57v-189.58h36.88l5.17,27.23h1.03c11.03-17.58,31.02-31.71,57.22-31.71,41.36,0,66.87,25.85,66.87,67.56Z"/><path d="M1020.25,1272.04h51.7v39.64h-51.7v76.52c0,25.51,16.2,35.5,38.26,35.5,5.17,0,11.03-.69,16.89-1.72v40.67c-6.2,1.38-14.82,2.76-27.23,2.76-47.22,0-74.11-28.27-74.11-74.8v-78.93h-27.57v-39.64h27.92v-44.12h45.84v44.12Z"/><path d="M1276.35,1380.62h-133.05c6.55,30.33,31.02,47.22,62.39,47.22,21.03,0,41.71-7.58,60.32-20.68v40.67c-19.3,12.06-41.71,18.61-65.84,18.61-64.11,0-102.37-41.02-102.37-98.93s42.4-99.96,94.1-99.96c47.22,0,85.83,33.09,85.83,95.82,0,6.55-.69,12.06-1.38,17.23Zm-44.12-29.99c-.69-29.3-18.61-44.81-40.67-44.81-23.44,0-43.43,17.23-48.6,44.81h89.27Z"/><path d="M1483.5,1335.12v126.5h-47.57v-112.02c0-26.2-11.72-38.6-34.47-38.6s-37.57,15.51-37.57,37.23v113.4h-47.57v-189.58h36.88l5.17,27.23h1.03c11.03-17.58,31.02-31.71,57.22-31.71,41.36,0,66.87,25.85,66.87,67.56Z"/><path d="M1520.72,1367.18c0-60.32,41.71-99.61,84.79-99.61,27.92,0,51.01,13.79,64.11,35.5l4.83-31.02h39.98v189.58h-39.98l-4.83-31.02c-13.1,21.71-36.19,35.85-64.11,35.85-43.09,0-84.79-39.64-84.79-99.27Zm146.84-.35c0-33.09-21.03-56.18-48.95-56.18s-49.98,23.44-49.98,56.18,21.37,56.18,49.98,56.18,48.95-23.09,48.95-56.18Z"/><path d="M1931.24,1335.12v126.5h-47.57v-112.02c0-26.2-11.72-38.6-34.47-38.6s-37.57,15.51-37.57,37.23v113.4h-47.57v-189.58h36.88l5.17,27.23h1.03c11.03-17.58,31.02-31.71,57.22-31.71,41.36,0,66.87,25.85,66.87,67.56Z"/><path d="M2072.9,1423.02c15.17,0,32.75-3.1,48.6-14.48v44.46c-15.17,8.27-34.47,13.44-54.81,13.44-55.84,0-98.24-42.05-98.24-99.96s42.74-98.93,98.24-98.93c19.3,0,38.95,3.79,54.81,13.1v44.81c-15.86-10.69-31.02-14.82-48.95-14.82-29.99,0-56.18,21.37-56.18,56.18s26.2,56.18,56.53,56.18Z"/><path d="M2327.62,1380.62h-133.05c6.55,30.33,31.02,47.22,62.39,47.22,21.03,0,41.71-7.58,60.32-20.68v40.67c-19.3,12.06-41.71,18.61-65.84,18.61-64.11,0-102.37-41.02-102.37-98.93s42.4-99.96,94.1-99.96c47.22,0,85.83,33.09,85.83,95.82,0,6.55-.69,12.06-1.38,17.23Zm-44.12-29.99c-.69-29.3-18.61-44.81-40.67-44.81-23.44,0-43.43,17.23-48.6,44.81h89.27Z"/></svg>