<?xml version="1.0" encoding="UTF-8"?><svg id="a" xmlns="http://www.w3.org/2000/svg" viewBox="0 0 900 825"><defs><style>.b{fill:#f7a1c9;}</style></defs><path class="b" d="M894.92,424.97c-5.49,195.84-216.73,118.18-337.86,297.13-113.4,167.52-479.14-154.04-498.56-315.57C33.33,197.29,331.96-68.34,435.15,83.65c116.04,170.94,466.02,118.32,459.77,341.32Z"/><path d="M227.36,272.74c-.15,5.33-5.9,3.22-9.19,8.08-3.08,4.56-13.03-4.19-13.56-8.58-.68-5.69,7.44-12.92,10.25-8.78,3.16,4.65,12.68,3.22,12.51,9.29Z"/><path d="M759.58,222.67c-19.8-42.54-48.13-80.74-84.22-113.54C601.19,41.71,502.6,4.58,397.74,4.58S194.29,41.71,120.12,109.12c-36.09,32.8-64.42,71-84.22,113.54-20.5,44.06-30.9,90.87-30.9,139.13,0,64.44,19.08,127.6,55.18,182.67,3.48,5.31,5.31,11.45,5.3,17.77l-31,244.67-.02,.32c-.03,4.87,2.5,9.18,6.78,11.54,2.01,1.11,4.19,1.66,6.36,1.66,2.44,0,4.88-.7,7.06-2.09l.28-.18,.23-.24c.36-.37,36-37.75,77.27-71.31,53.87-43.8,92.65-61.38,112.16-50.84,1.31,.71,2.94,.22,3.65-1.08,.71-1.3,.22-2.93-1.08-3.63-21.89-11.83-61.65,5.48-118.16,51.43-39.73,32.31-74.25,68.11-77.5,71.49-2.38,1.39-5.22,1.44-7.66,.1-2.48-1.37-3.97-3.85-4-6.66l31-244.66,.02-.32c.05-7.43-2.08-14.66-6.17-20.9-35.52-54.19-54.3-116.34-54.3-179.74,0-93.93,40.26-182.26,113.37-248.71C196.92,46.57,294.23,9.94,397.74,9.94s200.82,36.63,273.99,103.14c73.11,66.45,113.37,154.77,113.37,248.71,0,84.16-22.84,148.38-67.89,190.89-49.86,47.05-127.26,68.12-230.05,62.61-.15-.02-.31-.03-.47-.04-.14,0-.27,0-.4,0-10.61-.35-71.7-15.67-80.77-19.28-1.79-.71-136.74-56.21-188.48-160.11,5.72-12.6,10.72-27.14,14.99-43.62,.05-.21,.08-.43,.09-.65,.02-.8,.09-1.53,.23-2.21,.08-.42,.19-.87,.33-1.35,.21-.74,.7-1.37,1.38-1.74,18.01-9.69,38.4-19.53,61.18-29.51,21.69-9.51,45.94-19.01,72.76-28.52-.43,1.2-.86,2.45-1.29,3.78-1.23,3.86-2.16,7.79-2.78,11.79-.62,4.01-.85,7.94-.7,11.79,.16,3.86,1.01,7.02,2.55,9.48,1.24,3.09,3.71,5.09,7.43,6.01,.93,.31,2.32,.46,4.18,.46,12.07,0,23.97-9.86,35.73-29.59,5.26,14.49,13.76,23.58,25.53,27.28,7.11,2.47,15.08,2.85,23.9,1.16,8.82-1.69,17.71-4.7,26.69-9.01,8.97-4.31,17.94-9.63,26.92-15.95,7.74-5.45,14.99-11.08,21.81-16.88,.08,.23,.15,.45,.23,.7,1.39,4.16,4.1,8.86,8.12,14.1-8.05,7.71-14.46,14.88-19.26,21.5-4.79,6.63-7.5,10.25-8.12,10.87-.93,1.85-.46,3.55,1.39,5.09,.31,0,.54,.08,.7,.23,.16,.16,.54,.23,1.16,.23,1.24,0,2.17-.61,2.78-1.85,.31,0,2.71-3.31,7.19-9.94,4.48-6.62,10.75-13.64,18.8-21.04,2.47,2.47,5.34,4.93,8.59,7.4,3.25,2.47,6.88,4.62,10.91,6.47,5.87,2.47,11.99,4.39,18.33,5.78,6.34,1.39,13.23,2.24,20.65,2.08,27.8-.61,39.53-6.46,59.08-22.04,1.86-1.23,5.87-5.84,3.91-7.79-1.2-1.2-4.88,1.47-6.96,3.14-.77,.62-1.58,1.18-2.43,1.7-2.72,1.68-3.25,2.28-7.2,4.9-5.87,3.9-9.78,7.79-23.67,10.84-13.47,2.96-25.22,2.54-34.81,1.16-9.59-1.39-17.48-3.47-23.67-6.24-6.81-3.08-12.53-7.09-17.17-12.02,5.26-4.31,10.91-8.24,16.94-11.79,6.03-3.54,12.6-6.08,19.72-7.63,1.86,0,2.78-1.23,2.78-3.7-.62-2.46-2.02-3.39-4.18-2.77-7.74,1.55-14.93,4.16-21.58,7.86-6.66,3.7-12.76,8.02-18.33,12.95-3.41-4.62-5.73-8.63-6.96-12.02-1.24-3.39-2.02-5.39-2.32-6.01,0-1.85-1.24-2.77-3.71-2.77-2.13,.53-3.11,1.64-2.95,3.31-6.95,5.98-14.46,11.82-22.58,17.5-8.35,5.86-16.79,10.95-25.29,15.26-8.51,4.32-16.94,7.4-25.29,9.25-8.35,1.85-15.78,1.7-22.28-.46-11.45-3.7-19.03-13.87-22.74-30.52-.31-1.23-1.39-2.15-3.25-2.77-1.86,0-2.94,.62-3.25,1.85-6.19,11.72-12.46,20.42-18.8,26.12-6.34,5.71-12.3,7.94-17.87,6.71-1.24,0-2.17-.77-2.78-2.31-.93-1.54-1.47-3.77-1.63-6.7-.16-2.93,.07-6.08,.7-9.48,.62-3.39,1.39-6.94,2.32-10.64,.93-3.7,2.16-7.09,3.71-10.17,.6-2.41-.14-3.93-2.2-4.58-.19-.16-.39-.29-.6-.39-.03-.01-.06-.02-.08-.03-.75-.34-1.65-.38-2.69-.08-26.3,9.25-50.75,18.73-73.33,28.44-20.57,8.85-39.73,17.75-57.48,26.73-2.08,1.05-4.46-.73-4.03-3.01,.95-5.06,1.65-9.96,2.1-14.7,.62-6.47,.3-12.48-.93-18.03-2.17-11.4-9.09-30.02-21.82-31.3-7.86-.8-15.21-.45-20.07,8.23-.97,1.73-1.62,3.9-2.32,9.28,0,0,0,.02,0,.03-3.91,25.25-2.64,50.1,3.65,74.31-11.05,7.01-21.2,14.11-30.43,21.3-17.64,13.56-30.78,26.59-39.45,39.07-8.66,12.49-12.22,23.5-10.67,33.06,1.55,10.47,8.2,16.02,19.96,16.65h1.86c6.5,0,14-2.08,22.51-6.24,8.51-4.16,17.1-10.95,25.76-20.35,8.67-9.41,17.01-21.58,25.06-36.53,.72-1.34,1.43-2.71,2.13-4.11,.04,.08,.08,.16,.12,.23,15.8,30.04,39.88,58.84,71.57,85.6,56.51,47.71,117.4,72.27,118.01,72.51,9.64,3.84,72.56,19.59,83.04,19.67,10.86,.59,21.44,.88,31.75,.88,88.81,0,156.88-21.79,202.6-64.93,46.16-43.56,69.57-109.09,69.57-194.78,0-48.25-10.4-95.06-30.9-139.13ZM222.98,397.97c-2.94,10.83-6.22,20.71-9.82,29.65-3.46-7.79-6.44-15.84-8.86-24.15,4.63-2.86,9.45-5.75,14.54-8.68,2.18-1.26,4.81,.76,4.15,3.18Zm-23.73-71.79s.02-.03,.02-.05c.4-2.47,3.02-9.88,5.85-11.09,3.32-1.42,7.82-1.95,13.06,.6,.2,.1,.38,.22,.58,.32,9.83,4.92,10.57,15.91,11.95,24.64,.89,5.61,1.39,11.87,.46,18.96-.88,6.73-2.18,13.86-3.89,21.42-.18,.78-.7,1.46-1.4,1.85-8.22,4.5-16.04,9.04-23.48,13.62-5.41-21.75-6.94-45.18-3.15-70.27Zm6.17,118.23c-7.59,14.33-15.55,25.89-23.9,34.68-8.35,8.78-16.48,15.03-24.36,18.73-7.89,3.7-14.62,5.39-20.19,5.09-2.47,0-5.18-.69-8.12-2.08-2.94-1.39-4.71-4.39-5.34-9.02-.93-4.93,.23-10.94,3.48-18.03,3.25-7.09,8.98-14.96,17.17-23.58,8.2-8.63,18.88-17.88,32.02-27.74,6.81-5.11,14.46-10.34,22.88-15.7,2.87,9.52,6.52,18.94,10.94,28.25-1.48,3.28-3.01,6.42-4.59,9.41Z"/></svg>