<?xml version="1.0" encoding="utf-8"?>
<!-- Generator: Adobe Illustrator 28.0.0, SVG Export Plug-In . SVG Version: 6.00 Build 0)  -->
<svg version="1.1" id="a" xmlns="http://www.w3.org/2000/svg" xmlns:xlink="http://www.w3.org/1999/xlink" x="0px" y="0px"
	 viewBox="0 0 900 825" style="enable-background:new 0 0 900 825;" xml:space="preserve">
<style type="text/css">
	.st0{fill:#F7A1C9;}
	.st1{fill:#2E2427;}
</style>
<path class="st0" d="M435.1,84C331.9-68,33.3,197.6,58.4,406.9C77.9,568.4,443.6,890,557,722.4c121.1-178.9,332.4-101.2,337.9-297.1
	C901.1,202.3,551.1,254.9,435.1,84z"/>
<path class="st1" d="M227.4,272.7c-0.1,5.3-5.9,3.2-9.2,8.1c-3.1,4.6-13-4.2-13.6-8.6c-0.7-5.7,7.4-12.9,10.2-8.8
	C218,268.1,227.5,266.7,227.4,272.7L227.4,272.7z"/>
<path class="st1" d="M772.6,254.9c-2.3-0.8-4.4-1.6-6.5-2.6c12.5,34.9,19,71.7,19,109.4c0,84.2-22.8,148.4-67.9,190.9
	c-49.9,47-127.3,68.1-230,62.6c-0.1,0-0.3,0-0.5,0c-0.1,0-0.3,0-0.4,0c-10.6-0.3-71.7-15.7-80.8-19.3
	c-1.8-0.7-136.7-56.2-188.5-160.1c5.7-12.6,10.7-27.1,15-43.6c0.1-0.2,0.1-0.4,0.1-0.6c0-0.8,0.1-1.5,0.2-2.2
	c0.1-0.4,0.2-0.9,0.3-1.4c0.2-0.7,0.7-1.4,1.4-1.7c18-9.7,38.4-19.5,61.2-29.5c21.7-9.5,45.9-19,72.8-28.5c-0.4,1.2-0.9,2.5-1.3,3.8
	c-1.2,3.9-2.2,7.8-2.8,11.8s-0.9,7.9-0.7,11.8c0.2,3.9,1,7,2.5,9.5c1.2,3.1,3.7,5.1,7.4,6c0.9,0.3,2.3,0.5,4.2,0.5
	c12.1,0,24-9.9,35.7-29.6c5.3,14.5,13.8,23.6,25.5,27.3c7.1,2.5,15.1,2.9,23.9,1.2c8.8-1.7,17.7-4.7,26.7-9s17.9-9.6,26.9-16
	c7.7-5.5,15-11.1,21.8-16.9c0.1,0.2,0.2,0.5,0.2,0.7c1.4,4.2,4.1,8.9,8.1,14.1c-8,7.7-14.5,14.9-19.3,21.5
	c-4.8,6.6-7.5,10.2-8.1,10.9c-0.9,1.9-0.5,3.5,1.4,5.1c0.3,0,0.5,0.1,0.7,0.2c0.2,0.2,0.5,0.2,1.2,0.2c1.2,0,2.2-0.6,2.8-1.9
	c0.3,0,2.7-3.3,7.2-9.9c4.5-6.6,10.8-13.6,18.8-21c2.5,2.5,5.3,4.9,8.6,7.4s6.9,4.6,10.9,6.5c5.9,2.5,12,4.4,18.3,5.8
	c6.3,1.4,13.2,2.2,20.7,2.1c27.8-0.6,39.5-6.5,59.1-22c1.9-1.2,5.9-5.8,3.9-7.8c-1.2-1.2-4.9,1.5-7,3.1c-0.8,0.6-1.6,1.2-2.4,1.7
	c-2.7,1.7-3.2,2.3-7.2,4.9c-5.9,3.9-9.8,7.8-23.7,10.8c-13.5,3-25.2,2.5-34.8,1.2c-9.6-1.4-17.5-3.5-23.7-6.2
	c-6.8-3.1-12.5-7.1-17.2-12c5.3-4.3,10.9-8.2,16.9-11.8c6-3.5,12.6-6.1,19.7-7.6c1.9,0,2.8-1.2,2.8-3.7c-0.6-2.5-2-3.4-4.2-2.8
	c-7.7,1.5-14.9,4.2-21.6,7.9c-6.7,3.7-12.8,8-18.3,13c-3.4-4.6-5.7-8.6-7-12c-1.2-3.2-3.4-8-5.6-8.8c-0.3-0.1-0.5-0.1-0.8,0
	c-3.4,1.4-17.4,15.4-25.1,20.8c-8.4,5.9-16.8,11-25.3,15.3s-16.9,7.4-25.3,9.2c-8.4,1.8-15.8,1.7-22.3-0.5
	c-11.5-3.7-19-13.9-22.7-30.5c-0.3-1.2-1.4-2.1-3.2-2.8c-1.9,0-2.9,0.6-3.2,1.9c-6.2,11.7-12.5,20.4-18.8,26.1s-12.3,7.9-17.9,6.7
	c-1.2,0-2.2-0.8-2.8-2.3c-0.9-1.5-1.5-3.8-1.6-6.7c-0.2-2.9,0.1-6.1,0.7-9.5c0.6-3.4,1.4-6.9,2.3-10.6c0.9-3.7,2.2-7.1,3.7-10.2
	c0.6-2.4-0.1-3.9-2.2-4.6c-0.2-0.2-0.4-0.3-0.6-0.4h-0.1c-0.8-0.3-1.6-0.4-2.7-0.1c-26.3,9.2-50.8,18.7-73.3,28.4
	c-20.6,8.9-39.7,17.8-57.5,26.7c-2.1,1-4.5-0.7-4-3c0.9-5.1,1.6-10,2.1-14.7c0.6-6.5,0.3-12.5-0.9-18c-2.2-11.4-9.1-30-21.8-31.3
	c-7.9-0.8-15.2-0.5-20.1,8.2c-1,1.7-1.6,3.9-2.3,9.3c-3.9,25.2-2.6,50.1,3.6,74.3c-11.1,7-21.2,14.1-30.4,21.3
	c-17.6,13.6-30.8,26.6-39.4,39.1c-8.7,12.5-12.2,23.5-10.7,33.1c1.6,10.5,8.2,16,20,16.6h1.9c6.5,0,14-2.1,22.5-6.2
	c8.5-4.1,17.1-11,25.8-20.4c8.7-9.4,17-21.6,25.1-36.5c0.7-1.3,1.4-2.7,2.1-4.1c0,0.1,0.1,0.2,0.1,0.2c15.8,30,39.9,58.8,71.6,85.6
	c56.5,47.7,117.4,72.3,118,72.5c9.6,3.8,72.6,19.6,83,19.7c10.9,0.6,21.4,0.9,31.8,0.9c88.8,0,156.9-21.8,202.6-64.9
	c46.2-43.6,69.6-109.1,69.6-194.8C790.5,325.2,784.5,289.4,772.6,254.9z M199.2,326.2c0.4-2.5,3-9.9,5.9-11.1
	c3.3-1.4,7.8-2,13.1,0.6c0.2,0.1,0.4,0.2,0.6,0.3c9.8,4.9,10.6,15.9,11.9,24.6c0.9,5.6,1.4,11.9,0.5,19c-0.9,6.7-2.2,13.9-3.9,21.4
	c-0.2,0.8-0.7,1.5-1.4,1.9c-8.2,4.5-16,9-23.5,13.6C197,374.7,195.5,351.3,199.2,326.2z M205.4,444.4c-7.6,14.3-15.6,25.9-23.9,34.7
	c-8.4,8.8-16.5,15-24.4,18.7c-7.9,3.7-14.6,5.4-20.2,5.1c-2.5,0-5.2-0.7-8.1-2.1c-2.9-1.4-4.7-4.4-5.3-9c-0.9-4.9,0.2-10.9,3.5-18
	c3.3-7.1,9-15,17.2-23.6c8.2-8.6,18.9-17.9,32-27.7c6.8-5.1,14.5-10.3,22.9-15.7c2.9,9.5,6.5,18.9,10.9,28.2
	C208.5,438.3,207,441.4,205.4,444.4z M213.2,427.6c-3.5-7.8-6.4-15.8-8.9-24.1c4.6-2.9,9.4-5.8,14.5-8.7c2.2-1.3,4.8,0.8,4.2,3.2
	C220.1,408.8,216.8,418.7,213.2,427.6z"/>
<path class="st1" d="M199.2,326.2C199.3,326.1,199.2,326.2,199.2,326.2L199.2,326.2z"/>
<path class="st0" d="M247.4,691.7c-21.9-11.8-61.7,5.5-118.2,51.4c-39.7,32.3-74.2,68.1-77.5,71.5c-2.4,1.4-5.2,1.4-7.7,0.1
	c-2.5-1.4-4-3.8-4-6.7l31-244.7V563c0.1-7.4-2.1-14.7-6.2-20.9c-35.5-54.2-54.3-116.3-54.3-179.7c0-93.9,40.3-182.3,113.4-248.7
	C197,47,294.3,10.3,397.8,10.3s200.8,36.6,274,103.1C717,154.6,749.6,203.9,768,258c2.2,1,4.4,2,6.6,3c-4.2-12.8-9.1-25.4-14.9-37.8
	c-19.8-42.5-48.1-80.7-84.2-113.5C601.3,42.2,502.7,5.1,397.8,5.1S194.4,42.1,120.2,109.5c-36.1,32.8-64.4,71-84.2,113.5
	C15.5,267.2,5.1,314,5.1,362.2c0,64.4,19.1,127.6,55.2,182.7c3.5,5.3,5.3,11.5,5.3,17.8l-31,244.7v0.3c0,4.9,2.5,9.2,6.8,11.5
	c2,1.1,4.2,1.7,6.4,1.7c2.4,0,4.9-0.7,7.1-2.1l0.3-0.2l0.2-0.2c0.4-0.4,36-37.8,77.3-71.3c53.9-43.8,92.6-61.4,112.2-50.8
	c1.3,0.7,2.9,0.2,3.6-1.1C249.2,694,248.7,692.4,247.4,691.7z"/>
</svg>
