<?xml version="1.0" encoding="UTF-8"?><svg xmlns="http://www.w3.org/2000/svg" viewBox="0 0 331.21 219.23"><defs><style>.d{fill:none;stroke:#231f20;stroke-miterlimit:10;stroke-width:4px;}</style></defs><g id="a"/><g id="b"><g id="c"><path class="d" d="M2,5.87V213.36c0,2.14,2.24,3.87,5,3.87H324.21c2.76,0,5-1.73,5-3.87V6.32c0-2.13-2.23-3.86-4.99-3.87L7.01,2c-2.77,0-5.01,1.73-5.01,3.87Zm323.4-1.84L168.84,107.02c-1.87,1.23-4.61,1.23-6.48,0L4.66,3.28c-.33-.21-.13-.63,.3-.63H324.75c.94,0,1.37,.91,.65,1.38Zm-2.2,212.55H8c-2.76,0-5-1.73-5-3.87V3.8c0-.27,.41-.42,.67-.24L161.89,105.85c1.97,1.27,4.5,1.28,6.48,0L326.97,3.93c.49-.32,1.24-.05,1.24,.44V212.71c0,2.14-2.24,3.87-5,3.87Z"/></g></g></svg>