<svg id="Layer_1" data-name="Layer 1" xmlns="http://www.w3.org/2000/svg" viewBox="0 0 1500 1000"><defs><style>.cls-1{fill:#621a21;}.cls-2{fill:#fff;}.cls-3{fill:#ff192f;}</style></defs><rect class="cls-1" width="1500" height="1000"/><path class="cls-2" d="M306.84,661.73a24.33,24.33,0,0,0,6,1c.76,0,2,1.2,2.18,2.4.66,2.95,2.18,8.51,2.18,12.88,0,1.63-1.09,4.25-2.72,4.25-1.1,0-1.86-.33-3.5-3.27-1.41-2.62-2.51-5.57-5.23-8a23.72,23.72,0,0,0-15.28-5.78c-15.16,0-20.51,14.4-20.51,27.17,0,18,10.26,30.54,22.8,30.54a11.55,11.55,0,0,0,4.91-1.52c1.1-.77,1.53-4.48,1.53-7,0-4.14-.11-8.18-.22-9.6-.21-2.18-.65-4-4.69-5-3.71-.88-5.13-2-5.13-3.61,0-1,1.2-2.5,4.48-2.5,3.05,0,6.22.54,9.82.54,3.27,0,14-.54,16.14-.54,3.06,0,4,1.2,4,2.5,0,1.53-2.07,2.73-3.49,3.28-3.82,1.31-3.6,3.16-3.71,4.69-.22,2.51-.22,4.47-.22,6.54a60.76,60.76,0,0,0,.33,7,19.91,19.91,0,0,1,.33,3.16,7.23,7.23,0,0,1-1.53,2.07c-1.31,1-4,2.4-8.62,3.71a56.57,56.57,0,0,1-15,2.29c-17.89,0-28-5.34-35-13.85-4.91-6-6.76-14-6.76-21.06,0-11.78,5-20,13.64-26.51,6.22-4.8,17.56-8.18,27.49-8.18C298.22,659.33,302.26,660.53,306.84,661.73Z"/><path class="cls-2" d="M409.6,694.13c0,13.64-8.07,24.33-18.33,30-4.69,2.62-12.33,4.58-19.31,4.58-23,0-38.07-15.7-38.07-34.58a32.71,32.71,0,0,1,9.93-23.45,40.22,40.22,0,0,1,27.82-11.35C394.33,659.33,409.6,674.6,409.6,694.13Zm-49.75-24.65c-4.58,5-6.54,12.43-6.54,22.69,0,14.83,6.76,31,21.49,31,3.71,0,8.07-3.27,8.62-3.71,3.49-3.27,6.33-10.14,6.33-24.54,0-11.46-5.68-29.9-20.08-29.9C364.54,665,360,669.37,359.85,669.48Z"/><path class="cls-2" d="M423.56,661c3.38,0,11.56.54,15.16.54,4.8,0,9.93-.32,11.46-.32,2.83,0,4.8,1.52,4.8,2.61,0,1.31-2.51,2.73-4.15,3.17-4.91,1.31-5.56,2.73-5.89,7.85a184.52,184.52,0,0,0,.11,23.35c.54,9.49,2.62,14.51,4.91,16.47a19.22,19.22,0,0,0,12.11,4.58c8.4,0,15.16-4,16.58-15.82.55-4.36.66-16.14.66-22.47,0-11.34-.11-12.22-7.86-14.07-2.18-.55-4-1.42-4-3.27,0-.88,1.53-2.4,4.48-2.4,2.18,0,5.67.32,9.82.32,3.92,0,8.4-.54,12.21-.54,2.08,0,4.26.65,4.26,2.51,0,1.41-1.86,2.51-4,3.27-5,1.85-5.78,2.73-6.43,8.07-.22,1.31-.66,10.48-1.1,18.88-1,17.67-4.58,23.23-9.92,28.47-4.48,4.36-12.11,6.54-19.64,6.54-8.84,0-18.33-2.72-22.91-8.83-6.11-8.08-6.55-16.48-6.55-28.91,0-13.09-.21-14.73-.43-18-.33-4.37-1.09-4.91-5.13-6.11-2.18-.66-4-1.53-4-3.38C418,662,420,661,423.56,661Z"/><path class="cls-2" d="M507.88,661.29c.55,0,10,.22,14.4.22s12.88-.32,15.06-.32,3.6,1.09,3.6,2.4-1.42,2.4-3.71,2.83c-6.11,1.31-6.44,3.71-6.55,6-.22,2.51-.65,8.62-.65,18,0,11.46.33,21.93.54,25.64.11,1.64,2.73,3.93,6.88,4.91a26.12,26.12,0,0,0,9-.33c3.27-.65,8.73-7.09,11-11.24,1.09-2.07,2.29-2.83,2.62-2.83,2,0,3.27,2.29,2.73,4.25-.77,2.73-2.84,11.35-3.6,13.53a5.06,5.06,0,0,1-4.8,2.73c-3.82,0-15.39-.33-28.91-.33-7.42,0-18.33.55-20.73.55s-4.26-1.2-4.26-2.73,1.64-2.29,3.49-2.62c7.31-1.42,8.08-4,8.29-6.54.22-3.28.44-7.86.44-20.84,0-19.75.11-19.53-.11-22.48-.33-3.6-1.53-4.14-5.13-5.67-2.29-1-3.16-1.74-3.16-2.94C504.39,661.73,506.46,661.29,507.88,661.29Z"/><path class="cls-2" d="M617,669.91c5.89,15.82,14.84,37,17.78,43.64,2.73,6.11,4.26,6.22,8.51,8,2.51,1.1,3.38,2.73,3.38,3.93s-1.74,1.86-3.81,1.86c-3.39,0-11.89-.55-17.24-.55-4.69,0-7.64.55-11.56.55-3.06,0-4-1.31-4-2.08,0-1.31,1.31-2.83,3.38-3.71,3.82-1.63,3.82-4,3.27-5.89-1-2.72-1.09-3.27-2.51-6.54a3.72,3.72,0,0,0-2.83-1.75c-1.86-.22-15.49-.43-18,.11-.66.11-1.53,1.2-1.75,1.64a30.74,30.74,0,0,0-1.74,7.74c0,2,1.41,3.6,4.91,4.8,1.52.55,3.16,1.42,3.16,2.84,0,.55-1.53,2.62-4.36,2.62-1.31,0-3.71-.33-7.21-.33-4,0-8.5.55-13.09.55-2.4,0-4-1.09-4-2.4,0-1.09.87-2.19,3.27-3.17,4-1.63,6.22-2,9.71-9.27,2.73-5.78,10.47-25.42,17-42.66a7.08,7.08,0,0,0,.33-2.29,2.61,2.61,0,0,1,1-1.52c1.42-.88,6.87-4.48,8.07-5.46a6.1,6.1,0,0,1,2.95-1.2C613.48,659.33,614.13,662.6,617,669.91Zm-6.54,28.8A193.22,193.22,0,0,0,603.22,680c-.43-.76-1.09-.44-1.41,0A196.62,196.62,0,0,0,595,698.6a1.36,1.36,0,0,0,1.2,1.53c1.42,0,11.57,0,13.09-.11C609.88,700,610.53,699,610.43,698.71Z"/><path class="cls-2" d="M696.71,662.38c.66.11,1.42,1.86,1.42,3.06s.76,7.31.76,8.95c0,3.71-1.74,5.23-3.27,5.23-1.2,0-2.18-1.85-2.51-2.73-2.4-6.54-8.07-12.43-14.29-12.43-4.58,0-8.73,4.25-8.73,8.4,0,4.91,3.6,8.51,9.82,11.67,13.75,7,21.82,13.09,21.82,23.46,0,8.94-6.11,14-10,16.36a37.37,37.37,0,0,1-16.47,4.36c-9.27,0-14.62-2-17.13-2.94a6.53,6.53,0,0,1-3.05-2.51c-1.86-3.93-2.18-9.6-2.18-12.22,0-2.07,1.09-4.69,2.83-4.69,1.2,0,2.62,1.31,4.15,4.15,4,7.41,10,12.76,16.8,12.76,3.93,0,8.84-2.73,8.84-7.75,0-3.27.21-6.87-10.91-12.87-14.3-7.64-19.86-13.53-19.86-23.67,0-7.09,5-12.88,10.26-15.82a32,32,0,0,1,15.6-3.71C686.68,659.44,692.46,661.4,696.71,662.38Z"/><path class="cls-2" d="M739.91,689.55c19.09,0,22.8-.11,24.87,0,.44,0,1.31-1.64,1.31-2.07,0-7.42,0-13.53-.43-16.15-.33-2-.55-3.05-5.24-4.25-4-1.09-4.69-2.73-4.69-3.49,0-1.1,2-2.4,4.25-2.4,4.48,0,7.53.32,11.68.32s15.16-.32,17.34-.32,3.49,1.09,3.49,2.4-1.31,2.4-4.14,3c-3.38.76-4.15,2.4-4.48,5-.43,3.16-.54,11.67-.54,21.16,0,13.53.33,17.35.54,21.38.33,5.24,2.19,6.11,5.57,7,3,.76,4.14,2.07,4.14,3.27,0,1.42-1.74,2.62-4.14,2.62-2.07,0-6.22-.33-10.26-.33-5.67,0-15,.55-18.32.55-2.19,0-4.26-.88-4.26-2.62,0-1.09,1-2,4.36-3.27,4-1.53,4.48-3.93,4.8-5.68a86,86,0,0,0,.33-16c-.33-2.73-1.31-3-1.42-3-8.07,0-23.56.33-25.09.33-.76,0-1.31,2.18-1.31,2.73,0,2.94.11,13.52.22,15.16.33,3.71.76,5.45,6.22,6.76,1.31.33,3.49,1.75,3.49,3.17,0,1.85-1.53,2.29-4.25,2.29-3.17,0-11-.44-15.71-.44-3.5,0-9.82.55-13.1.55-2.29,0-4.14-1.2-4.14-2.51s2-2.4,3.93-3.17c4.58-1.85,5.45-2.83,5.67-7.52s.33-16.91.33-32.62c0-8.19-.33-9-.55-10.26-.43-2.51-1.74-4-6.76-5.23-1.2-.33-2.4-1.31-2.4-2.51s2.4-2.4,4.47-2.4c5.35,0,12.87.43,15.82.43,3.38,0,5.56-.22,9.38-.22,1.75,0,3.93.55,3.93,2.51,0,1.64-2.62,2.62-3.93,3.06-1.74.65-2.62,2.84-2.62,5.56v14.4C738.27,688.35,739.15,689.55,739.91,689.55Z"/><path class="cls-2" d="M881.18,661.73a24.33,24.33,0,0,0,6,1c.76,0,2,1.2,2.18,2.4.65,2.95,2.18,8.51,2.18,12.88,0,1.63-1.09,4.25-2.73,4.25-1.09,0-1.85-.33-3.49-3.27-1.41-2.62-2.51-5.57-5.23-8a23.72,23.72,0,0,0-15.28-5.78c-15.16,0-20.51,14.4-20.51,27.17,0,18,10.26,30.54,22.81,30.54a11.55,11.55,0,0,0,4.9-1.52c1.1-.77,1.53-4.48,1.53-7,0-4.14-.11-8.18-.22-9.6-.21-2.18-.65-4-4.69-5-3.71-.88-5.13-2-5.13-3.61,0-1,1.2-2.5,4.48-2.5,3,0,6.22.54,9.82.54,3.27,0,14-.54,16.14-.54,3.06,0,4,1.2,4,2.5,0,1.53-2.07,2.73-3.49,3.28-3.82,1.31-3.6,3.16-3.71,4.69-.22,2.51-.22,4.47-.22,6.54a60.76,60.76,0,0,0,.33,7,20.1,20.1,0,0,1,.32,3.16,7.2,7.2,0,0,1-1.52,2.07c-1.31,1-4,2.4-8.62,3.71a56.57,56.57,0,0,1-15,2.29c-17.89,0-28-5.34-35-13.85-4.91-6-6.76-14-6.76-21.06,0-11.78,5-20,13.64-26.51,6.21-4.8,17.56-8.18,27.49-8.18C872.56,659.33,876.6,660.53,881.18,661.73Z"/><path class="cls-2" d="M949.36,669.91c5.89,15.82,14.83,37,17.78,43.64,2.73,6.11,4.25,6.22,8.51,8,2.51,1.1,3.38,2.73,3.38,3.93s-1.74,1.86-3.82,1.86c-3.38,0-11.89-.55-17.23-.55-4.7,0-7.64.55-11.57.55-3,0-4-1.31-4-2.08,0-1.31,1.3-2.83,3.38-3.71,3.82-1.63,3.82-4,3.27-5.89-1-2.72-1.09-3.27-2.51-6.54a3.75,3.75,0,0,0-2.84-1.75c-1.85-.22-15.49-.43-18,.11-.65.11-1.52,1.2-1.74,1.64a30.81,30.81,0,0,0-1.75,7.74c0,2,1.42,3.6,4.91,4.8,1.53.55,3.17,1.42,3.17,2.84,0,.55-1.53,2.62-4.37,2.62-1.31,0-3.71-.33-7.2-.33-4,0-8.51.55-13.09.55-2.4,0-4-1.09-4-2.4,0-1.09.88-2.19,3.28-3.17,4-1.63,6.22-2,9.71-9.27,2.72-5.78,10.47-25.42,17-42.66a7.08,7.08,0,0,0,.33-2.29,2.66,2.66,0,0,1,1-1.52c1.42-.88,6.88-4.48,8.08-5.46a6.07,6.07,0,0,1,2.94-1.2C945.87,659.33,946.52,662.6,949.36,669.91Zm-6.55,28.8a193.62,193.62,0,0,0-7.2-18.76c-.43-.76-1.09-.44-1.42,0-1.74,3.6-6.43,17-6.76,18.65a1.36,1.36,0,0,0,1.2,1.53c1.42,0,11.56,0,13.09-.11C942.27,700,942.92,699,942.81,698.71Z"/><path class="cls-2" d="M988.3,661.29c.54,0,10,.22,14.4.22s12.87-.32,15-.32,3.6,1.09,3.6,2.4-1.42,2.4-3.71,2.83c-6.11,1.31-6.43,3.71-6.54,6-.22,2.51-.66,8.62-.66,18,0,11.46.33,21.93.55,25.64.11,1.64,2.73,3.93,6.87,4.91a26.18,26.18,0,0,0,9.06-.33c3.27-.65,8.72-7.09,11-11.24,1.1-2.07,2.3-2.83,2.62-2.83,2,0,3.28,2.29,2.73,4.25-.76,2.73-2.84,11.35-3.6,13.53a5,5,0,0,1-4.8,2.73c-3.82,0-15.38-.33-28.91-.33-7.42,0-18.33.55-20.73.55s-4.25-1.2-4.25-2.73,1.63-2.29,3.49-2.62c7.31-1.42,8.07-4,8.29-6.54.22-3.28.44-7.86.44-20.84,0-19.75.11-19.53-.11-22.48-.33-3.6-1.53-4.14-5.13-5.67-2.29-1-3.16-1.74-3.16-2.94C984.81,661.73,986.88,661.29,988.3,661.29Z"/><path class="cls-2" d="M1053.86,661.29c.54,0,10,.22,14.4.22s12.87-.32,15-.32,3.6,1.09,3.6,2.4-1.42,2.4-3.71,2.83c-6.11,1.31-6.43,3.71-6.54,6-.22,2.51-.66,8.62-.66,18,0,11.46.33,21.93.55,25.64.11,1.64,2.73,3.93,6.87,4.91a26.18,26.18,0,0,0,9.06-.33c3.27-.65,8.73-7.09,11-11.24,1.09-2.07,2.29-2.83,2.61-2.83,2,0,3.28,2.29,2.73,4.25-.76,2.73-2.83,11.35-3.6,13.53a5,5,0,0,1-4.8,2.73c-3.82,0-15.38-.33-28.91-.33-7.42,0-18.33.55-20.73.55s-4.25-1.2-4.25-2.73,1.63-2.29,3.49-2.62c7.31-1.42,8.07-4,8.29-6.54.22-3.28.44-7.86.44-20.84,0-19.75.11-19.53-.11-22.48-.33-3.6-1.53-4.14-5.13-5.67-2.29-1-3.16-1.74-3.16-2.94C1050.37,661.73,1052.44,661.29,1053.86,661.29Z"/><path class="cls-2" d="M1151,661.51c9.92,0,11.45,0,14-.54a2.13,2.13,0,0,1,2.29,1c.66,1.09,1.53,9.38,1.53,11.78,0,2.84-1.31,3.49-2,3.49-2,0-3-1.2-4.36-4.14-2.07-4.48-3.6-5.24-4.47-5.24-6.22,0-12.22.33-13.75.33-.54,0-1.42,1.2-1.42,1.63-.11,2.08-.32,9.93-.32,17.46,0,1.74.32,2.84.87,2.94a35.8,35.8,0,0,0,7,.11c4.91-.32,6.44-2.07,7.64-4.8.65-1.63,1.74-2.94,2.94-2.94,1.53,0,2.51,1.52,2.29,4.69-.1,1.31-.21,3.82-.21,6.33s.21,5,.32,6.65c.22,3-1.42,4.26-2.51,4.26s-2.4-1.2-3.38-3.39c-1.09-2.51-1.42-3.27-3.71-3.49a98,98,0,0,0-10-.54c-.55,0-1.2,1.52-1.2,4.25,0,2.95.32,9.28.43,11.68.22,3.16.66,4.36,1,4.8,1.09,1.63,6.33,3.05,11.57,3.05a15.82,15.82,0,0,0,7.31-1.74c2.07-1.1,3.16-2.41,5.56-5.68,1.75-2.4,3-5,4.69-5,2.08,0,2.73,3.17,2.29,5.46a102.92,102.92,0,0,1-3.7,11.45c-.33.77-2.62,2-3.28,2-1.42,0-5.78-.55-25.64-.55-6.87,0-20.61.44-25.31.44-2.29,0-3.92-.88-3.92-1.75,0-1.31.87-2.83,3.16-3.49,7.53-2.07,7.75-4.58,8-6.54.44-5.24.55-7.53.55-24.33,0-12.44-.22-17.46-.55-19.42-.54-3.27-2-4.47-6.32-5.57-2.84-.65-3.28-2.18-3.28-2.94,0-1.42,2.19-2.18,3.6-2.18,1.86,0,14,.54,21.17.54Z"/><path class="cls-2" d="M1179.31,661c2.07,0,15,.54,18.11.54,4.36,0,8.4-.22,10.25-.22s3.49,1.09,3.49,2.3c0,.65-1,2.07-3.71,3.16-2.29,1-2.18,1.85-1.09,4.25,3.49,7.31,9.06,16.48,10.8,19.42a1.25,1.25,0,0,0,1.86.11c1.2-1.09,7.42-13.09,9.38-17.45,1.85-3.93,1.2-5-2.84-6.44-1.63-.55-3.49-1.53-3.49-2.95s2-2.4,4.26-2.4c3.81,0,4.8.22,7.52.22,4.15,0,9.17-.43,13-.43,1.85,0,3.16,1.2,3.16,2.18,0,1.31-1.64,2.62-3.71,3.27-3.6,1.2-6.65,3-10,7.53-4.8,6.54-12.43,18.54-14.61,23.34-.66,1.42-.66,2.62-.77,4.91-.22,3.71-.22,10.91-.22,14.08.33,2.73,3.17,3.92,7.53,5.45,2,.66,3,1.75,3,2.95s-1.64,2.62-3.82,2.62c-4.26,0-8.07-.66-14.73-.66-9.27,0-10.47.33-14.4.33-3.16,0-4.91-1-4.91-2.73,0-1.2,1.86-2.62,4.8-3.38,3.6-.87,4.58-1.53,4.91-7.09.22-3.6.22-9.93.22-12.11,0-1.86-.44-3.6-2.18-6.66-4.69-8.72-10.26-18.32-13.64-22.91a12.91,12.91,0,0,0-7.85-5.67c-2.84-.76-4.15-1.75-4.15-3.16C1175.38,661.73,1178,661,1179.31,661Z"/><path class="cls-2" d="M625,828q2.25-4.44,4.25-9t3.74-8.87q1.75-4.27,3.3-8.07t2.87-6.59a31.28,31.28,0,0,1,2.47-4.43q1.14-1.62,2.1-1.62a48.39,48.39,0,0,1-6.46-.49q-3.64-.48-7.66-1.22l-8.14-1.5-8.62-1.58-7.11-1.31a27.39,27.39,0,0,0-4.94-.48,14.3,14.3,0,0,0-4.89.74,9.1,9.1,0,0,0-3.26,2,7.42,7.42,0,0,0-1.83,2.87,10.43,10.43,0,0,0-.57,3.44,13.56,13.56,0,0,0,.84,4.61,15.7,15.7,0,0,0,2.26,4.2,12.9,12.9,0,0,0,3.33,3.07,7.51,7.51,0,0,0,4,1.18,27.05,27.05,0,0,0,6.77-.7,14,14,0,0,0,4.22-1.78A7.45,7.45,0,0,0,614,800a8.76,8.76,0,0,0,1.25-4.11c0-.47.09-.71.22-.71a1.17,1.17,0,0,1,.69.26,2.46,2.46,0,0,1,.62.66,3.76,3.76,0,0,1,.44.9,3,3,0,0,1,.17.94,9.07,9.07,0,0,1-1.15,4.61,10.52,10.52,0,0,1-3.07,3.37,14.39,14.39,0,0,1-4.42,2.07,18.83,18.83,0,0,1-5.15.71,16.87,16.87,0,0,1-7.19-1.48,17.61,17.61,0,0,1-5.44-3.83,17.1,17.1,0,0,1-3.47-5.27,14.94,14.94,0,0,1-1.22-5.79,12.1,12.1,0,0,1,.8-4.34,9.68,9.68,0,0,1,2.51-3.67,12.42,12.42,0,0,1,4.34-2.54,18.56,18.56,0,0,1,6.27-.94,55.15,55.15,0,0,1,8.56.51l6.39,1.06,7.62,1.27,6.86,1.15,6.17,1a44.5,44.5,0,0,0,6.92.57,43.26,43.26,0,0,0,7.59-.67,44,44,0,0,0,8-2.28c.22.1.46.22.73.37a4.6,4.6,0,0,1,.73.48,3,3,0,0,1,.57.56,1,1,0,0,1,.22.61c0,.34-.25.67-.74,1-1.07.65-2,1.16-2.82,1.55a17.66,17.66,0,0,1-2.25.89,10,10,0,0,1-2,.43c-.64.06-1.32.1-2,.1s-1.51,0-2.34-.05-1.83,0-3,0q-4,13-7.69,23.26a172.64,172.64,0,0,1-7.44,17.86l.13.15a4.84,4.84,0,0,0,2.17,1.76,7.82,7.82,0,0,0,2.94.53,13,13,0,0,0,3-.38,29.16,29.16,0,0,0,3.21-1c1.08-.39,2.16-.84,3.23-1.35s2.09-1,3.05-1.55c1.16-.63,2.29-1.29,3.4-2s2.25-1.46,3.41-2.26a1.56,1.56,0,0,1,.7-.2.66.66,0,0,1,.55.24.91.91,0,0,1,.19.59,2,2,0,0,1-.35,1,3.35,3.35,0,0,1-1.09,1c-1.25.85-2.49,1.66-3.74,2.42s-2.54,1.47-3.84,2.13c-1.11.58-2.29,1.14-3.53,1.67s-2.51,1-3.81,1.45a32.19,32.19,0,0,1-3.91,1,20.64,20.64,0,0,1-3.84.38,12.78,12.78,0,0,1-4.58-.77c-.45.77-.91,1.51-1.37,2.22s-.92,1.41-1.37,2.1q3.33,1.83,6.46,3.71c2.09,1.26,4.07,2.47,5.92,3.64s3.56,2.28,5.13,3.33,3,2,4.13,2.8,2.13,1.49,2.86,2,1.17.88,1.34,1a3.84,3.84,0,0,1,1.11,1.36,3.16,3.16,0,0,1,.34,1.34,1.52,1.52,0,0,1-.26.9.81.81,0,0,1-.7.35,2,2,0,0,1-1.14-.41,6.48,6.48,0,0,1-1.34-1.45,11,11,0,0,0-1.7-1.61c-.81-.67-1.82-1.43-3-2.28s-2.58-1.79-4.13-2.79-3.23-2-5-3.07-3.7-2.12-5.7-3.2-4.05-2.13-6.16-3.14a37.33,37.33,0,0,1-5,5.48,28.2,28.2,0,0,1-5.53,3.82,25.23,25.23,0,0,1-6.14,2.25,31.87,31.87,0,0,1-6.92.72,17.86,17.86,0,0,1-7-1.26,15.09,15.09,0,0,1-5-3.27,13.43,13.43,0,0,1-3-4.59,14.26,14.26,0,0,1-1-5.18,15.68,15.68,0,0,1,.76-5.22,8.62,8.62,0,0,1,2.17-3.47,8.45,8.45,0,0,1,3.37-1.95,14.63,14.63,0,0,1,4.36-.61,28.31,28.31,0,0,1,5.63.62,53.89,53.89,0,0,1,6.31,1.71c2.19.72,4.43,1.57,6.74,2.55s4.61,2,6.9,3.15c.5-.73,1-1.47,1.42-2.21s.9-1.51,1.35-2.28M600.4,851.59a13.64,13.64,0,0,0,4.78-.85,19,19,0,0,0,4.48-2.42,28.56,28.56,0,0,0,4.17-3.72,50.27,50.27,0,0,0,3.9-4.77c-2.07-.91-4.15-1.75-6.21-2.52s-4.07-1.44-6-2a56.53,56.53,0,0,0-5.59-1.32,28.81,28.81,0,0,0-4.94-.47,8.86,8.86,0,0,0-3.33.57,6.64,6.64,0,0,0-2.34,1.52,6.22,6.22,0,0,0-1.39,2.23,7.55,7.55,0,0,0-.46,2.63,9.86,9.86,0,0,0,.83,3.88,10.9,10.9,0,0,0,2.46,3.6,12.77,12.77,0,0,0,4.06,2.63A14.57,14.57,0,0,0,600.4,851.59Z"/><path class="cls-2" d="M661.47,833.33c0-.73,0-1.53.11-2.4s.17-1.77.29-2.72.26-1.92.43-2.89.36-1.93.55-2.88l-8,4.72a1.23,1.23,0,0,1-.71.23.93.93,0,0,1-.66-.26.84.84,0,0,1-.27-.64,1.59,1.59,0,0,1,.37-1,4.34,4.34,0,0,1,1.27-1l8.34-5.24c.34-1,.84-2.31,1.48-4s1.43-3.52,2.37-5.55,2-4.18,3.28-6.45a70.58,70.58,0,0,1,4.2-6.74,61.19,61.19,0,0,1,5.14-6.37,38.59,38.59,0,0,1,6.05-5.35,29.41,29.41,0,0,1,7-3.67,23.05,23.05,0,0,1,8-1.37,33.37,33.37,0,0,1,6.15.5,15.91,15.91,0,0,1,4.32,1.38,6.82,6.82,0,0,1,2.53,2.09,4.4,4.4,0,0,1,.84,2.59,7.64,7.64,0,0,1-1.89,4.64,21.47,21.47,0,0,1-5.65,4.75l-36.34,22.54-1.93,12.36c1.09-.66,2.19-1.33,3.28-2s2.12-1.32,3.09-1.94,1.87-1.19,2.67-1.72,1.45-1,1.94-1.33a11.1,11.1,0,0,1,1-.74,9.41,9.41,0,0,1,1.35-.77,11.85,11.85,0,0,1,1.62-.61,6.55,6.55,0,0,1,3.14-.11,2.54,2.54,0,0,1,1.21.66,3.66,3.66,0,0,1,.86,1.48,7.9,7.9,0,0,1,.34,2.6v8.28l1.2-.72,2.14-1.27,2.74-1.61,3-1.73L706,824.5a2.44,2.44,0,0,1,1.16-.39.66.66,0,0,1,.74.74,2,2,0,0,1-.44,1.11,4.67,4.67,0,0,1-1.46,1.2l-6.75,4q-3.22,1.9-5.85,3.37t-4.44,2.4a11.67,11.67,0,0,1-2.57,1c-.24,0-.48.07-.74.09a6.62,6.62,0,0,1-.77,0,5,5,0,0,1-1.88-.31,2.68,2.68,0,0,1-1.12-.83,3.1,3.1,0,0,1-.55-1.21,7.33,7.33,0,0,1-.14-1.44,5,5,0,0,1,.27-1.56,9.28,9.28,0,0,0,.4-1.81l.9-7q-4.85,3.4-8.86,6c-.94.75-1.87,1.47-2.79,2.15s-1.76,1.3-2.52,1.83a22.83,22.83,0,0,1-2,1.27,3.15,3.15,0,0,1-1.13.47,12.41,12.41,0,0,1-1.31-.07,4.42,4.42,0,0,1-1.3-.3,2.57,2.57,0,0,1-1-.71A1.8,1.8,0,0,1,661.47,833.33Zm9.73-19.18q4-2.73,8.41-5.64t8.84-5.77q4.49-2.87,8.92-5.61T706,792a23,23,0,0,0,3.76-3.41,4.66,4.66,0,0,0,1.32-2.83c0-1.07-.82-1.93-2.44-2.56a23.11,23.11,0,0,0-7.74-.95,13.75,13.75,0,0,0-4.94.95,23.67,23.67,0,0,0-4.87,2.59,33.9,33.9,0,0,0-4.63,3.84,54.93,54.93,0,0,0-4.27,4.71q-2,2.52-3.79,5.2t-3.19,5.29a52.31,52.31,0,0,0-2.46,5A35.72,35.72,0,0,0,671.2,814.15Z"/><path class="cls-2" d="M705.92,827.14a.92.92,0,0,1-.42.13A.52.52,0,0,1,705,827a1.31,1.31,0,0,1-.16-.69,2.55,2.55,0,0,1,.22-1,1.87,1.87,0,0,1,.84-.86l11.91-7a32.21,32.21,0,0,1,4.79-2.21,41.28,41.28,0,0,1,5.17-1.52,45.7,45.7,0,0,1,5.19-.87,46.67,46.67,0,0,1,4.86-.27,17.1,17.1,0,0,1,2.44.17,9.11,9.11,0,0,1,2,.48,3.77,3.77,0,0,1,1.29.77,1.4,1.4,0,0,1,.46,1,.69.69,0,0,1-.32.64,2.3,2.3,0,0,1-.75.28q-.43.07-.9.12a1.62,1.62,0,0,0-.72.21c-.13.53-.34,1.22-.61,2.06s-.57,1.71-.86,2.6l-.78,2.37c-.23.71-.36,1.11-.4,1.21-.28.87-.66,2-1.11,3.4s-1,3.23-1.57,5.52c0,0,.26-.12.73-.37l1.8-1,2.52-1.43,2.92-1.66,7.67-4.58a1.66,1.66,0,0,1,.77-.26.66.66,0,0,1,.55.24,1,1,0,0,1,.19.61,2.13,2.13,0,0,1-.35,1,3,3,0,0,1-1.16,1l-17.1,10a5.33,5.33,0,0,1-1.2.54,3.57,3.57,0,0,1-1,.16,2,2,0,0,1-1.1-.28,2.11,2.11,0,0,1-.75-.79,3.87,3.87,0,0,1-.44-1.14,6.06,6.06,0,0,1-.15-1.37,8.13,8.13,0,0,1,.17-1.63,9.94,9.94,0,0,1,.42-1.56,14.34,14.34,0,0,1-2.19,3.17,14.63,14.63,0,0,1-2.67,2.25,11.28,11.28,0,0,1-2.91,1.36,10.4,10.4,0,0,1-2.92.44,8.31,8.31,0,0,1-2.7-.44,6.42,6.42,0,0,1-2.22-1.33,6.08,6.08,0,0,1-1.51-2.19,7.69,7.69,0,0,1-.55-3A14.24,14.24,0,0,1,713,829a24.36,24.36,0,0,1,.54-2.56q.35-1.31.78-2.55c.29-.84.59-1.6.91-2.3Zm29.25-11.95a13.94,13.94,0,0,0-4.94.88,18.92,18.92,0,0,0-4.39,2.3,22.28,22.28,0,0,0-3.65,3.27,24.5,24.5,0,0,0-2.78,3.77,20.07,20.07,0,0,0-1.78,3.82,10.75,10.75,0,0,0-.63,3.38,4.57,4.57,0,0,0,.73,2.68,2.71,2.71,0,0,0,2.37,1,4.63,4.63,0,0,0,2.12-.6,13,13,0,0,0,2.32-1.59,23,23,0,0,0,2.33-2.23c.77-.83,1.47-1.68,2.12-2.53a27.46,27.46,0,0,0,1.69-2.49,11.48,11.48,0,0,0,1.05-2.13Z"/><path class="cls-2" d="M787.3,814.62a7.27,7.27,0,0,1-.29,1.91c-.19.73-.44,1.5-.74,2.31s-.62,1.65-1,2.5-.66,1.66-1,2.46-.55,1.53-.74,2.23a6.88,6.88,0,0,0-.29,1.76,1.57,1.57,0,0,0,.27,1,1.06,1.06,0,0,0,.89.36,3.41,3.41,0,0,0,1.26-.36,21.21,21.21,0,0,0,1.93-1c.74-.42,1.55-.91,2.44-1.47s1.82-1.15,2.81-1.79a1.14,1.14,0,0,1,.64-.2.9.9,0,0,1,.63.25.85.85,0,0,1,.27.64,1.53,1.53,0,0,1-.35.89,6,6,0,0,1-1.19,1.07A50.2,50.2,0,0,1,785.3,832a13.61,13.61,0,0,1-5.51,1.7,6,6,0,0,1-2.63-.48,1.6,1.6,0,0,1-1-1.51,5.47,5.47,0,0,1,.88-2.56,20,20,0,0,1,2.9-3.66,12,12,0,0,0,1.22-2.86,21.53,21.53,0,0,0,.66-3c.14-1,.23-1.9.27-2.74s.07-1.51.07-2a3.8,3.8,0,0,0-.4-1.91,1.44,1.44,0,0,0-1.34-.67,2.91,2.91,0,0,0-2,.93,12.09,12.09,0,0,0-2,2.56,33.71,33.71,0,0,0-1.94,3.86q-1,2.22-2,4.8l-2.07,5.34q-1.05,2.76-2.21,5.55a10.6,10.6,0,0,1-.48,1.13,8.75,8.75,0,0,1-.66,1.07,3.62,3.62,0,0,1-.84.82,1.63,1.63,0,0,1-1,.32,2.67,2.67,0,0,1-1.83-.54,2.32,2.32,0,0,1-.61-1.8,6.34,6.34,0,0,1,0-.74,3.21,3.21,0,0,1,.31-.9l6.19-12.49a27,27,0,0,1,2.62-5.28,31.09,31.09,0,0,1,2.52-3.35l-5.26,3.19-5.08,3.08-4.6,2.8q-2.17,1.32-3.87,2.33c-1.13.67-2.09,1.23-2.86,1.66s-1.3.72-1.6.85a1,1,0,0,1-.55.16.79.79,0,0,1-.59-.26,1,1,0,0,1-.24-.69,2.07,2.07,0,0,1,.3-1,2.84,2.84,0,0,1,1.08-1l8.57-5.08c1.11-.68,2.23-1.36,3.37-2l3.19-1.91,2.65-1.56,1.77-1a28.94,28.94,0,0,1,3-1.57,23.22,23.22,0,0,1,2.9-1.07,22.68,22.68,0,0,1,2.94-.65c1-.15,2-.26,3.13-.33a3.09,3.09,0,0,1,1.49.44,5.7,5.7,0,0,1,1.45,1.17,6.78,6.78,0,0,1,1.09,1.67A4.46,4.46,0,0,1,787.3,814.62Z"/><path class="cls-2" d="M842,834.26c.06,0,.26-.19.59-.56s.76-.86,1.28-1.47,1.11-1.33,1.76-2.13,1.32-1.64,2-2.5,1.34-1.73,2-2.58,1.28-1.65,1.84-2.39c-.06-.3-.1-.6-.14-.88a6.15,6.15,0,0,1-.06-.87,9.71,9.71,0,0,1,.85-4.19,10.41,10.41,0,0,1,2.1-3,9.17,9.17,0,0,1,2.69-1.86,6.56,6.56,0,0,1,2.62-.63,3.23,3.23,0,0,1,2.3.65,2.28,2.28,0,0,1,.67,1.73,7.45,7.45,0,0,1-.54,2.57,22.73,22.73,0,0,1-1.46,3.08c-.6,1.09-1.31,2.22-2.1,3.37s-1.63,2.29-2.48,3.4a8.31,8.31,0,0,0,2,2.29,3.91,3.91,0,0,0,2.47.88,4.24,4.24,0,0,0,2.15-.66l6.81-4.09a.86.86,0,0,1,.45-.13.74.74,0,0,1,.59.28,1.07,1.07,0,0,1,.24.73,1.73,1.73,0,0,1-.29.91,2.68,2.68,0,0,1-1,.91L864.54,830a8.88,8.88,0,0,1-2.31,1,7.92,7.92,0,0,1-2.15.31,6.88,6.88,0,0,1-3.32-.8,8.57,8.57,0,0,1-2.62-2.19q-.71.9-1.65,2c-.63.73-1.33,1.47-2.09,2.23s-1.56,1.49-2.4,2.21a21.43,21.43,0,0,1-2.58,1.91,14,14,0,0,1-2.66,1.32,7.45,7.45,0,0,1-2.66.5,3.81,3.81,0,0,1-2.5-.81,5.64,5.64,0,0,1-1.57-2.25,13.24,13.24,0,0,1-.8-3.37,36.79,36.79,0,0,1-.23-4.22q0-3.21.34-6.67t.67-6.85a2.79,2.79,0,0,0-1.78,1A23.77,23.77,0,0,0,832,818q-1.18,1.65-2.55,3.76c-.91,1.41-1.86,2.86-2.87,4.36s-2.06,3-3.15,4.4a33.74,33.74,0,0,1-3.37,3.83,17.4,17.4,0,0,1-3.56,2.71,7.44,7.44,0,0,1-3.69,1,2.11,2.11,0,0,1-1.46-.52,3.64,3.64,0,0,1-1-1.41,8.54,8.54,0,0,1-.51-2.13,22.22,22.22,0,0,1-.14-2.65,39.4,39.4,0,0,1,.29-4.72c.19-1.65.41-3.22.67-4.7s.51-2.8.75-3.94.43-1.95.53-2.4c-.7.47-1.52,1-2.44,1.57l-2.9,1.78-3.15,1.87-3.16,1.86-7.41,4.36a1.71,1.71,0,0,1-.5.23,1.84,1.84,0,0,1-.43.06c-.5,0-.74-.25-.74-.77a2,2,0,0,1,.37-1.05,3.67,3.67,0,0,1,1.3-1.15l19.22-11.31.76-.42c.46-.25,1-.53,1.7-.83s1.39-.57,2.13-.81a6.86,6.86,0,0,1,2.06-.37l.74.42a4.07,4.07,0,0,1,.69.55,3.22,3.22,0,0,1,.51.7,1.79,1.79,0,0,1,.21.86v.2a.66.66,0,0,1,0,.21l-3.44,19.13,4.08-4.77q1.38-1.62,2.81-3.57c1-1.3,1.94-2.61,3-3.93s2.07-2.58,3.15-3.79a28.24,28.24,0,0,1,3.38-3.22,17.63,17.63,0,0,1,3.68-2.26,10,10,0,0,1,4-.85,3.25,3.25,0,0,1,1.65.3.94.94,0,0,1,.47.83,3,3,0,0,1-.32,1.18c-.21.46-.44,1-.71,1.51a18.17,18.17,0,0,0-.76,1.85,8.33,8.33,0,0,0-.47,2.09c0,.43-.08,1-.14,1.73s-.11,1.5-.18,2.35-.14,1.74-.22,2.65-.12,2-.12,3.26c0,.89,0,1.7.06,2.44s.12,1.4.21,2a5.43,5.43,0,0,0,.37,1.3C841.57,834.1,841.76,834.26,842,834.26Zm12-15.65a1.86,1.86,0,0,0-.08.41c0,.14,0,.28-.05.43a11.61,11.61,0,0,0,1.41-2.2,3.39,3.39,0,0,0,.39-1.19c0-.22-.07-.32-.2-.32s-.41.23-.72.71A6.21,6.21,0,0,0,854,818.61Z"/><path class="cls-2" d="M869.31,827.14a.92.92,0,0,1-.42.13.52.52,0,0,1-.48-.28,1.31,1.31,0,0,1-.16-.69,2.37,2.37,0,0,1,.22-1,1.87,1.87,0,0,1,.84-.86l11.91-7a32.21,32.21,0,0,1,4.79-2.21,41.13,41.13,0,0,1,5.16-1.52,45.86,45.86,0,0,1,5.2-.87,46.48,46.48,0,0,1,4.85-.27,16.89,16.89,0,0,1,2.44.17,9.21,9.21,0,0,1,2,.48,3.72,3.72,0,0,1,1.28.77,1.41,1.41,0,0,1,.47,1,.69.69,0,0,1-.32.64,2.45,2.45,0,0,1-.76.28c-.28,0-.58.09-.89.12a1.67,1.67,0,0,0-.73.21c-.13.53-.33,1.22-.61,2.06s-.56,1.71-.85,2.6l-.78,2.37c-.23.71-.36,1.11-.4,1.21-.29.87-.66,2-1.12,3.4s-1,3.23-1.56,5.52c0,0,.26-.12.73-.37l1.8-1,2.52-1.43,2.92-1.66,7.67-4.58a1.66,1.66,0,0,1,.77-.26.66.66,0,0,1,.55.24,1,1,0,0,1,.19.61,2.13,2.13,0,0,1-.35,1,3,3,0,0,1-1.16,1l-17.1,10a5.39,5.39,0,0,1-1.21.54,3.46,3.46,0,0,1-1,.16,2.06,2.06,0,0,1-1.11-.28,2.17,2.17,0,0,1-.74-.79,3.61,3.61,0,0,1-.44-1.14,6.06,6.06,0,0,1-.15-1.37,8.92,8.92,0,0,1,.16-1.63,11.19,11.19,0,0,1,.43-1.56,14,14,0,0,1-2.2,3.17,14.25,14.25,0,0,1-2.66,2.25,11.28,11.28,0,0,1-2.91,1.36,10.4,10.4,0,0,1-2.92.44,8.31,8.31,0,0,1-2.7-.44,6.42,6.42,0,0,1-2.22-1.33,6,6,0,0,1-1.51-2.19,7.69,7.69,0,0,1-.56-3,14.33,14.33,0,0,1,.21-2.31,24.36,24.36,0,0,1,.54-2.56q.35-1.31.78-2.55c.29-.84.59-1.6.9-2.3Zm29.25-11.95a14,14,0,0,0-4.95.88,19.06,19.06,0,0,0-4.38,2.3,21.87,21.87,0,0,0-3.65,3.27,23.86,23.86,0,0,0-2.78,3.77,19.48,19.48,0,0,0-1.78,3.82,10.75,10.75,0,0,0-.63,3.38,4.5,4.5,0,0,0,.73,2.68,2.7,2.7,0,0,0,2.37,1,4.63,4.63,0,0,0,2.12-.6,13,13,0,0,0,2.32-1.59,24.11,24.11,0,0,0,2.33-2.23c.76-.83,1.47-1.68,2.11-2.53a25.71,25.71,0,0,0,1.7-2.49,12.9,12.9,0,0,0,1-2.13Z"/><path class="cls-3" d="M609.17,230.41c-3.83.83-6.48,4.05-8.53,7.07-6.17,9.12-11.1,19-19.13,27s-20.3,13.85-32.22,11.59c-4.25-.81-8.24-2.6-12.56-3.05-12.23-1.27-17.71,11.72-10,19,4.13,3.94,10.56,5.58,16.69,5.55,8,0,15.8-2.62,22.58-6.31,12-6.51,21.09-16.39,27.91-27.11s11.48-22.35,16.12-33.91A8.17,8.17,0,0,0,609.17,230.41Z"/><path class="cls-3" d="M695,232.64a6.36,6.36,0,0,0-1.23-1.88c-14.51-16.18-30-32.15-38.88-52-3.56-8-6.14-16.65-12.08-23s-16.82-9.38-23.32-3.56c-3.31,3-4.75,7.59-4.81,12s1.12,8.82,2.28,13.12c-7.1-7.74-13.14-16.44-20.68-23.74s-17.08-13.28-27.56-13.73c-9.2-.39-19.34,4.54-23,13.31-1.92,4.58-3.11,9.1-1.85,14.05a27.11,27.11,0,0,0,8.49,13.31c6.88,6,15.65,9.37,23.31,14.35-7.48-.57-15.08-1-22.43.54s-14.5,5.36-18.55,11.68a21.53,21.53,0,0,0,9.61,31.37c5,2.16,10.67,2.34,16.13,2.11,11.88-.51,24.11-3,33.66-10,7.11-5.29,12.25-12.78,18.78-18.77,11.5-10.55,29.3-15.94,43-8.52,5.26,2.85,9.47,7.28,13.29,11.89a135,135,0,0,1,9.09,12.3,7.24,7.24,0,0,1,1.47,3.46c.14,2.6-2.3,4.49-4.38,6.06-17.08,12.92-24.69,37.07-18.1,57.44,1.54,4.76,3.86,9.41,7.58,12.77s9,5.24,13.85,4c5.72-1.5,9.64-7,11.36-12.62,3.12-10.23.4-21.72-5.77-30.45-3.13-4.43-7.25-8.58-8-13.95a15,15,0,0,1,4.43-12.27,24.51,24.51,0,0,1,11.78-6.26c1-.24,2.11-.55,2.54-1.46A2,2,0,0,0,695,232.64Z"/><path class="cls-3" d="M425.54,298.47c9.3-4.3,32.73-4.34,36.39-21.19a10.2,10.2,0,0,0-4-10.68C444.52,257.4,426.37,285.18,425.54,298.47Z"/><path class="cls-3" d="M401,405.8c0-3-4.71-15.92-5-26.39-.7-29.53,5.56-61.77,17.9-87.39a385.93,385.93,0,0,1,25.08-43.57c7.39-11.29,18.19-21.07,17.27-41.38-.68-14.86-19.39-26.44-31.8-28.7-28.09-5.13-51,24.56-61,52.55-15.62,43.71-8.35,93.12,10.38,132.56C381.32,379.11,389.1,393.54,401,405.8Z"/><path class="cls-3" d="M527.65,490.11a4.41,4.41,0,0,1,1.25-1.52,4.7,4.7,0,0,1,3.72-.82,2.07,2.07,0,0,1,1.09.53,2.59,2.59,0,0,1,.52,1q2.24,6.49,4.63,12.93c1.89,5.06,3.82,10.11,5.7,15.17.8,2.13,1.58,4.26,2.36,6.4,3.8,10.51,6.69,21.59,5.83,32.68-.51,6.57-2.43,13.18-6.53,18.33S535.63,583.47,529,583a24.44,24.44,0,0,1-12.12-4.85c-4.88-3.48-9-8.21-10.91-13.86s-1.41-12.07-.18-18c2.27-11.06,6.83-21.44,11.48-31.66,2.38-5.2,4.79-10.39,7-15.67.79-1.91,1.56-3.84,2.28-5.78A27.08,27.08,0,0,1,527.65,490.11Z"/><path class="cls-3" d="M556.53,378c-2.78-4.9-5.29-10.22-5.17-15.84.1-4.59,2-9,2.73-13.48,1.23-7.38-1.09-17.38-7.82-21.68-7.58-4.83-17.09,2.13-20.4,9.36-3.08,6.7-2.43,14.73.65,21.42s8.41,12.16,14.39,16.48c4.59,3.32,10.51,6.11,15.74,4Z"/><path class="cls-3" d="M396,411l.21,0c-.13,0-4.8-4.46-5.21-4.82-6.9-6.06-11.36-14.5-16.23-22.19-5.42-8.56-10.67-17.22-15.48-26.09C349.82,340.4,342,322,338.58,303c-1.41-7.84-2.09-15.8-5.09-23.42-4-10.07-12.67-19.32-22.68-21.57-10.17-2.29-19.75,3.1-24.6,11.42s-5.62,19.08-4.61,29.6c2.64,27.43,17,55.19,37.89,75.51a136.71,136.71,0,0,0,36.56,25.38C367.57,405.41,384.14,412.51,396,411Z"/><path class="cls-3" d="M667.37,314.86c-3,2.71,2.35,14.47,2.85,18.56.92,7.58.34,15.38-2.67,22.45-2.65,6.25-7,11.72-9,18.21-1.77,5.78-1.39,12.46,2.11,17.4s10.42,7.56,16,5.14c6.31-2.75,8.77-10.34,9.69-17.15a84.62,84.62,0,0,0-2.48-34C681.35,336.82,675.76,319.33,667.37,314.86Z"/><path class="cls-3" d="M491.4,409.63a.52.52,0,0,0,0,.11c-.24,1.32,6.59,1.24,7.42,1.4a23.23,23.23,0,0,1,8.94,3.55,19.52,19.52,0,0,1,6.86,8.47c1.66,3.86,2,8.87,3.64,12.77,4.87,11.65,18.54,6.57,21.47-4.71,2.25-8.62-2.79-16.12-9.25-20.41-9.24-6.13-21-7.51-33.43-3.92C496.21,407.13,491.86,408.08,491.4,409.63Z"/><path class="cls-3" d="M587,458a.54.54,0,0,0,0-.11c-.71-1.24-8.84,3.28-10,3.69a45.59,45.59,0,0,1-13.41,2.9A32.86,32.86,0,0,1,549,461.89c-4.92-2.11-9.12-6-14-8.19-14.65-6.47-27.18,6.66-22.16,17.92,3.83,8.6,15.55,11.52,26.53,10.86a70.46,70.46,0,0,0,43.05-18.58C583.14,463.17,587.63,459.55,587,458Z"/><path class="cls-3" d="M553.46,394.17a2,2,0,0,0,.43-1.74,3.25,3.25,0,0,0-1.51-1.78c-5.29-3.7-11.67-5.48-17.38-8.48-9.11-4.77-16.37-12.53-21.93-21.22-5.19-8.11-9.17-17.26-16.28-23.71a36.66,36.66,0,0,0-19-8.83,25.46,25.46,0,0,0-13.8,1.21c-8.12,3.4-13.05,12.49-13.34,21.28-.64,19.68,15.46,34.52,32.23,41,9.11,3.52,18.85,5.24,28.59,6.47,13.13,1.67,26.89,2.41,39.37-2.45A6.23,6.23,0,0,0,553.46,394.17Z"/><path class="cls-3" d="M476.47,464a202.51,202.51,0,0,0,19.78,9.62,142.09,142.09,0,0,0,15.74,6c.43.13.68-.42.35-.76a34.5,34.5,0,0,1-8.13-14.61c-.7-2.61-1.57-5.87-4-6.55a5.82,5.82,0,0,0-2.72.12c-12.88,2.39-27.72-5.8-34.34-19-3.75-7.44-4.94-15.86-5.41-24-.7-12-.1-24.55-5.1-35.78a23,23,0,0,0-5.85-8.35c-2.89-2.44-7.53-4.32-10-1.24s-3.39,7.13-3.91,11.21c-3.26,26,7.94,55,28,72.45A95.93,95.93,0,0,0,476.47,464Z"/><path class="cls-3" d="M508.79,485.54a1.37,1.37,0,0,0-2.29,0,5,5,0,0,0-.92,3.41l-.13,5.77a28.72,28.72,0,0,1-.67,6.74c-2.08,7.87-10.63,12.6-17,16.63-5.52,3.5-11.51,6.15-17.16,9.43-4.55,2.64-9.23,5-11.7,9.9a16.58,16.58,0,0,0-1.2,11.64,10.61,10.61,0,0,0,3.93,6.12,12.19,12.19,0,0,0,5.2,1.76c22.85,3.26,38.7-20.94,43.71-40.11.3-1.14.57-2.29.81-3.44a50.53,50.53,0,0,0,.59-17.81C511.77,494.42,510.68,487.59,508.79,485.54Z"/><path class="cls-3" d="M623.57,356.46c1,6.58,2.16,13.13,2.37,19.81.32,10.44-2.11,21.81-9.72,29.18-1.69,1.63-3.83,3.1-6.09,2.94-2.08-.15-3.77-1.65-5.08-3.26-5.61-6.86-7-16.74-5-25.74a53.27,53.27,0,0,1,9.28-19.61c1.69-2.33,13.06-12.94,13-14.48C622.5,349.05,623,352.76,623.57,356.46Z"/><path class="cls-3" d="M552.75,487.05a1.36,1.36,0,0,1,2.28.05,5,5,0,0,1,.93,3.41l.12,5.77a28.73,28.73,0,0,0,.68,6.74c2.08,7.87,10.62,12.6,17,16.63,5.53,3.5,11.52,6.15,17.17,9.43,4.54,2.64,9.23,5,11.7,9.9a16.63,16.63,0,0,1,1.2,11.64,10.58,10.58,0,0,1-3.94,6.12,12.1,12.1,0,0,1-5.19,1.76c-22.85,3.26-38.7-20.94-43.72-40.11-.29-1.14-.56-2.29-.8-3.44a50.53,50.53,0,0,1-.59-17.81C549.76,495.93,550.85,489.1,552.75,487.05Z"/><path class="cls-3" d="M430.46,432.51a2.64,2.64,0,0,0,2.08-.46.37.37,0,0,0,.11-.33c-1.18-5.4-3.83-10.3-5.38-15.57-4.79-16.29-4.57-33.44,3-48.89,3.91-8,7.7-16.39,12.12-24.12,3.44-6,7.31-13.84,7.25-20.89-.08-9.45-3.41-20.16-13.9-19.74-5.5.22-10.78,2.94-14.95,6.84a46.8,46.8,0,0,0-9.81,14.21c-5.63,11.84-7.57,24.44-8,37.55-.57,17.05,2.37,36.34,10.56,51.15a61.09,61.09,0,0,0,5.19,7.77c2.6,3.41,5.4,6.63,8.19,9.86a8.91,8.91,0,0,0,2.6,2.31A3.39,3.39,0,0,0,430.46,432.51Z"/><path class="cls-3" d="M635.14,372.71l-2.72,18.72c-.84,5.81-1.69,11.69-1,17.53s3,11.71,7.44,15.49,11.41,4.95,16.36,1.79c4.78-3.07,6.68-9.35,6.09-15-.79-7.63-5-16-9.25-22.33-1.48-2.21-16.85-16.37-16.8-16.68Z"/><path class="cls-3" d="M647.54,276.81a104,104,0,0,0,6.38,33c3.49,9.49,9,18.49,8.77,29.18-.15,9.18-4,18.7-11.15,24-3.5,2.61-8,4.13-11.92,2.82-6-2-8.69-9.5-9.43-16.3-1.57-14.6,2.13-29.4,5.8-43.75l9.66-37.86c1.77,1.79,1.82,4.77,1.86,7.42Z"/><path class="cls-3" d="M630.68,252.36a4.55,4.55,0,0,1,.53.59c.9,1.17.68,2.81.42,4.26-2.42,13.19-5.8,26.33-5.71,39.74.06,8.6,1.55,17.24.29,25.75s-6.1,17.27-14.32,19.8c-2.35.72-5,.86-7.14-.39-2.27-1.35-3.42-4-4.07-6.55-2-8-.45-16.54,2.17-24.39,3.76-11.29,9.58-21.7,14.75-32.38A150.8,150.8,0,0,0,624.78,262C625.17,260.84,627.38,249.48,630.68,252.36Z"/><path class="cls-3" d="M617.72,238.29c1.22,18.24-10.61,34.63-16.23,52.09-2.12,6.61-3.38,13.53-6.16,19.88s-7.42,12.32-14,14.56c-3.56,1.21-8.49.65-9.86-2.88a8.35,8.35,0,0,1-.22-4.13c2.07-15.87,12.8-25.49,21.55-38a277.28,277.28,0,0,0,24.78-43.25C617.63,237.14,617.68,237.72,617.72,238.29Z"/><path class="cls-3" d="M601.7,409.83a.3.3,0,0,0-.51.22c2.45,16.4-11.58,23.56-10.88,38.74C591.85,481.12,636.73,442.09,601.7,409.83Z"/><path class="cls-3" d="M625.31,447.59c-.85.41-1.71.8-2.58,1.19l-3.43,1.54a1.65,1.65,0,0,1,.1-1.46,38.35,38.35,0,0,0,2.49-16.5c-.38-5.54-2.31-10.36-4.15-15.54a1.53,1.53,0,0,1,0-1.32,1.52,1.52,0,0,1,1.36-.46c5.43.14,10.57,2.21,13.77,6.7a17.08,17.08,0,0,1,3.15,8.34,17.38,17.38,0,0,1-6.89,15.3A24.57,24.57,0,0,1,625.31,447.59Z"/><circle class="cls-3" cx="641.32" cy="221.21" r="9.5"/><path class="cls-3" d="M471.43,393.45l.12,0c1.53-.25,1.16,7.44,1.32,8.38a25.53,25.53,0,0,0,3.73,10.12,21.57,21.57,0,0,0,9.5,7.81c4.39,1.91,10.14,2.35,14.58,4.23,13.23,5.61,6.82,21-6.3,24.16-10,2.44-18.47-3.31-23.15-10.63-6.7-10.48-7.83-23.79-3.19-37.73C468.35,398.84,469.61,394,471.43,393.45Z"/><path class="cls-3" d="M587.64,393.41C577.1,404.36,543.57,417.7,549.23,442a15.72,15.72,0,0,0,12.68,11.78C587,458.29,595.05,411.39,587.64,393.41Z"/><path class="cls-3" d="M567.07,393.48c1.65-5.38,3-11.1,1.69-16.51-1-4.42-3.72-8.2-5.38-12.41-2.7-6.84-2.53-17.05,3-22.76,6.25-6.42,16.78-1.9,21.43,4.33,4.32,5.77,5.36,13.68,3.78,20.87s-5.55,13.7-10.37,19.25c-3.71,4.27-8.8,8.34-14.25,7.47C567,393.64,567.05,393.56,567.07,393.48Z"/><path class="cls-3" d="M467.85,313.06a51,51,0,0,0-8.37,6.39c2.6-2.46,25.72,2.32,29,3.17,9.49,2.44,16.09,6.56,23.67,10.61a6.52,6.52,0,0,0,3.07,1,4.38,4.38,0,0,0,4.3-3.5,17.1,17.1,0,0,0-4.35-16.47c-4.65-4.81-13.12-8.3-22.51-8.4A46.85,46.85,0,0,0,467.85,313.06Z"/><path class="cls-3" d="M890.83,230.38c3.83.84,6.49,4.05,8.53,7.07,6.18,9.13,11.11,19,19.14,27S938.8,278.3,950.72,276c4.26-.81,8.24-2.6,12.56-3.05,12.23-1.27,17.71,11.72,10,19-4.13,3.94-10.55,5.58-16.69,5.55-8,0-15.8-2.62-22.58-6.31-12-6.51-21.09-16.39-27.91-27.11S894.63,241.81,890,230.24Z"/><path class="cls-3" d="M805,232.62a6.24,6.24,0,0,1,1.23-1.88c14.52-16.19,30-32.16,38.88-52,3.57-8,6.15-16.65,12.09-23s16.82-9.38,23.31-3.56c3.32,3,4.76,7.59,4.81,12S884.17,173,883,177.3c7.1-7.74,13.13-16.44,20.67-23.74s17.08-13.28,27.57-13.73c9.2-.39,19.34,4.54,23,13.31,1.93,4.58,3.11,9.1,1.85,14.05a27.07,27.07,0,0,1-8.49,13.31c-6.88,6-15.65,9.37-23.31,14.35,7.48-.57,15.08-1,22.43.54s14.5,5.37,18.55,11.69a21.52,21.52,0,0,1-9.61,31.36c-5,2.17-10.67,2.34-16.13,2.11-11.88-.5-24.12-3-33.66-10-7.12-5.28-12.25-12.78-18.79-18.77-11.5-10.54-29.29-15.94-43-8.51-5.26,2.84-9.47,7.27-13.29,11.88a139.83,139.83,0,0,0-9.09,12.3,7.27,7.27,0,0,0-1.47,3.47c-.14,2.6,2.3,4.49,4.38,6.06,17.08,12.91,24.69,37.06,18.1,57.44-1.54,4.76-3.86,9.41-7.57,12.77s-9,5.24-13.86,4c-5.72-1.5-9.64-7-11.36-12.62-3.12-10.23-.4-21.72,5.77-30.46,3.14-4.42,7.25-8.58,8-13.94a15,15,0,0,0-4.43-12.27,24.52,24.52,0,0,0-11.78-6.27c-1-.24-2.11-.54-2.54-1.46A2,2,0,0,1,805,232.62Z"/><path class="cls-3" d="M1074.48,298.45c-9.31-4.3-32.73-4.34-36.4-21.19a10.22,10.22,0,0,1,4-10.68C1055.5,257.38,1073.65,285.16,1074.48,298.45Z"/><path class="cls-3" d="M1099,405.79c0-3,4.71-15.92,5-26.4.7-29.53-5.56-61.77-17.9-87.39A385.06,385.06,0,0,0,1061,248.43c-7.39-11.3-18.19-21.08-17.27-41.39.67-14.86,19.39-26.44,31.8-28.7,28.09-5.12,51,24.56,61,52.55,15.62,43.71,8.35,93.14-10.38,132.57C1118.7,379.09,1110.92,393.53,1099,405.79Z"/><path class="cls-3" d="M972.36,490.1a4.38,4.38,0,0,0-1.25-1.51,4.66,4.66,0,0,0-3.72-.82,2.06,2.06,0,0,0-1.09.52,2.56,2.56,0,0,0-.52,1q-2.24,6.49-4.63,12.92c-1.89,5.07-3.82,10.11-5.7,15.18-.8,2.13-1.58,4.26-2.36,6.39-3.8,10.51-6.7,21.6-5.83,32.69.51,6.57,2.43,13.18,6.53,18.33S964.38,583.47,971,583a24.44,24.44,0,0,0,12.12-4.85c4.88-3.48,9-8.21,10.91-13.86s1.41-12.07.19-18c-2.28-11-6.84-21.44-11.49-31.65-2.37-5.21-4.79-10.39-7-15.67-.79-1.92-1.55-3.84-2.28-5.78A25.42,25.42,0,0,0,972.36,490.1Z"/><path class="cls-3" d="M943.48,378c2.78-4.9,5.29-10.21,5.17-15.83-.1-4.6-2-9-2.73-13.49-1.23-7.38,1.09-17.38,7.82-21.67,7.58-4.84,17.09,2.12,20.41,9.35,3.07,6.7,2.43,14.73-.66,21.43s-8.41,12.16-14.39,16.48c-4.58,3.31-10.51,6.11-15.74,3.95Z"/><path class="cls-3" d="M1104,411l-.21,0c.13,0,4.8-4.46,5.21-4.81,6.9-6.06,11.37-14.5,16.24-22.2,5.41-8.56,10.66-17.22,15.48-26.09,9.48-17.48,17.3-35.93,20.71-54.86,1.42-7.84,2.1-15.81,5.1-23.42,4-10.08,12.66-19.32,22.67-21.58,10.18-2.28,19.76,3.1,24.61,11.43s5.62,19.08,4.61,29.6c-2.64,27.43-17,55.2-37.89,75.51A136.53,136.53,0,0,1,1144,399.92C1132.45,405.39,1115.88,412.5,1104,411Z"/><path class="cls-3" d="M832.63,314.84c3,2.71-2.35,14.47-2.85,18.57-.92,7.57-.34,15.37,2.67,22.45,2.65,6.24,7,11.71,9,18.2,1.78,5.79,1.39,12.46-2.1,17.41s-10.42,7.55-16,5.14c-6.31-2.75-8.77-10.34-9.69-17.16a84.62,84.62,0,0,1,2.48-33.95C818.65,336.8,824.25,319.31,832.63,314.84Z"/><path class="cls-3" d="M1008.61,409.62l0,.11c.23,1.31-6.59,1.23-7.42,1.39a23.38,23.38,0,0,0-9,3.56,19.52,19.52,0,0,0-6.86,8.47c-1.66,3.86-2,8.87-3.64,12.77-4.87,11.65-18.54,6.57-21.47-4.71-2.25-8.62,2.79-16.13,9.25-20.41,9.24-6.13,21-7.52,33.44-3.92C1003.81,407.11,1008.15,408.06,1008.61,409.62Z"/><path class="cls-3" d="M913,458a.54.54,0,0,1,0-.11c.71-1.24,8.83,3.28,10,3.69a45.52,45.52,0,0,0,13.41,2.9,33,33,0,0,0,14.64-2.54c4.92-2.11,9.12-6,14-8.2,14.65-6.47,27.18,6.66,22.17,17.92-3.84,8.6-15.56,11.53-26.54,10.86a70.44,70.44,0,0,1-43.06-18.57C916.87,463.16,912.38,459.54,913,458Z"/><path class="cls-3" d="M946.55,394.16a2,2,0,0,1-.43-1.75,3.32,3.32,0,0,1,1.51-1.78c5.29-3.69,11.67-5.48,17.38-8.47,9.11-4.77,16.37-12.54,21.93-21.22,5.2-8.11,9.18-17.27,16.29-23.72a36.78,36.78,0,0,1,19-8.83A25.48,25.48,0,0,1,1036,329.6c8.11,3.4,13,12.49,13.33,21.28.65,19.68-15.45,34.53-32.22,41-9.12,3.53-18.86,5.25-28.6,6.48-13.12,1.66-26.89,2.41-39.37-2.46A6.21,6.21,0,0,1,946.55,394.16Z"/><path class="cls-3" d="M1023.55,464a201.5,201.5,0,0,1-19.79,9.62,141.33,141.33,0,0,1-15.74,6c-.42.13-.67-.42-.35-.76a34.56,34.56,0,0,0,8.14-14.61c.7-2.61,1.57-5.87,4-6.55a5.82,5.82,0,0,1,2.72.12c12.89,2.39,27.72-5.8,34.35-19,3.75-7.45,4.94-15.86,5.41-24,.7-12,.1-24.56,5.09-35.78a23.19,23.19,0,0,1,5.85-8.35c2.9-2.44,7.54-4.33,10-1.24s3.39,7.13,3.9,11.21c3.27,26-7.93,55-28,72.45A96.8,96.8,0,0,1,1023.55,464Z"/><path class="cls-3" d="M991.22,485.53a1.38,1.38,0,0,1,2.29.05,5,5,0,0,1,.93,3.42l.12,5.76a28.62,28.62,0,0,0,.68,6.74c2.08,7.87,10.62,12.61,17,16.64,5.52,3.49,11.52,6.15,17.17,9.43,4.54,2.63,9.23,5,11.7,9.89a16.66,16.66,0,0,1,1.2,11.65,10.61,10.61,0,0,1-3.94,6.11,12,12,0,0,1-5.19,1.77c-22.85,3.25-38.71-21-43.72-40.12-.3-1.14-.57-2.28-.81-3.43a50.59,50.59,0,0,1-.59-17.82C988.24,494.41,989.33,487.59,991.22,485.53Z"/><path class="cls-3" d="M876.43,356.44c-1,6.58-2.15,13.14-2.36,19.82-.33,10.44,2.11,21.81,9.72,29.17,1.69,1.64,3.82,3.11,6.08,2.95,2.09-.15,3.77-1.66,5.09-3.26,5.61-6.87,7-16.75,5-25.74a53.52,53.52,0,0,0-9.28-19.61c-1.69-2.34-13.06-12.95-13-14.48C877.5,349,877,352.74,876.43,356.44Z"/><path class="cls-3" d="M947.26,487a1.37,1.37,0,0,0-2.28,0,5,5,0,0,0-.93,3.42l-.12,5.76a28.62,28.62,0,0,1-.68,6.74c-2.08,7.87-10.62,12.61-17,16.64-5.52,3.49-11.51,6.15-17.16,9.43-4.55,2.63-9.23,5-11.71,9.89a16.66,16.66,0,0,0-1.19,11.65,10.54,10.54,0,0,0,3.93,6.11,12,12,0,0,0,5.19,1.77c22.86,3.25,38.71-21,43.73-40.12.29-1.14.56-2.28.8-3.43a50.59,50.59,0,0,0,.59-17.82C950.25,495.92,949.16,489.1,947.26,487Z"/><path class="cls-3" d="M1069.56,432.5a2.64,2.64,0,0,1-2.08-.46.34.34,0,0,1-.11-.33c1.18-5.4,3.83-10.3,5.38-15.57,4.79-16.29,4.57-33.45-3-48.9-3.92-8-7.7-16.39-12.13-24.11-3.43-6-7.31-13.85-7.24-20.9.08-9.45,3.41-20.16,13.89-19.74,5.51.22,10.79,2.94,15,6.84a46.65,46.65,0,0,1,9.82,14.21c5.63,11.85,7.57,24.45,8,37.55.57,17.05-2.37,36.34-10.56,51.16a61.09,61.09,0,0,1-5.19,7.77c-2.61,3.4-5.4,6.63-8.2,9.86a8.88,8.88,0,0,1-2.59,2.31A3.39,3.39,0,0,1,1069.56,432.5Z"/><path class="cls-3" d="M864.87,372.69l2.71,18.72c.85,5.81,1.69,11.7,1,17.53s-3,11.72-7.44,15.5-11.41,4.95-16.35,1.79-6.69-9.35-6.1-15c.8-7.63,5-16,9.26-22.34,1.47-2.2,16.84-16.37,16.8-16.68Z"/><path class="cls-3" d="M852.46,276.78a103.77,103.77,0,0,1-6.37,33c-3.5,9.49-9,18.49-8.78,29.18.15,9.19,4,18.7,11.15,24,3.5,2.6,8,4.13,11.92,2.82,6-2,8.7-9.5,9.43-16.31,1.58-14.6-2.13-29.4-5.79-43.75l-9.67-37.86c-1.77,1.78-1.82,4.76-1.86,7.42C852.49,275.77,852.48,276.28,852.46,276.78Z"/><path class="cls-3" d="M869.33,252.34a3.84,3.84,0,0,0-.54.58c-.89,1.18-.68,2.82-.41,4.27,2.42,13.18,5.8,26.33,5.71,39.74-.06,8.6-1.55,17.25-.3,25.75s6.11,17.28,14.33,19.81a9,9,0,0,0,7.14-.4c2.27-1.34,3.42-4,4.07-6.55,2-8,.44-16.54-2.17-24.39-3.77-11.29-9.59-21.7-14.76-32.38A150.73,150.73,0,0,1,875.23,262C874.84,260.82,872.62,249.46,869.33,252.34Z"/><path class="cls-3" d="M882.29,238.27c-1.23,18.24,10.6,34.62,16.22,52.09,2.13,6.61,3.39,13.53,6.17,19.89s7.42,12.31,14,14.55c3.56,1.21,8.49.65,9.86-2.87a8.37,8.37,0,0,0,.22-4.13c-2.07-15.88-12.8-25.5-21.55-38a278.6,278.6,0,0,1-24.79-43.25C882.38,237.11,882.32,237.69,882.29,238.27Z"/><path class="cls-3" d="M898.3,409.81a.31.31,0,0,1,.52.22c-2.46,16.41,11.58,23.57,10.88,38.75C908.16,481.12,863.27,442.08,898.3,409.81Z"/><path class="cls-3" d="M874.69,447.58c.85.41,1.72.8,2.58,1.19l3.44,1.54a1.68,1.68,0,0,0-.1-1.46,38,38,0,0,1-2.49-16.5c.37-5.54,2.31-10.36,4.14-15.54a1.57,1.57,0,0,0,0-1.32,1.55,1.55,0,0,0-1.37-.46c-5.42.14-10.56,2.21-13.77,6.7a17.08,17.08,0,0,0-3.15,8.34,17.39,17.39,0,0,0,6.9,15.3A25,25,0,0,0,874.69,447.58Z"/><circle class="cls-3" cx="858.68" cy="221.18" r="9.5"/><path class="cls-3" d="M1028.58,393.43l-.12,0c-1.53-.25-1.16,7.45-1.31,8.39a25.29,25.29,0,0,1-3.74,10.11,21.53,21.53,0,0,1-9.5,7.82c-4.38,1.91-10.14,2.35-14.57,4.23-13.23,5.61-6.83,21,6.29,24.16,10,2.44,18.48-3.31,23.16-10.63,6.7-10.49,7.82-23.79,3.19-37.73C1031.67,398.82,1030.4,393.94,1028.58,393.43Z"/><path class="cls-3" d="M912.37,393.4c10.54,10.94,44.07,24.29,38.41,48.58a15.72,15.72,0,0,1-12.68,11.78C913,458.28,905,411.38,912.37,393.4Z"/><path class="cls-3" d="M932.93,393.46c-1.64-5.38-3-11.1-1.68-16.5,1-4.42,3.72-8.2,5.38-12.41,2.7-6.85,2.53-17.06-3-22.76-6.25-6.43-16.78-1.9-21.44,4.32-4.31,5.77-5.35,13.68-3.77,20.87s5.54,13.7,10.37,19.26c3.71,4.27,8.8,8.34,14.25,7.47C933,393.62,933,393.54,932.93,393.46Z"/><path class="cls-3" d="M1032.16,313a51.11,51.11,0,0,1,8.38,6.39c-2.6-2.45-25.72,2.32-29,3.17-9.49,2.44-16.1,6.56-23.67,10.61a6.6,6.6,0,0,1-3.08,1,4.38,4.38,0,0,1-4.3-3.5,17.09,17.09,0,0,1,4.36-16.47c4.64-4.81,13.11-8.3,22.51-8.4A46.81,46.81,0,0,1,1032.16,313Z"/><path class="cls-3" d="M805.19,475.06a37.35,37.35,0,0,0-52.81,0L750,477.43l-2.38-2.37a37.34,37.34,0,0,0-52.8,52.8l2.37,2.38L750,583l52.8-52.8,2.38-2.38A37.34,37.34,0,0,0,805.19,475.06Z"/></svg>