<?xml version="1.0" encoding="UTF-8"?><svg id="a" xmlns="http://www.w3.org/2000/svg" xmlns:xlink="http://www.w3.org/1999/xlink" viewBox="0 0 2000 1000"><defs><style>.h{fill:none;}.i{fill:#ff192f;}.j{fill:#fff;}.k{fill:#691d24;}.l{fill:#477050;}.m{clip-path:url(#c);}.n{clip-path:url(#b);}.o{clip-path:url(#f);}.p{clip-path:url(#e);}.q{clip-path:url(#d);}.r{clip-path:url(#g);}</style><clipPath id="b"><path class="h" d="M361.73,620.07h-32.97v-177.5h32.97v177.5Zm94.33-76.07h-96.86v-28.15h96.86v28.15Zm-2.54-101.43h32.71v177.5h-32.71v-177.5Z"/></clipPath><clipPath id="c"><path class="h" d="M718.34,623.07v-180.5h27.59l113.2,139.25h-13.67v-139.25h33.01v180.5h-27.59l-112.95-139.25h13.67v139.25h-33.27Z"/></clipPath><clipPath id="d"><path class="h" d="M1005.63,623.07c-13.7,0-26.27-2.22-37.71-6.64-11.45-4.42-21.43-10.73-29.95-18.92-8.52-8.18-15.12-17.7-19.8-28.56-4.68-10.86-7.01-22.88-7.01-36.08s2.33-25.22,7.01-36.08c4.68-10.85,11.31-20.38,19.92-28.56,8.6-8.18,18.62-14.49,30.07-18.92,11.44-4.42,24.18-6.64,38.21-6.64s28.02,2.42,39.96,7.27c11.94,4.84,22.01,11.94,30.19,21.3l-20.55,20.04c-6.85-6.85-14.24-11.9-22.17-15.16-7.93-3.26-16.66-4.88-26.18-4.88s-17.92,1.5-25.68,4.51-14.5,7.26-20.17,12.78c-5.68,5.51-10.11,12.03-13.28,19.54-3.18,7.52-4.76,15.79-4.76,24.81s1.59,17.08,4.76,24.68c3.17,7.6,7.6,14.16,13.28,19.67,5.68,5.51,12.36,9.77,20.05,12.78,7.68,3.01,16.2,4.51,25.56,4.51,8.68,0,17.07-1.38,25.18-4.13,8.1-2.76,15.83-7.39,23.18-13.91l18.29,24.3c-9.02,7.35-19.55,12.9-31.57,16.66-12.03,3.76-24.31,5.64-36.84,5.64Zm37.83-26.56v-65.4h30.57v69.66l-30.57-4.26Z"/></clipPath><clipPath id="e"><path class="h" d="M1307.88,623.56v-179.97h74.04c15.94,0,29.61,2.53,41.01,7.58,11.39,5.06,20.18,12.39,26.35,21.98,6.17,9.6,9.25,21.08,9.25,34.45s-3.08,24.51-9.25,33.94c-6.17,9.43-14.96,16.71-26.35,21.85-11.4,5.14-25.07,7.71-41.01,7.71h-55.28l14.66-14.91v67.36h-33.42Zm33.42-63.76l-14.66-16.2h53.74c14.74,0,25.84-3.17,33.3-9.51,7.45-6.34,11.18-15.17,11.18-26.48s-3.73-20.1-11.18-26.35c-7.46-6.26-18.56-9.39-33.3-9.39h-53.74l14.66-16.46v104.38Zm84.33,63.76l-45.5-65.3h35.74l45.76,65.3h-35.99Z"/></clipPath><clipPath id="f"><path class="h" d="M1567.14,623.07v-71.37l7.73,20.36-78.58-129.34h35.56l63.38,104.35h-20.1l63.12-104.35h32.98l-78.33,129.34,7.47-20.36v71.37h-33.24Z"/></clipPath><clipPath id="g"><path class="h" d="M602.82,623.07c-24.22,0-43.23-6.86-57.03-20.57-13.81-13.72-20.7-33.62-20.7-59.7v-100.09h33.02v99.07c0,18.29,3.94,31.59,11.81,39.88,7.87,8.3,19.01,12.45,33.4,12.45s25.49-4.15,33.28-12.45c7.79-8.3,11.69-21.59,11.69-39.88v-99.07h32.51v100.09c0,26.08-6.9,45.98-20.7,59.7-13.8,13.72-32.89,20.57-57.28,20.57Z"/></clipPath></defs><rect class="k" y="0" width="2000" height="1000"/><g><path class="j" d="M359.77,248.76c.29,14.28-.02,28.02-.94,41.23-.92,13.2-2.04,25-3.35,35.38-1.46,12.08-3.21,23.38-5.25,33.92-1.71,8.35-3.07,15.59-4.07,21.72-1,6.13-1.73,11.32-2.17,15.58s-.61,7.73-.52,10.43c.09,2.7,.39,4.83,.9,6.4,.53,1.65,1.3,2.8,2.29,3.48,1,.67,2.06,1.09,3.2,1.24,1.13,.15,2.21,.13,3.22-.07,1.02-.2,1.84-.4,2.47-.6,2.74-.89,5.77-2.71,9.07-5.47,3.31-2.76,6.72-6.25,10.25-10.46,3.53-4.22,7.08-9.09,10.66-14.62,3.58-5.53,6.96-11.54,10.14-18.03,3.18-6.49,6.09-13.34,8.74-20.56,2.64-7.22,4.8-14.66,6.48-22.3,2.63-12.46,6.18-38.92,3.38-80.21-.12-1.76,2.36,2.68,3.29,4.33,.92,1.65,1.67,3.34,2.22,5.06,1.19,3.68,2.04,8.09,2.53,13.21s.63,10.77,.42,16.95c-.21,6.17-.77,12.81-1.68,19.9-.91,7.09-2.2,14.46-3.88,22.11-1.68,7.65-3.86,15.17-6.53,22.57-2.67,7.4-5.66,14.5-8.96,21.28-3.3,6.79-6.83,13.15-10.58,19.08-3.75,5.94-7.55,11.19-11.39,15.77-3.84,4.58-7.67,8.42-11.47,11.51-3.81,3.09-7.35,5.18-10.64,6.24-6.19,2.01-11.51,2.17-15.95,.49-4.44-1.68-7.66-5.62-9.67-11.81-1.09-3.37-1.73-6.89-1.92-10.55-.19-3.66-.04-7.74,.46-12.23,.49-4.49,1.28-9.49,2.36-14.99,1.08-5.5,2.35-11.74,3.81-18.71-4.46,12.96-9.64,25.79-15.53,38.48-5.89,12.69-12.73,24.54-20.51,35.55-3.51,4.95-6.81,9.19-9.9,12.75-3.09,3.56-6,6.56-8.71,9s-5.28,4.37-7.67,5.79c-2.4,1.43-4.65,2.48-6.77,3.17-3.06,.99-5.84,1.41-8.36,1.28-2.51-.14-4.73-.7-6.65-1.68-1.92-.98-3.54-2.36-4.85-4.15-1.31-1.78-2.35-3.85-3.11-6.2-1.27-3.92-1.89-7.83-1.85-11.74s.59-8.07,1.67-12.49c1.27-4.91,2.88-10.42,4.85-16.51,1.97-6.09,4.02-12.47,6.14-19.14,2.13-6.67,4.18-13.44,6.15-20.31,1.97-6.87,3.57-13.58,4.78-20.13,1.21-6.54,1.89-12.74,2.04-18.59,.14-5.85-.54-11.08-2.03-15.71-2.36-7.29-5.95-13.49-10.76-18.6-4.82-5.11-10.59-8.96-17.31-11.54-6.73-2.58-14.25-3.83-22.58-3.73-8.33,.1-17.19,1.67-26.6,4.72-12.93,4.19-24.2,9.92-33.8,17.18-9.6,7.27-17.23,15.47-22.88,24.62-5.65,9.15-9.2,18.92-10.65,29.3-1.44,10.38-.49,20.75,2.86,31.1,2.06,6.35,4.93,11.81,8.61,16.37,3.69,4.57,7.96,8.14,12.83,10.72,4.86,2.58,10.24,4.07,16.12,4.46,5.88,.39,12.04-.46,18.47-2.54,7.45-2.41,13.92-5.96,19.42-10.64,5.5-4.68,10.12-10.14,13.86-16.38,3.74-6.23,6.65-13.09,8.74-20.56,2.08-7.47,3.39-15.19,3.93-23.16l5.9,.17c-1.49,21.35-6.93,38.9-16.34,52.64-9.41,13.74-22.73,23.41-39.98,28.99-7.29,2.36-14.31,3.27-21.07,2.73-6.76-.54-12.97-2.34-18.64-5.4-5.67-3.06-10.65-7.29-14.96-12.69-4.31-5.41-7.65-11.79-10.04-19.16-3.22-9.95-4.47-19.42-3.74-28.41,.73-8.98,2.84-17.36,6.35-25.12,3.51-7.76,8.04-14.88,13.61-21.36,5.57-6.48,11.56-12.23,17.99-17.26,6.43-5.03,12.93-9.28,19.51-12.75,6.58-3.47,12.66-6.11,18.22-7.91,10.5-3.4,20.64-5.27,30.4-5.62,9.76-.35,18.73,.95,26.92,3.88,8.18,2.94,15.32,7.53,21.42,13.78,6.1,6.25,10.73,14.28,13.9,24.08,2.31,7.13,3.52,15.47,3.62,25.01,.1,9.54-1.57,20.36-5.01,32.48-3.14,11.15-6.13,20.91-8.97,29.28-2.83,8.37-5.24,15.58-7.22,21.63-1.98,6.05-3.42,11.05-4.31,14.97-.89,3.93-.99,6.99-.27,9.18,.74,2.27,2.16,3.85,4.26,4.73,2.1,.88,4.6,.85,7.51-.09,4.15-1.35,8.73-4.39,13.74-9.13,5-4.74,10.3-11.05,15.89-18.92,5.54-7.77,10.57-15.98,15.08-24.63,4.52-8.65,8.6-17.44,12.24-26.38,3.65-8.93,6.91-17.89,9.81-26.88,2.89-8.99,5.43-17.72,7.63-26.18,2.2-8.46,4.08-16.56,5.64-24.3,1.56-7.74,2.86-14.83,3.9-21.27,1.03-6.44,1.84-12.11,2.41-17.02,.58-4.91,.98-8.74,1.21-11.5l6.52,.49Z"/><path class="j" d="M620.46,214.08c1.79-1.76,3.38-3.7,4.77-5.8,1.39-2.1,2.23-3.97,2.53-5.61-1.83,.18-3.3-.16-4.41-1.01-1.1-.85-1.86-1.9-2.25-3.13-.54-1.66-.39-3.23,.43-4.71,.82-1.48,2.01-2.47,3.56-2.97,1.66-.54,3.23-.39,4.71,.43,1.48,.82,2.47,2.01,2.97,3.56,.55,1.71,.65,3.53,.3,5.45-.35,1.92-1.02,3.83-2,5.75-.98,1.91-2.19,3.74-3.64,5.48-1.45,1.74-2.99,3.29-4.62,4.64l-2.36-2.07Z"/><path class="j" d="M692.03,259.83c-2.89,11.41-6.27,21.15-10.16,29.21-3.89,8.06-8.35,14.72-13.4,19.99,1.81-4.57,2.79-9.69,2.95-15.37,.15-5.68-.85-11.85-3.01-18.51-1.47-4.55-3.31-8.82-5.52-12.83-2.21-4.01-4.37-7.68-6.49-11.02-2.12-3.34-4.05-6.29-5.79-8.84-1.74-2.56-2.87-4.66-3.41-6.3-.63-1.96-.97-3.71-.99-5.27-.03-1.55,.08-2.95,.33-4.2,.25-1.25,.55-2.39,.91-3.41,.36-1.03,.62-1.96,.79-2.79l-5.96-2.36c-2.28,7.15-4.38,14.43-6.3,21.85-1.93,7.42-3.62,14.16-5.08,20.22-1.46,6.06-2.6,11.04-3.41,14.94-.69,3.28-1.1,5.2-1.24,5.8h0c-.62,2.62-1.39,4.93-2.31,6.92-.92,1.99-1.99,3.7-3.21,5.13-1.22,1.44-2.67,2.66-4.33,3.68-1.66,1.01-3.59,1.88-5.79,2.59-.39,.13-.75,.24-1.06,.34-.31,.1-.64,.16-.98,.19,.7-2.65,1.13-5.54,1.29-8.67,.16-3.12,.14-6.24-.04-9.34-.18-3.1-.53-6.13-1.06-9.08-.52-2.95-1.16-5.6-1.93-7.95-1.02-3.13-2.28-5.97-3.8-8.51-1.52-2.54-3.18-4.62-5.01-6.24s-3.78-2.72-5.87-3.29c-2.09-.58-4.24-.51-6.43,.2-2.43,.79-4.45,2.18-6.05,4.17-1.61,1.99-2.8,4.39-3.58,7.2-.78,2.81-1.11,5.88-.98,9.22,.13,3.34,.75,6.73,1.87,10.18,1.12,3.45,2.5,6.72,4.16,9.83,1.65,3.1,3.53,5.89,5.63,8.37,2.1,2.48,4.38,4.56,6.83,6.23,2.45,1.68,5.02,2.81,7.73,3.41-1.45,4.63-3.12,9.09-5.02,13.38-1.9,4.3-4.06,8.18-6.49,11.65-2.43,3.47-5.1,6.46-8.01,8.96-2.91,2.5-6.1,4.31-9.54,5.43-4.47,1.45-8.24,1.17-11.31-.82-3.07-1.99-5.41-5.46-7-10.4-1.78-5.49-2.49-11.51-2.15-18.08,.34-6.56,1.38-13.11,3.12-19.65,1.74-6.54,4-12.77,6.8-18.7,2.8-5.93,5.79-11.06,8.98-15.38l-5.36-3.72c-3.07,2.81-5.99,6.1-8.76,9.85-2.77,3.75-5.32,7.78-7.65,12.09-2.33,4.31-4.34,8.79-6.04,13.45-1.7,4.66-2.97,9.34-3.83,14.04-.56,3.06-.9,6.07-1.07,9.04-1.01,4.24-2.11,8.58-3.32,13.03-1.6,5.89-3.35,11.33-5.24,16.31-1.89,4.99-3.95,9.25-6.19,12.79-2.23,3.54-4.6,5.71-7.11,6.52-2.12,.69-3.83,.4-5.15-.86s-2.27-2.79-2.85-4.6c-.94-2.9-1.36-6.21-1.26-9.92,.1-3.71,.46-7.62,1.08-11.72,.62-4.1,1.35-8.32,2.2-12.66,.84-4.34,1.58-8.57,2.2-12.66,.62-4.1,.99-7.97,1.12-11.6,.12-3.63-.27-6.86-1.19-9.68-.53-1.65-1.28-3.22-2.25-4.73-.96-1.51-2.2-2.78-3.7-3.8-1.5-1.03-3.31-1.68-5.44-1.94-2.12-.27-4.59,.06-7.41,.97-4.16,1.35-8.14,3.69-11.94,7.05-3.81,3.36-7.43,7.49-10.85,12.41-3.43,4.92-6.61,10.48-9.54,16.67-2.93,6.19-5.56,12.78-7.89,19.77l4.18-36.04c3.15-5.78,6.38-12,9.68-18.66,3.3-6.66,6.49-13.47,9.56-20.44,3.07-6.97,5.89-13.9,8.46-20.8,2.57-6.9,4.67-13.46,6.29-19.7,1.62-6.24,2.65-12.01,3.1-17.31,.45-5.3,.08-9.79-1.12-13.47-1.14-3.53-2.98-5.94-5.53-7.24-2.54-1.3-5.54-1.39-8.99-.27-3.06,.99-5.83,2.78-8.33,5.36-2.5,2.58-4.73,5.67-6.68,9.24-1.96,3.58-3.71,7.53-5.26,11.84-1.55,4.31-2.87,8.72-3.96,13.24-1.09,4.51-2.03,8.97-2.81,13.38-.78,4.41-1.4,8.46-1.84,12.16-3.02,23.84-5.7,47.86-8.04,72.04-2.34,24.19-4.98,48.75-7.9,73.69l12.07,.77,6.98-39.42c2.35-7.17,5.02-14.46,7.98-21.88,2.97-7.41,6.2-14.28,9.69-20.61,3.49-6.33,7.25-11.77,11.28-16.32,4.03-4.55,8.27-7.55,12.74-9,3.13-1.02,5.22,.08,6.26,3.3,.58,1.8,.65,4.23,.21,7.27-.44,3.05-1.1,6.48-1.98,10.32-.88,3.84-1.87,7.94-2.96,12.33-1.09,4.38-1.97,8.82-2.64,13.32-.66,4.5-1,8.94-1.01,13.32-.01,4.38,.61,8.49,1.85,12.33,1.07,3.29,2.46,5.85,4.17,7.68,1.72,1.83,3.6,3.1,5.65,3.82,2.05,.72,4.17,.99,6.36,.8,2.19-.19,4.3-.61,6.34-1.27,3.13-1.02,5.93-2.94,8.39-5.77,2.46-2.83,4.62-6.13,6.48-9.89,1.86-3.76,3.46-7.77,4.81-12.02,1.16-3.64,2.16-7.14,3.02-10.52,.04,.14,.08,.28,.13,.42,1.27,3.92,3,7.26,5.19,10.01,2.19,2.75,4.71,4.93,7.57,6.51,2.85,1.59,5.95,2.51,9.28,2.78,3.33,.26,6.72-.16,10.17-1.28,3.37-1.09,6.83-2.84,10.38-5.25,3.55-2.41,6.92-5.51,10.11-9.31,3.19-3.8,6.06-8.31,8.62-13.51,2.56-5.2,4.61-11.17,6.15-17.91,1.35-.09,2.86-.41,4.5-.94,4.47-1.45,8.51-3.74,11.67-7.29,6.76-7.59,9.37-21.03,9.98-23.56,.61-2.54,1.3-5.36,2.07-8.46,.77-3.11,1.55-6.17,2.35-9.2,.79-3.03,1.55-5.83,2.28-8.4,.73-2.57,1.42-4.57,2.08-6l.08,.24c.2,.63,.74,1.95,1.61,3.96,.87,2.01,1.87,4.37,3.01,7.08,1.14,2.71,2.3,5.56,3.48,8.55,1.19,2.99,2.18,5.74,3,8.25,.81,2.51,1.56,5.34,2.23,8.5,.68,3.16,1.16,6.46,1.46,9.92,.3,3.46,.31,6.9,.03,10.32-.28,3.42-.94,6.6-1.98,9.54-1.04,2.94-2.54,5.52-4.5,7.76-1.96,2.24-4.51,3.86-7.64,4.88-2.35,.76-4.46,1.01-6.32,.75-1.86-.26-3.43-.75-4.7-1.47-1.27-.71-2.29-1.53-3.07-2.45-.77-.92-1.24-1.61-1.39-2.08l-3.97,2.19c2.74,5.26,6.58,8.63,11.52,10.1,4.94,1.47,10.35,1.26,16.23-.64,6.58-2.13,12.38-5.5,17.38-10.11,5-4.61,9.35-9.91,13.03-15.91,3.69-6,6.78-12.42,9.29-19.25,2.51-6.83,4.55-13.57,6.11-20.23l-5.14-2.23Zm-228.23-18.01c1.24-11.4,2.59-20.76,4.03-28.07,1.44-7.31,3.2-12.79,5.26-16.45,2.06-3.66,4.86-6.06,8.39-7.2,1.25-.41,2.41-.32,3.46,.24,1.05,.57,1.8,1.56,2.26,2.97,.76,2.35,.84,6.29,.25,11.81-.6,5.52-1.99,12.23-4.2,20.13-2.2,7.9-5.26,16.84-9.18,26.81-3.92,9.97-8.83,20.55-14.73,31.73,1.73-16.58,3.22-30.58,4.46-41.98Zm138.47,31.1c.47,2.4,.81,5.04,1.01,7.92,.2,2.88,.27,5.91,.22,9.09-.05,3.18-.34,6.37-.86,9.57-2.37-.62-4.56-1.79-6.59-3.52-2.03-1.72-3.88-3.7-5.56-5.93-1.68-2.23-3.14-4.61-4.39-7.15-1.26-2.54-2.25-4.94-2.99-7.22-.81-2.51-1.34-5-1.58-7.48-.24-2.48-.17-4.75,.2-6.82s1.05-3.85,2.04-5.34c.99-1.49,2.27-2.49,3.84-3,1.18-.38,2.39-.32,3.63,.19,1.25,.51,2.44,1.38,3.57,2.61,1.14,1.24,2.22,2.77,3.24,4.6,1.03,1.83,1.92,3.92,2.68,6.28,.56,1.72,1.07,3.79,1.55,6.19Z"/></g><g class="n"><g><path class="i" d="M1670.47,507.09c-468.67-50.42-936.06,52.9-1404.93,9.85v-78.77c468.31-16.41,936.62-32.82,1404.93-49.23,0,39.39,0,78.77,0,118.16Z"/><path class="l" d="M1670.47,684.33c-468.31-16.41-936.62-32.82-1404.93-49.23v-78.77c468.23,49.56,937.01-47.05,1404.93,9.85,0,39.39,0,78.77,0,118.16Z"/><path class="j" d="M1670.47,566.17c-467.93-56.9-936.7,39.71-1404.93-9.85v-39.39c468.87,43.05,936.27-60.26,1404.93-9.85v59.08Z"/></g></g><g class="m"><g><path class="i" d="M1689.45,508.18c-476.59-51.29-951.88,53.82-1428.68,10.01v-80.1c476.23-16.69,952.45-33.38,1428.68-50.07,0,40.05,0,80.1,0,120.16Z"/><path class="l" d="M1689.45,688.42c-476.23-16.69-952.45-33.38-1428.68-50.07v-80.1c476.15,50.42,952.84-47.87,1428.68,10.01,0,40.05,0,80.1,0,120.16Z"/><path class="j" d="M1689.45,568.26c-475.84-57.88-952.53,40.41-1428.68-10.01v-40.05c476.8,43.8,952.09-61.31,1428.68-10.01v60.08Z"/></g></g><g class="q"><g><path class="i" d="M1696.3,508.24c-476.33-51.26-951.35,53.79-1427.89,10.01v-80.06c475.96-16.68,951.92-33.36,1427.89-50.04,0,40.03,0,80.06,0,120.09Z"/><path class="l" d="M1696.3,688.38c-475.96-16.68-951.92-33.36-1427.89-50.04v-80.06c475.88,50.39,952.31-47.84,1427.89,10.01,0,40.03,0,80.06,0,120.09Z"/><path class="j" d="M1696.3,568.29c-475.57-57.85-952,40.38-1427.89-10.01v-40.03c476.53,43.78,951.56-61.27,1427.89-10.01v60.05Z"/></g></g><g class="p"><g><path class="i" d="M1702.26,507.4c-481.84-51.88-962.35,54.43-1444.4,10.12v-80.99c481.47-16.87,962.93-33.74,1444.4-50.62,0,40.49,0,80.99,0,121.48Z"/><path class="l" d="M1702.26,689.62c-481.47-16.87-962.93-33.74-1444.4-50.62v-80.99c481.39,51,963.32-48.42,1444.4,10.12,0,40.49,0,80.99,0,121.48Z"/><path class="j" d="M1702.26,568.14c-481.08-58.54-963.01,40.87-1444.4-10.12v-40.49c482.05,44.31,962.56-62,1444.4-10.12,0,20.25,0,40.49,0,60.74Z"/></g></g><g class="o"><g><path class="i" d="M1719.4,506.67c-482.87-51.99-964.41,54.55-1447.49,10.14v-81.16c482.5-16.91,964.99-33.81,1447.49-50.72,0,40.58,0,81.16,0,121.74Z"/><path class="l" d="M1719.4,689.28c-482.5-16.91-964.99-33.82-1447.49-50.72v-81.16c482.42,51.11,965.39-48.52,1447.49,10.15,0,40.58,0,81.16,0,121.74Z"/><path class="j" d="M1719.4,567.54c-482.11-58.67-965.07,40.96-1447.49-10.15v-40.58c483.08,44.4,964.62-62.14,1447.49-10.14,0,20.29,0,40.58,0,60.87Z"/></g></g><g class="r"><g><path class="i" d="M1682.8,508.27c-476.2-51.25-951.1,53.77-1427.51,10v-80.04c475.84-16.68,951.67-33.35,1427.51-50.02,0,40.02,0,80.04,0,120.06Z"/><path class="l" d="M1682.8,688.36c-475.84-16.67-951.67-33.35-1427.51-50.02v-80.04c475.76,50.38,952.06-47.83,1427.51,10,0,40.02,0,80.04,0,120.06Z"/><path class="j" d="M1682.8,568.3c-475.45-57.83-951.75,40.37-1427.51-10v-40.02c476.41,43.77,951.31-61.26,1427.51-10v60.03Z"/></g></g><g><path class="j" d="M345.29,760.39v-41.93h-16.53v-7.82h42.32v7.82h-16.53v41.93h-9.26Z"/><path class="j" d="M378.07,760.39v-49.75h20.52c4.42,0,8.2,.7,11.36,2.1,3.16,1.4,5.59,3.42,7.3,6.08,1.71,2.65,2.56,5.83,2.56,9.52s-.86,6.78-2.56,9.38c-1.71,2.61-4.14,4.62-7.3,6.04-3.16,1.42-6.95,2.13-11.36,2.13h-15.32l4.06-4.12v18.62h-9.26Zm9.26-17.63l-4.06-4.48h14.89c4.08,0,7.16-.88,9.23-2.63,2.07-1.75,3.1-4.19,3.1-7.32s-1.03-5.56-3.1-7.29c-2.07-1.73-5.14-2.59-9.23-2.59h-14.89l4.06-4.55v28.86Zm23.37,17.63l-12.61-18.05h9.9l12.68,18.05h-9.97Z"/><path class="j" d="M423.09,760.39l22.44-49.75h9.12l22.51,49.75h-9.76l-19.24-44.85h3.7l-19.31,44.85h-9.48Zm10.33-11.51l2.56-7.25h26.86l2.49,7.25h-31.92Z"/><path class="j" d="M483.51,760.39v-49.75h21.87c5.32,0,10.03,1.03,14.14,3.09,4.11,2.06,7.3,4.96,9.58,8.71,2.28,3.74,3.42,8.1,3.42,13.08s-1.14,9.34-3.42,13.08c-2.28,3.74-5.47,6.65-9.58,8.71-4.11,2.06-8.82,3.09-14.14,3.09h-21.87Zm9.26-7.82h12.04c3.75,0,6.99-.71,9.73-2.13,2.73-1.42,4.87-3.41,6.41-5.97,1.54-2.56,2.32-5.54,2.32-8.96s-.77-6.51-2.32-9.03c-1.54-2.51-3.68-4.48-6.41-5.9-2.73-1.42-5.97-2.13-9.73-2.13h-12.04v34.12Z"/><path class="j" d="M542.35,760.39v-49.75h9.26v49.75h-9.26Z"/><path class="j" d="M575.2,760.39v-41.93h-16.53v-7.82h42.32v7.82h-16.53v41.93h-9.26Z"/><path class="j" d="M607.97,760.39v-49.75h9.26v49.75h-9.26Z"/><path class="j" d="M654.06,761.1c-3.85,0-7.42-.64-10.72-1.92-3.3-1.28-6.16-3.08-8.59-5.4-2.42-2.32-4.3-5.03-5.63-8.14-1.33-3.1-1.99-6.48-1.99-10.13s.66-7.1,1.99-10.2c1.33-3.1,3.21-5.8,5.63-8.1,2.42-2.3,5.27-4.09,8.55-5.37,3.28-1.28,6.86-1.92,10.76-1.92s7.41,.63,10.69,1.88c3.28,1.26,6.11,3.03,8.51,5.33,2.4,2.3,4.26,5.01,5.59,8.14,1.33,3.13,1.99,6.54,1.99,10.24s-.67,7.1-1.99,10.2c-1.33,3.1-3.19,5.82-5.59,8.14-2.4,2.32-5.24,4.11-8.51,5.37-3.28,1.25-6.84,1.88-10.69,1.88Zm0-8.1c2.52,0,4.83-.43,6.95-1.28,2.11-.85,3.95-2.06,5.52-3.63,1.57-1.56,2.79-3.41,3.67-5.54,.88-2.13,1.32-4.48,1.32-7.04s-.43-4.9-1.28-7.04c-.86-2.13-2.08-3.98-3.67-5.54-1.59-1.56-3.44-2.77-5.56-3.63-2.11-.85-4.43-1.28-6.95-1.28s-4.86,.43-7.02,1.28c-2.16,.85-4.02,2.07-5.59,3.66-1.57,1.59-2.8,3.44-3.7,5.54-.9,2.11-1.35,4.44-1.35,7s.45,4.83,1.35,6.97c.9,2.13,2.14,3.99,3.7,5.58,1.57,1.59,3.43,2.81,5.59,3.66,2.16,.85,4.5,1.28,7.02,1.28Z"/><path class="j" d="M690.68,760.39v-49.75h7.62l31.28,38.38h-3.78v-38.38h9.12v49.75h-7.62l-31.21-38.38h3.78v38.38h-9.19Z"/><path class="j" d="M741.34,760.39l22.44-49.75h9.12l22.51,49.75h-9.76l-19.24-44.85h3.7l-19.31,44.85h-9.48Zm10.33-11.51l2.56-7.25h26.86l2.49,7.25h-31.92Z"/><path class="j" d="M801.75,760.39v-49.75h9.26v41.93h26.08v7.82h-35.34Z"/><path class="j" d="M893.01,760.39h-9.26v-49.75h9.26v49.75Zm26.5-21.32h-27.21v-7.89h27.21v7.89Zm-.71-28.43h9.19v49.75h-9.19v-49.75Z"/><path class="j" d="M962.83,761.1c-6.79,0-12.12-1.92-15.99-5.76-3.87-3.84-5.81-9.4-5.81-16.7v-28h9.26v27.72c0,5.12,1.1,8.84,3.31,11.16,2.21,2.32,5.33,3.48,9.37,3.48s7.15-1.16,9.33-3.48c2.18-2.32,3.28-6.04,3.28-11.16v-27.72h9.12v28c0,7.3-1.94,12.86-5.81,16.7-3.87,3.84-9.23,5.76-16.06,5.76Z"/><path class="j" d="M997.67,760.39v-49.75h7.62l31.28,38.38h-3.78v-38.38h9.12v49.75h-7.62l-31.21-38.38h3.78v38.38h-9.19Z"/><path class="j" d="M1078.68,761.1c-3.89,0-7.47-.63-10.72-1.88-3.25-1.25-6.09-3.04-8.51-5.37-2.42-2.32-4.3-5.02-5.63-8.1-1.33-3.08-1.99-6.49-1.99-10.24s.66-7.15,1.99-10.24c1.33-3.08,3.22-5.78,5.66-8.1,2.44-2.32,5.29-4.11,8.55-5.37,3.25-1.25,6.88-1.88,10.86-1.88s7.97,.69,11.36,2.06c3.4,1.37,6.26,3.39,8.59,6.04l-5.84,5.69c-1.95-1.94-4.05-3.38-6.3-4.3-2.26-.92-4.74-1.39-7.44-1.39s-5.09,.43-7.3,1.28c-2.21,.85-4.12,2.06-5.74,3.63-1.62,1.56-2.87,3.41-3.78,5.54-.9,2.13-1.35,4.48-1.35,7.04s.45,4.84,1.35,7c.9,2.16,2.16,4.02,3.78,5.58,1.61,1.56,3.51,2.77,5.7,3.63,2.18,.85,4.61,1.28,7.27,1.28,2.47,0,4.85-.39,7.16-1.17,2.3-.78,4.5-2.1,6.59-3.94l5.2,6.89c-2.56,2.09-5.56,3.66-8.98,4.73-3.42,1.07-6.91,1.6-10.47,1.6Zm10.76-7.53v-18.55h8.69v19.76l-8.69-1.21Z"/><path class="j" d="M1103.33,760.39l22.44-49.75h9.12l22.51,49.75h-9.76l-19.24-44.85h3.71l-19.31,44.85h-9.48Zm10.33-11.51l2.56-7.25h26.86l2.49,7.25h-31.92Z"/><path class="j" d="M1163.74,760.39v-49.75h20.52c4.42,0,8.2,.7,11.36,2.1,3.16,1.4,5.59,3.42,7.3,6.08,1.71,2.65,2.56,5.83,2.56,9.52s-.85,6.78-2.56,9.38c-1.71,2.61-4.15,4.62-7.3,6.04-3.16,1.42-6.95,2.13-11.36,2.13h-15.32l4.06-4.12v18.62h-9.26Zm9.26-17.63l-4.06-4.48h14.89c4.08,0,7.16-.88,9.23-2.63,2.06-1.75,3.1-4.19,3.1-7.32s-1.03-5.56-3.1-7.29c-2.07-1.73-5.14-2.59-9.23-2.59h-14.89l4.06-4.55v28.86Zm23.37,17.63l-12.61-18.05h9.9l12.68,18.05h-9.97Z"/><path class="j" d="M1215.82,760.39v-49.75h9.26v49.75h-9.26Z"/><path class="j" d="M1231.49,760.39l22.44-49.75h9.12l22.51,49.75h-9.76l-19.24-44.85h3.71l-19.31,44.85h-9.48Zm10.33-11.51l2.56-7.25h26.86l2.49,7.25h-31.92Z"/><path class="j" d="M1291.91,760.39v-49.75h7.62l31.28,38.38h-3.78v-38.38h9.12v49.75h-7.62l-31.21-38.38h3.78v38.38h-9.19Z"/><path class="j" d="M1398.2,760.39h-9.26v-49.75h36.41v7.82h-27.14v41.93Zm-.71-26.79h24.79v7.68h-24.79v-7.68Z"/><path class="j" d="M1457.12,761.1c-3.85,0-7.42-.64-10.72-1.92-3.3-1.28-6.16-3.08-8.59-5.4-2.42-2.32-4.3-5.03-5.63-8.14-1.33-3.1-1.99-6.48-1.99-10.13s.66-7.1,1.99-10.2c1.33-3.1,3.21-5.8,5.63-8.1,2.42-2.3,5.27-4.09,8.55-5.37,3.28-1.28,6.86-1.92,10.76-1.92s7.41,.63,10.69,1.88c3.28,1.26,6.12,3.03,8.51,5.33,2.4,2.3,4.26,5.01,5.59,8.14,1.33,3.13,2,6.54,2,10.24s-.67,7.1-2,10.2c-1.33,3.1-3.19,5.82-5.59,8.14-2.4,2.32-5.24,4.11-8.51,5.37-3.28,1.25-6.84,1.88-10.69,1.88Zm0-8.1c2.52,0,4.83-.43,6.95-1.28,2.11-.85,3.95-2.06,5.52-3.63,1.57-1.56,2.79-3.41,3.67-5.54,.88-2.13,1.32-4.48,1.32-7.04s-.43-4.9-1.28-7.04c-.86-2.13-2.08-3.98-3.67-5.54-1.59-1.56-3.44-2.77-5.56-3.63-2.11-.85-4.43-1.28-6.95-1.28s-4.86,.43-7.02,1.28c-2.16,.85-4.03,2.07-5.59,3.66-1.57,1.59-2.8,3.44-3.7,5.54-.9,2.11-1.35,4.44-1.35,7s.45,4.83,1.35,6.97c.9,2.13,2.14,3.99,3.7,5.58,1.57,1.59,3.43,2.81,5.59,3.66,2.16,.85,4.5,1.28,7.02,1.28Z"/><path class="j" d="M1517.11,761.1c-3.85,0-7.42-.64-10.72-1.92-3.3-1.28-6.16-3.08-8.59-5.4-2.42-2.32-4.3-5.03-5.63-8.14-1.33-3.1-1.99-6.48-1.99-10.13s.66-7.1,1.99-10.2c1.33-3.1,3.21-5.8,5.63-8.1,2.42-2.3,5.27-4.09,8.55-5.37,3.28-1.28,6.86-1.92,10.76-1.92s7.41,.63,10.69,1.88c3.28,1.26,6.12,3.03,8.51,5.33,2.4,2.3,4.26,5.01,5.59,8.14,1.33,3.13,2,6.54,2,10.24s-.67,7.1-2,10.2c-1.33,3.1-3.19,5.82-5.59,8.14-2.4,2.32-5.24,4.11-8.51,5.37-3.28,1.25-6.84,1.88-10.69,1.88Zm0-8.1c2.52,0,4.83-.43,6.95-1.28,2.11-.85,3.95-2.06,5.52-3.63,1.57-1.56,2.79-3.41,3.67-5.54,.88-2.13,1.32-4.48,1.32-7.04s-.43-4.9-1.28-7.04c-.86-2.13-2.08-3.98-3.67-5.54-1.59-1.56-3.44-2.77-5.56-3.63-2.11-.85-4.43-1.28-6.95-1.28s-4.86,.43-7.02,1.28c-2.16,.85-4.03,2.07-5.59,3.66-1.57,1.59-2.8,3.44-3.7,5.54-.9,2.11-1.35,4.44-1.35,7s.45,4.83,1.35,6.97c.9,2.13,2.14,3.99,3.7,5.58,1.57,1.59,3.43,2.81,5.59,3.66,2.16,.85,4.5,1.28,7.02,1.28Z"/><path class="j" d="M1553.73,760.39v-49.75h21.87c5.32,0,10.03,1.03,14.14,3.09s7.3,4.96,9.58,8.71c2.28,3.74,3.42,8.1,3.42,13.08s-1.14,9.34-3.42,13.08c-2.28,3.74-5.48,6.65-9.58,8.71-4.11,2.06-8.82,3.09-14.14,3.09h-21.87Zm9.26-7.82h12.04c3.75,0,6.99-.71,9.72-2.13,2.73-1.42,4.87-3.41,6.41-5.97,1.54-2.56,2.32-5.54,2.32-8.96s-.77-6.51-2.32-9.03c-1.54-2.51-3.68-4.48-6.41-5.9-2.73-1.42-5.97-2.13-9.72-2.13h-12.04v34.12Z"/></g><g><path class="j" d="M1177.19,501.2c.83-1.93,1.69-3.46,2.56-4.59,.87-1.12,1.74-1.93,2.59-2.42,.86-.49,1.72-.77,2.59-.83,.87-.06,1.73-.02,2.57,.12,1.79,.29,3.66,1.47,5.59,3.54,1.93,2.07,3.75,4.62,5.44,7.66l18.01,41.33c.39,.75,.54,1.44,.44,2.06-.13,.79-.54,1.36-1.24,1.74-.7,.38-1.45,.5-2.24,.37-.85-.14-1.62-.58-2.31-1.33l-24.28-38.21-18.44,31.24c-.64,.99-1.33,1.67-2.06,2.04-.73,.37-1.41,.5-2.04,.4-.89-.14-1.61-.65-2.17-1.52-.55-.87-.74-1.86-.56-2.98,.09-.56,.18-.89,.25-.99l15.28-37.62Z"/><path class="i" d="M1096.65,491.62l39.02-187.95,31.25-6.93,115.04,153.8-33.45,7.42-100.07-139.44,12.7-2.82-32.01,168.72-32.47,7.2Zm26.63-47.4l3.27-26.85,92.05-20.41,14.07,23.01-109.38,24.25Z"/></g><path class="j" d="M1742.28,608c0,4.13-1.34,7.69-4.03,10.65-2.69,2.96-5.97,4.44-9.85,4.44-3.63,0-6.78-1.48-9.47-4.44-2.69-2.96-4.03-6.51-4.03-10.65s1.34-7.48,4.03-10.44c2.69-2.96,5.84-4.44,9.47-4.44,3.88,0,7.16,1.48,9.85,4.44,2.69,2.96,4.03,6.45,4.03,10.44Zm-3.19-38.87c-1.5-3.99-2.63-7.99-3.38-11.99-.75-3.99-1.13-7.72-1.13-11.16,0-9.78,1.94-18.47,5.81-26.05,3.88-7.58,8.97-14.47,15.29-20.67,6.31-6.2,13.5-11.95,21.57-17.26,8.07-5.3,16.29-10.58,24.66-15.81,8.38-5.23,16.6-10.65,24.66-16.23,8.07-5.58,15.25-11.75,21.57-18.5,6.31-6.75,11.41-14.3,15.29-22.64,3.88-8.34,5.81-17.88,5.81-28.63,0-9.1-1.53-16.67-4.6-22.74-3.06-6.06-7.03-10.92-11.91-14.57-4.88-3.65-10.35-6.27-16.41-7.86-6.07-1.58-12.1-2.38-18.1-2.38-11,0-21.35,1.86-31.04,5.58-9.69,3.72-18.16,8.62-25.41,14.68-7.25,6.07-12.97,13.02-17.16,20.88-4.19,7.86-6.28,15.99-6.28,24.39,0,4.83,.72,9.03,2.16,12.61,1.44,3.58,3.38,6.55,5.81,8.89,2.44,2.34,5.25,4.07,8.44,5.17,3.19,1.1,6.47,1.65,9.85,1.65,5.75,0,11-.55,15.76-1.65,4.75-1.1,8.75-2.41,12-3.93l1.69,8.48c-4.13,1.93-9.16,3.72-15.1,5.37-5.94,1.65-12.47,2.48-19.6,2.48-5.63,0-10.97-.69-16.04-2.07-5.06-1.38-9.47-3.58-13.22-6.62-3.75-3.03-6.75-6.93-9-11.68-2.25-4.75-3.38-10.44-3.38-17.06,0-10.34,2.88-20.16,8.63-29.46,5.75-9.3,13.38-17.5,22.88-24.6,9.5-7.09,20.35-12.71,32.54-16.85,12.19-4.13,24.79-6.2,37.79-6.2,9.63,0,18.69,1.34,27.2,4.03,8.5,2.69,15.91,6.69,22.23,11.99,6.31,5.31,11.28,11.85,14.91,19.64,3.62,7.79,5.44,16.78,5.44,26.98,0,11.44-2.1,21.67-6.28,30.7-4.19,9.03-9.69,17.2-16.51,24.5-6.82,7.31-14.57,13.95-23.26,19.95-8.69,6-17.57,11.68-26.63,17.06-9.07,5.37-17.94,10.61-26.63,15.71-8.69,5.1-16.44,10.44-23.26,16.02-6.82,5.58-12.32,11.61-16.51,18.09-4.19,6.48-6.28,13.71-6.28,21.71,0,2.34,.19,4.79,.56,7.34,.38,2.55,1.06,5.21,2.06,7.96l-7.5,4.75Z"/></svg>