<?xml version="1.0" encoding="utf-8"?>
<!-- Generator: Adobe Illustrator 26.2.1, SVG Export Plug-In . SVG Version: 6.00 Build 0)  -->
<svg version="1.1" id="Layer_1" xmlns="http://www.w3.org/2000/svg" xmlns:xlink="http://www.w3.org/1999/xlink" x="0px" y="0px"
	 viewBox="0 0 190 148.9" style="enable-background:new 0 0 190 148.9;" xml:space="preserve">
<style type="text/css">
	.st0{fill:#F4F5F9;}
	.st1{fill:none;stroke:#F4F5F9;stroke-width:5;stroke-miterlimit:10;}
</style>
<g id="a">
</g>
<g>
	<path class="st0" d="M176.4,96.7h-67.7c-1.9,0-3.3-1.4-3.3-3.2v0c0-1.8,1.5-3.2,3.3-3.2h67.7c1.7,0,3.2,1.4,3.2,3.2v0
		C179.6,95.3,178.1,96.7,176.4,96.7z"/>
	<path class="st0" d="M176.5,78.7l-67.7,1.2c-1.9,0-3.4-1.4-3.4-3.1v0c0-1.8,1.4-3.2,3.3-3.2l67.7-1.2c1.7,0,3.2,1.4,3.2,3.1v0
		C179.6,77.2,178.2,78.7,176.5,78.7z"/>
	<path class="st0" d="M175.7,61L108,62.8c-1.9,0-3.4-1.3-3.4-3.1v0c0-1.8,1.4-3.2,3.2-3.3l67.6-1.7c1.7,0,3.2,1.3,3.2,3.1v0
		C178.8,59.5,177.4,61,175.7,61z"/>
	<path class="st0" d="M176.5,43.4l-67.6,2.3c-1.9,0.1-3.4-1.3-3.4-3.1v0c-0.1-1.8,1.3-3.2,3.2-3.3l67.6-2.3c1.7-0.1,3.2,1.3,3.3,3.1
		v0C179.6,41.8,178.2,43.3,176.5,43.4z"/>
</g>
<ellipse class="st1" cx="66.5" cy="49.5" rx="9.6" ry="9.5"/>
<path class="st1" d="M21.1,20.3l59,6.3c3.3,0.5,5.7,3.2,5.8,6.4l0.4,65.9c0.1,3.7-2,6.5-5.8,6.5H18.8c-3.7,0-6.7-3-6.7-6.6v-74
	C12,20.8,17.1,19.7,21.1,20.3z"/>
<path class="st1" d="M11,82.7l19.3-19c0.5-0.5,1.2-0.5,1.7,0l17.4,17.1c0.5,0.5,1.2,0.5,1.7,0l7.7-7.5c0.5-0.5,1.2-0.5,1.7,0
	l24.6,24.1"/>
<path class="st1" d="M5.2,2.1l90.7,8.2c0.2,0,0.4,0,0.6,0l88.2-8.2c1.5-0.1,2.7,0.7,2.7,1.9l-1.6,140.1c0,1.1-1.3,2-2.7,1.8
	l-86.6-8.3c-0.2,0-0.4,0-0.6,0l-90.7,8.3c-1.5,0.1-2.7-0.7-2.7-1.8V3.9C2.5,2.8,3.8,1.9,5.2,2.1z"/>
<path class="st1" d="M96.2,10.3v127.3V10.3z"/>
</svg>
