<?xml version="1.0" encoding="utf-8"?>
<!-- Generator: Adobe Illustrator 26.2.1, SVG Export Plug-In . SVG Version: 6.00 Build 0)  -->
<svg version="1.1" id="Layer_1" xmlns="http://www.w3.org/2000/svg" xmlns:xlink="http://www.w3.org/1999/xlink" x="0px" y="0px"
	 viewBox="0 0 185 174.3" style="enable-background:new 0 0 185 174.3;" xml:space="preserve">
<style type="text/css">
	.st0{fill:#F4F5F9;}
</style>
<g id="a">
</g>
<g>
	<path class="st0" d="M173.8-0.2c-54.8,0-109.5,0-164.3,0c-8.1,0-10,1.9-10,10.2c0,36.4,0,72.8,0,109.2c0,8.8,1.8,10.6,10.7,10.6
		c17.1,0,34.1,0,51.2,0c0.8,0,1.6,0,2.4,0c1.9,0,3.5,1.6,3.5,3.5c0.1,8.4,0.3,16.3-0.1,24.2c-0.2,3.4-1.4,6.3-4.2,8.1
		c-1,0.6-1.7,1.8-1.7,3v1.9c0,1.9,1.6,3.5,3.5,3.5c18.2,0.2,36.4,0.2,54.6,0c1.9,0,3.5-1.6,3.5-3.5v-2.1c0-1.3-0.7-2.4-1.8-3
		c-2.9-1.7-4.4-4.1-4.5-8.2c-0.2-7.7-0.1-15.5-0.1-23.8c0-1.9,1.6-3.5,3.5-3.5h2.9c17.1,0,34.1,0,51.2,0c8.6,0,10.3-1.8,10.3-10.4
		c0-36.2,0-72.5,0-108.7C184.5,1.2,183.2-0.2,173.8-0.2z M107,166.9H77c-2,0-3.5-1.6-3.5-3.5v-29.7c0-2,1.6-3.5,3.5-3.5h30
		c2,0,3.5,1.6,3.5,3.5v29.7C110.5,165.3,108.9,166.9,107,166.9z M173.6,122.2H10.3c-2,0-3.5-1.6-3.5-3.5v-9.3c0-2,1.6-3.5,3.5-3.5
		h163.3c2,0,3.5,1.6,3.5,3.5v9.3C177.2,120.7,175.6,122.2,173.6,122.2z M172.4,98.7c-53.6-0.1-107.2-0.1-160.9,0
		c-3.1,0-5.1-0.1-5.1-4.3c0.2-28,0.1-56.1,0.1-84.1c0,0,0,0,0,0c0-1.9,1.6-3.4,3.5-3.4h2.7c52.8,0,105.6,0,158.4,0
		c6.3,0,6.3,0,6.3,6.5c0,26.7-0.1,53.5,0.1,80.2C177.6,97.5,176.6,98.7,172.4,98.7z"/>
	<g>
		<path class="st0" d="M98.8,27.1h4c1,0,1.7,1,1.4,1.9L86.6,86.3c-0.2,0.6-0.8,1-1.4,1h-4c-1,0-1.7-1-1.4-1.9l17.6-57.2
			C97.6,27.5,98.1,27.1,98.8,27.1z"/>
		<path class="st0" d="M156,57.3l-26.8,13.9c-0.7,0.4-1.6,0.1-2-0.6l-1.7-3.3c-0.4-0.7-0.1-1.6,0.7-2l19.8-9.5
			c1.1-0.5,1.1-2.1,0-2.7l-19.9-9.7c-0.7-0.4-1-1.3-0.7-2l1.7-3.3c0.4-0.7,1.3-1,2-0.6L156,51.3c0.5,0.3,0.8,0.8,0.8,1.3V56
			C156.8,56.6,156.5,57.1,156,57.3z"/>
		<path class="st0" d="M28,51.3l26.8-13.9c0.7-0.4,1.6-0.1,2,0.6l1.7,3.3c0.4,0.7,0.1,1.6-0.7,2L38,52.9c-1.1,0.5-1.1,2.1,0,2.7
			l19.9,9.7c0.7,0.4,1,1.3,0.7,2l-1.7,3.3c-0.4,0.7-1.3,1-2,0.6L28,57.3c-0.5-0.3-0.8-0.8-0.8-1.3v-3.4C27.2,52.1,27.5,51.6,28,51.3
			z"/>
	</g>
</g>
</svg>
