<?xml version="1.0" encoding="utf-8"?>
<!-- Generator: Adobe Illustrator 26.2.1, SVG Export Plug-In . SVG Version: 6.00 Build 0)  -->
<svg version="1.1" id="Layer_1" xmlns="http://www.w3.org/2000/svg" xmlns:xlink="http://www.w3.org/1999/xlink" x="0px" y="0px"
	 viewBox="0 0 185 130.2" style="enable-background:new 0 0 185 130.2;" xml:space="preserve">
<style type="text/css">
	.st0{fill:#F4F5F9;stroke:#F4F5F9;stroke-width:5;stroke-miterlimit:10;}
	.st1{fill:#F4F5F9;stroke:#F4F5F9;stroke-miterlimit:10;}
	.st2{fill:none;stroke:#F4F5F9;stroke-width:3;stroke-miterlimit:10;}
</style>
<g id="a">
</g>
<g>
	<g>
		<line class="st0" x1="3.4" y1="29.2" x2="179.8" y2="29.2"/>
		<path class="st1" d="M18.1,10.5c3.3,0,5.9,2.6,5.9,5.9c0,3.2-2.7,6-5.9,6c-3.4,0-6.2-2.9-6.1-6.1C12.1,13,14.8,10.5,18.1,10.5z"/>
		<path class="st1" d="M34.9,10.5c3.3,0,5.9,2.6,5.9,5.9c0,3.2-2.7,6-5.9,6c-3.4,0-6.2-2.9-6.1-6.1C28.9,13,31.6,10.5,34.9,10.5z"/>
		<path class="st1" d="M51.8,10.5c3.3,0,5.9,2.6,5.9,5.9c0,3.2-2.7,6-5.9,6c-3.4,0-6.2-2.9-6.1-6.1C45.8,13,48.5,10.5,51.8,10.5z"/>
		<path class="st1" d="M173.8-0.1c-54.8,0-109.5,0-164.3,0c-8.1,0-10,1.9-10,10.2c0,36.4,0,72.8,0,109.2c0,8.8,1.8,10.6,10.7,10.6
			c17.1,0,34.1,0,51.2,0c0.8,0,1.6,0,2.4,0c0.4,0,0.9,0.1,1.3,0.2H77h30h11.9c0.4-0.1,0.8-0.2,1.3-0.2h2.9c17.1,0,34.1,0,51.2,0
			c8.6,0,10.3-1.8,10.3-10.4c0-36.2,0-72.5,0-108.7C184.5,1.2,183.2-0.1,173.8-0.1z M177.2,118.8c0,2-1.6,3.5-3.5,3.5H10.3
			c-2,0-3.5-1.6-3.5-3.5v-9.3c0-2,1.6-3.5,3.5-3.5h163.3c2,0,3.5,1.6,3.5,3.5V118.8z M172.4,98.8c-53.6-0.1-107.2-0.1-160.9,0
			c-3.1,0-5.1-0.1-5.1-4.3c0.2-28,0.1-56.1,0.1-84.1c0,0,0,0,0,0c0-1.9,1.6-3.4,3.5-3.4h2.7c52.8,0,105.6,0,158.4,0
			c6.3,0,6.3,0,6.3,6.5c0,26.7-0.1,53.5,0.1,80.2C177.6,97.6,176.6,98.8,172.4,98.8z"/>
	</g>
	<rect x="96.7" y="41.6" class="st2" width="72.2" height="50.7"/>
	<path class="st2" d="M96.7,41.6L167.1,91c0.7,0.5,1.7,0,1.7-0.9V44.5c0-1.2-1.4-2-2.4-1.3l-69.8,49"/>
	<g>
		<rect x="14.4" y="41.6" class="st2" width="72.2" height="17.5"/>
		<path class="st2" d="M14.4,41.6l71.1,17.2c0.6,0.1,1.1-0.3,1.1-0.9V42.8c0-0.6-0.6-1.1-1.2-1L15.6,59"/>
	</g>
	<g>
		<rect x="14.4" y="74.8" class="st2" width="72.2" height="17.5"/>
		<path class="st2" d="M14.4,74.8L85.5,92c0.6,0.1,1.1-0.3,1.1-0.9V76c0-0.6-0.6-1.1-1.2-1L15.6,92.2"/>
	</g>
</g>
</svg>
