<?xml version="1.0" encoding="utf-8"?>
<!-- Generator: Adobe Illustrator 26.2.1, SVG Export Plug-In . SVG Version: 6.00 Build 0)  -->
<svg version="1.1" id="Layer_1" xmlns="http://www.w3.org/2000/svg" xmlns:xlink="http://www.w3.org/1999/xlink" x="0px" y="0px"
	 viewBox="0 0 185 185" style="enable-background:new 0 0 185 185;" xml:space="preserve">
<style type="text/css">
	.st0{fill:#F4F5F9;}
</style>
<g id="a">
</g>
<g>
	<path class="st0" d="M68.6,117.7C68.4,104.4,56.7,91.1,43,88.4c-2.2-0.4-4.5-0.7-6.8-0.6c-3.9,0-7.4,3-7.4,6.9
		c-0.1,17.6-0.1,35.2-0.1,53.1c1.2,0.1,2.2,0.2,3.2,0.2c9.4,0,18.8,0.1,28.3,0c2.9,0,4.5,0.9,5.5,3.8c2.8,8.4,5.8,16.7,8.7,25
		c0.6,1.7,0.7,3.2-1.1,4.2c-1.9,1.1-3.6,0.2-4.5-2.4c-2.6-7.3-5.2-14.5-7.6-21.8c-0.8-2.3-1.9-3-4.3-3c-9.8,0.1-19.6,0.1-29.4,0
		c-3.7,0-4.6-0.8-4.6-4.5c0-17.7-0.1-35.4,0-53.1c0-8.8,6.2-14.6,15-14.3c16.9,0.7,30.4,11.5,34.8,27.9c0.5,1.9,1.1,3.8,1.5,5.8
		c0.3,1.5,0.9,2.1,2.5,2c10.5-0.1,20.9,0,31.4-0.1c0.3,0,0.5-0.1,0.9-0.2c0.9-3.2,1.7-6.4,2.7-9.6c4.7-15.3,19.8-26.2,35.8-26
		c7.6,0.1,13.5,5.5,13.6,13.3c0.2,18.3,0.1,36.5,0.1,54.8c0,2.9-1.1,3.8-4.1,3.8c-9.9,0-19.8,0.1-29.7,0c-2.5,0-3.7,0.6-4.5,3.1
		c-2.3,7.1-4.9,14.2-7.5,21.2c-0.6,1.8-1.2,3.9-3.8,3.1c-2.6-0.8-2.4-2.8-1.6-4.9c3-8.3,5.9-16.6,8.8-25c0.8-2.5,2.4-3.4,4.9-3.3
		c9.4,0.1,18.8,0,28.3,0c1,0,2.1,0,3.4,0c0.1-1.2,0.1-2.2,0.1-3.2c0-15.9,0-31.8,0-47.7c0-6.6-3.2-9.6-9.7-9.3
		c-14.7,0.7-28.1,12.8-30.1,27.4c-0.1,0.7,0,1.5,0,2.6c2.5,0,5,0,7.4,0c4.3,0.1,6.5,2.3,6.6,6.6c0,2.3,0,4.6,0,6.8
		c-0.1,4.6-2.2,6.8-6.8,6.8c-6.2,0-12.4,0-18.6,0c-1,0-2,0-3.4,0c0,1.3,0,2.3,0,3.3c0,11.9,0,23.8,0,35.7c0,4.9-2,6.8-6.9,6.9
		c-2.1,0-4.2,0-6.3,0c-4.9,0-6.9-2-6.9-7c0-11.8,0-23.6,0-35.4c0-1,0-2.1,0-3.5c-3.9,0-7.6,0-11.3,0c-3.7,0-7.4,0-11.1,0
		c-3.9-0.1-6.2-2.3-6.4-6.2c-0.1-2.6-0.1-5.1,0-7.7c0.1-4.1,2.4-6.3,6.5-6.4C61.6,117.7,65,117.7,68.6,117.7z"/>
	<path class="st0" d="M47.3,159.5c-1.9,4.2-3.9,5.7-7.7,5.7c-4.7,0-9.3,0.1-14,0c-2,0-2.7,0.6-2.6,2.6c0.1,2.7,0.1,5.3,0,8
		c-0.1,1.7,0.5,2.5,2.3,2.3c1-0.1,2.1,0,3.1,0c1.9,0.1,3.1,1,3,3c-0.1,1.8-1.2,2.7-3,2.7c-5.6,0-11.2,0.1-16.8-0.1
		c-1,0-2.5-1.4-2.8-2.5c-0.4-1.6,0.7-2.9,2.6-3c1.8-0.1,3.6,0,5.6,0c0-4.3,0-8.4,0-12.7c-0.7-0.1-1.5-0.2-2.3-0.2
		c-3.4,0-6.8,0-10.3,0c-3.6,0-4.3-0.8-4.3-4.4c0-27.9,0-55.7,0-83.6c0-0.2,0-0.4,0-0.6c0.1-4.7,2.8-8,7.2-9.1c4.1-0.9,8.1,1,9.9,5.3
		c1.4,3.3,3.4,6.8,3.4,10.4c0,0.4-0.4,1.6-0.7,2.5c-0.9,3.5-2.4,6.9-2.5,10.4c-0.3,17.8-0.1,35.6-0.1,53.4c0,6.5,3.3,9.8,9.9,9.8
		c6,0,12,0,18,0C46,159.4,45.9,159.5,47.3,159.5z"/>
	<path class="st0" d="M166.9,165.3c0,4.4,0,8.4,0,12.9c1.7,0,3.3,0,5,0c2,0,3.5,0.8,3.4,3c-0.1,2-1.4,2.7-3.3,2.7
		c-5.4,0-10.8,0-16.3,0c-1.9,0-3.2-0.8-3.3-2.8c0-2,1.3-2.8,3.2-2.9c5.4-0.5,5.4-0.5,5.4-6.1c0-2.2,0-4.3,0-6.8c-5.6,0-10.8,0-16,0
		c-4,0-7.2-1.3-9.2-5.7c1.3-0.1,2.3-0.2,3.3-0.2c6,0,12,0,18,0c6.4,0,9.7-3.3,9.7-9.6c0-17.9,0.1-35.8-0.1-53.7
		c-0.1-3.5-1.7-6.9-2.6-10.4c-0.2-0.8-0.1-1.4-0.6-2.4c1-3.6,1.9-7.2,3.3-10.6c1.5-3.9,5.9-6,9.8-5.2c4.3,0.9,7.3,4.3,7.3,8.6
		c0,28.4,0,56.9,0,85.3c0,2.6-1.2,3.6-3.6,3.7C176,165.3,171.6,165.3,166.9,165.3z"/>
	<path class="st0" d="M155.3,56.1c0,11.8-9.9,21.5-21.8,21.4c-11.9-0.1-21.5-9.9-21.4-21.7c0.1-11.8,10-21.6,21.7-21.5
		C145.7,34.5,155.3,44.3,155.3,56.1z M133.6,40.3c-8.7,0.1-15.8,7.2-15.7,15.8c0.1,8.6,7.3,15.7,16,15.7c8.6,0,15.8-7.4,15.7-15.9
		C149.4,47.2,142.3,40.2,133.6,40.3z"/>
	<path class="st0" d="M67.3,56.1c0,11.8-9.9,21.5-21.8,21.4C33.7,77.5,24,67.7,24.1,55.8c0.1-11.8,10-21.6,21.7-21.5
		C57.7,34.5,67.4,44.3,67.3,56.1z M45.6,40.3c-8.7,0.1-15.8,7.2-15.7,15.8c0.1,8.6,7.3,15.7,16,15.7c8.6,0,15.8-7.4,15.7-15.9
		C61.5,47.2,54.3,40.2,45.6,40.3z"/>
	<path class="st0" d="M110.9,0C98.3,0,85.8,0,73.2,0c-5,0-7,2.1-7.1,7.2c0,5.5,0.1,11,0,16.5c-0.1,3.5,0.5,6.5,4.3,8
		c-0.7,1.7-1.6,3.1-1.9,4.6c-0.3,1.4-0.5,3.3,0.3,4.4c1.1,1.6,2.8,0.8,4.3-0.1c4.1-2.5,8.1-5,12.2-7.3c1.5-0.8,3.3-1.4,5-1.4
		c6.8-0.2,13.7,0,20.5-0.1c4.9,0,7-2.1,7.1-6.9c0-6,0-12,0-18C117.9,2.2,115.7,0,110.9,0z M78,23.6c-3,0-5.4-2.4-5.4-5.4
		c0-3,2.4-5.4,5.4-5.4c3,0,5.4,2.4,5.4,5.4C83.3,21.2,80.9,23.6,78,23.6z M92,23.6c-3,0-5.4-2.4-5.4-5.4c0-3,2.4-5.4,5.4-5.4
		c3,0,5.4,2.4,5.4,5.4C97.4,21.2,95,23.6,92,23.6z M106,23.6c-3,0-5.4-2.4-5.4-5.4c0-3,2.4-5.4,5.4-5.4c3,0,5.4,2.4,5.4,5.4
		C111.4,21.2,109,23.6,106,23.6z"/>
	<rect x="163.5" y="83.4" class="st0" width="15.9" height="79.7"/>
	<rect x="4.6" y="83.4" class="st0" width="15.9" height="79.7"/>
	<path class="st0" d="M48.2,157.7L48.2,157.7c0,4.2-3.4,7.5-7.5,7.5h-39c-0.9,0-1.7-0.8-1.7-1.7v-5.8c0-1.4,1.1-2.5,2.5-2.5h43.1
		C47.1,155.2,48.2,156.3,48.2,157.7z"/>
	<path class="st0" d="M184,155.2v7.4c0,1.5-1.2,2.7-2.7,2.7h-37.9c-4.2,0-7.6-3.4-7.6-7.6l0,0c0-1.4,1.1-2.4,2.4-2.4H184z"/>
</g>
</svg>
