<?xml version="1.0" encoding="utf-8"?>
<!-- Generator: Adobe Illustrator 26.2.1, SVG Export Plug-In . SVG Version: 6.00 Build 0)  -->
<svg version="1.1" id="Layer_1" xmlns="http://www.w3.org/2000/svg" xmlns:xlink="http://www.w3.org/1999/xlink" x="0px" y="0px"
	 viewBox="0 0 187.5 158.9" style="enable-background:new 0 0 187.5 158.9;" xml:space="preserve">
<style type="text/css">
	.st0{fill:#F4F5F9;stroke:#F4F5F9;stroke-miterlimit:10;}
	.st1{fill:#F4F5F9;stroke:#F4F5F9;stroke-width:5;stroke-miterlimit:10;}
	.st2{fill:none;stroke:#F4F5F9;stroke-width:5;stroke-miterlimit:10;}
	.st3{fill:none;stroke:#F4F5F9;stroke-miterlimit:10;}
	.st4{fill:none;stroke:#F4F5F9;stroke-width:2.5;stroke-miterlimit:10;}
	.st5{fill:none;stroke:#F4F5F9;stroke-width:2;stroke-miterlimit:10;}
</style>
<g id="a">
</g>
<g>
	<g>
		<path class="st0" d="M120.8,19.3c-37.8,0-75.6,0-113.4,0c-5.6,0-6.9,1.3-6.9,7c0,25.1,0,50.3,0,75.4c0,6,1.2,7.3,7.4,7.3
			c11.8,0,23.5,0,35.3,0c0.6,0,1.1,0,1.7,0c1.3,0,2.4,1.1,2.4,2.4c0,5.8,0.2,11.3-0.1,16.7c-0.1,2.3-1,4.4-2.9,5.6
			c-0.7,0.4-1.1,1.2-1.1,2.1v1.3c0,1.3,1.1,2.4,2.4,2.4c12.6,0.1,25.1,0.1,37.7,0c1.3,0,2.4-1.1,2.4-2.4v-1.4c0-0.9-0.5-1.7-1.2-2.1
			c-2-1.2-3-2.8-3.1-5.7c-0.2-5.3-0.1-10.7-0.1-16.4c0-1.3,1.1-2.4,2.4-2.4h2c11.8,0,23.5,0,35.3,0c5.9,0,7.1-1.2,7.1-7.2
			c0-25,0-50,0-75.1C128.2,20.2,127.3,19.3,120.8,19.3z M74.7,134.6H54c-1.3,0-2.4-1.1-2.4-2.4v-20.5c0-1.3,1.1-2.4,2.4-2.4h20.7
			c1.3,0,2.4,1.1,2.4,2.4v20.5C77.1,133.5,76,134.6,74.7,134.6z M120.7,103.8H8c-1.3,0-2.4-1.1-2.4-2.4v-6.4c0-1.3,1.1-2.4,2.4-2.4
			h112.7c1.3,0,2.4,1.1,2.4,2.4v6.4C123.2,102.7,122.1,103.8,120.7,103.8z M119.9,87.6c-37-0.1-74-0.1-111,0c-2.2,0-3.5-0.1-3.5-3
			c0.1-19.4,0.1-38.7,0.1-58.1c0,0,0,0,0,0c0-1.3,1.1-2.4,2.4-2.4h1.9c36.4,0,72.9,0,109.3,0c4.3,0,4.3,0,4.3,4.5
			c0,18.5-0.1,36.9,0.1,55.4C123.4,86.7,122.7,87.6,119.9,87.6z"/>
		<line class="st1" x1="3.2" y1="39.6" x2="125" y2="39.6"/>
		<path class="st0" d="M118.2,52c-0.1-3.8-0.9-4.6-4.7-4.6c-6.8,0-13.6,0-20.4,0c-6.9,0-13.8,0-20.7,0c-3,0-4.4,1.4-4.5,4.2
			c-0.1,2.8-0.1,5.7,0,8.5c0.1,2.5,1.4,4.1,4,4.1c14.1,0,28.3,0.1,42.4,0c2.5,0,4-1.3,3.9-4.1C118.2,57.5,118.3,54.7,118.2,52z
			 M111.2,54.3c0,1.1,0,2,0,3.1v0.2c0,0.9-0.7,1.7-1.7,1.7H76.5c-0.9,0-1.7-0.7-1.7-1.7v-0.2c0-1.1,0-2,0-3.1v-0.2
			c0-0.9,0.7-1.7,1.7-1.7h33.1c0.9,0,1.7,0.7,1.7,1.7V54.3z"/>
		<path class="st0" d="M118.2,71.7c-0.1-3.8-0.9-4.6-4.7-4.6c-6.8,0-13.6,0-20.4,0c-6.9,0-13.8,0-20.7,0c-3,0-4.4,1.4-4.5,4.2
			c-0.1,2.8-0.1,5.7,0,8.5c0.1,2.5,1.4,4.1,4,4.1c14.1,0,28.3,0.1,42.4,0c2.5,0,4-1.3,3.9-4.1C118.2,77.2,118.3,74.5,118.2,71.7z
			 M111.2,74c0,1.1,0,2,0,3.1v0.2c0,0.9-0.7,1.7-1.7,1.7H76.5c-0.9,0-1.7-0.7-1.7-1.7v-0.2c0-1.1,0-2,0-3.1v-0.2
			c0-0.9,0.7-1.7,1.7-1.7h33.1c0.9,0,1.7,0.7,1.7,1.7V74z"/>
		<path class="st0" d="M20.7,57.6c-2.6,0-5.2,0-7.8,0c-2.2,0-3.8-0.9-3.8-3.3c0-2.4,1.7-3.3,3.8-3.4c5.2-0.1,10.4-0.1,15.6,0
			c2.1,0,3.8,0.9,3.8,3.4c0,2.4-1.6,3.3-3.8,3.3C25.9,57.7,23.3,57.6,20.7,57.6z"/>
		<path class="st0" d="M20.7,67.7c-2.6,0-5.2,0-7.8,0c-2.2,0-3.8-0.9-3.8-3.3c0-2.4,1.7-3.3,3.8-3.4c5.2-0.1,10.4-0.1,15.6,0
			c2.1,0,3.8,0.9,3.8,3.4c0,2.4-1.6,3.3-3.8,3.3C25.9,67.7,23.3,67.7,20.7,67.7z"/>
		<path class="st0" d="M20.8,77.7c-2.7,0-5.4,0-8.2,0c-2.1,0-3.5-1-3.6-3.2c0-2.2,1.4-3.3,3.5-3.3c5.3-0.1,10.6-0.1,16,0
			c2.2,0,3.8,0.9,3.7,3.4c-0.1,2.2-1.6,3.1-3.6,3.1C26,77.7,23.4,77.7,20.8,77.7C20.8,77.7,20.8,77.7,20.8,77.7z"/>
		<path class="st0" d="M48.1,57.6c-2.6,0-5.2,0-7.8,0c-2.2,0-3.8-0.9-3.8-3.3c0-2.4,1.7-3.3,3.8-3.4c5.2-0.1,10.4-0.1,15.6,0
			c2.1,0,3.8,0.9,3.8,3.4c0,2.4-1.6,3.3-3.8,3.3C53.3,57.7,50.7,57.6,48.1,57.6z"/>
		<path class="st0" d="M48.1,67.7c-2.6,0-5.2,0-7.8,0c-2.2,0-3.8-0.9-3.8-3.3c0-2.4,1.7-3.3,3.8-3.4c5.2-0.1,10.4-0.1,15.6,0
			c2.1,0,3.8,0.9,3.8,3.4c0,2.4-1.6,3.3-3.8,3.3C53.3,67.7,50.7,67.7,48.1,67.7z"/>
		<path class="st0" d="M48.2,77.7c-2.7,0-5.4,0-8.2,0c-2.1,0-3.5-1-3.6-3.2c0-2.2,1.4-3.3,3.5-3.3c5.3-0.1,10.6-0.1,16,0
			c2.2,0,3.8,0.9,3.7,3.4c-0.1,2.2-1.6,3.1-3.6,3.1C53.4,77.7,50.8,77.7,48.2,77.7C48.2,77.7,48.2,77.7,48.2,77.7z"/>
		<path class="st0" d="M13.4,26.6c2.3,0,4.1,1.8,4.1,4.1c0,2.2-1.9,4.1-4.1,4.1c-2.3,0-4.3-2-4.2-4.2C9.2,28.4,11.1,26.6,13.4,26.6z
			"/>
		<path class="st0" d="M24.9,26.6c2.3,0,4.1,1.8,4.1,4.1c0,2.2-1.9,4.1-4.1,4.1c-2.3,0-4.3-2-4.2-4.2C20.8,28.4,22.6,26.6,24.9,26.6
			z"/>
		<path class="st0" d="M36.6,26.6c2.3,0,4.1,1.8,4.1,4.1c0,2.2-1.9,4.1-4.1,4.1c-2.3,0-4.3-2-4.2-4.2C32.5,28.4,34.3,26.6,36.6,26.6
			z"/>
	</g>
	<g>
		<path class="st2" d="M143.2,20.9h37.3c2.8,0,5,2.2,5,5v77.8c0,2.8-2.2,5-5,5h-37.3c-2.8,0-5-2.2-5-5V25.9
			C138.2,23.2,140.4,20.9,143.2,20.9z"/>
		<path class="st3" d="M179.2,40.1c-0.1-2.6-0.6-3.2-3.2-3.2c-4.7,0-9.4,0-14,0c-4.8,0-9.5,0-14.3,0c-2,0-3.1,0.9-3.1,2.9
			c0,1.9-0.1,3.9,0,5.9c0,1.7,0.9,2.8,2.7,2.8c9.8,0,19.5,0,29.3,0c1.7,0,2.7-0.9,2.7-2.8C179.1,43.8,179.2,42,179.2,40.1z
			 M174.3,41.6c0,0.7,0,1.4,0,2.1v0.1c0,0.6-0.5,1.1-1.1,1.1h-22.8c-0.6,0-1.1-0.5-1.1-1.1v-0.1c0-0.7,0-1.4,0-2.1v-0.1
			c0-0.6,0.5-1.1,1.1-1.1h22.8c0.6,0,1.1,0.5,1.1,1.1V41.6z"/>
		<path class="st3" d="M179.2,72.6c-0.1-2.6-0.6-3.2-3.2-3.2c-4.7,0-9.4,0-14,0c-4.8,0-9.5,0-14.3,0c-2,0-3.1,0.9-3.1,2.9
			c0,1.9-0.1,3.9,0,5.9c0,1.7,0.9,2.8,2.7,2.8c9.8,0,19.5,0,29.3,0c1.7,0,2.7-0.9,2.7-2.8C179.2,76.4,179.2,74.5,179.2,72.6z
			 M174.4,74.2c0,0.7,0,1.4,0,2.1v0.1c0,0.6-0.5,1.1-1.1,1.1h-22.8c-0.6,0-1.1-0.5-1.1-1.1v-0.1c0-0.7,0-1.4,0-2.1v-0.1
			c0-0.6,0.5-1.1,1.1-1.1h22.8c0.6,0,1.1,0.5,1.1,1.1V74.2z"/>
		<path class="st3" d="M152.4,34.2c-1.8,0-3.6,0-5.4,0c-1.5,0-2.6-0.6-2.6-2.3c0-1.7,1.2-2.3,2.6-2.3c3.6-0.1,7.2-0.1,10.7,0
			c1.5,0,2.6,0.7,2.6,2.3c0,1.7-1.1,2.3-2.6,2.3C156,34.2,154.2,34.2,152.4,34.2z"/>
		<path class="st3" d="M171.2,34.2c-1.8,0-3.6,0-5.4,0c-1.5,0-2.6-0.6-2.6-2.3c0-1.7,1.2-2.3,2.6-2.3c3.6-0.1,7.2-0.1,10.7,0
			c1.5,0,2.6,0.7,2.6,2.3c0,1.7-1.1,2.3-2.6,2.3C174.8,34.2,173,34.2,171.2,34.2z"/>
		<path class="st3" d="M152.4,88.4c-1.8,0-3.6,0-5.4,0c-1.5,0-2.6-0.6-2.6-2.3c0-1.7,1.2-2.3,2.6-2.3c3.6-0.1,7.2-0.1,10.7,0
			c1.5,0,2.6,0.7,2.6,2.3c0,1.7-1.1,2.3-2.6,2.3C156,88.4,154.2,88.4,152.4,88.4z"/>
		<path class="st3" d="M171.2,88.4c-1.8,0-3.6,0-5.4,0c-1.5,0-2.6-0.6-2.6-2.3c0-1.7,1.2-2.3,2.6-2.3c3.6-0.1,7.2-0.1,10.7,0
			c1.5,0,2.6,0.7,2.6,2.3c0,1.7-1.1,2.3-2.6,2.3C174.7,88.4,172.9,88.4,171.2,88.4z"/>
		<path class="st3" d="M152.4,55.9c-1.8,0-3.6,0-5.4,0c-1.5,0-2.6-0.6-2.6-2.3c0-1.7,1.2-2.3,2.6-2.3c3.6-0.1,7.2-0.1,10.7,0
			c1.5,0,2.6,0.7,2.6,2.3c0,1.7-1.1,2.3-2.6,2.3C156,55.9,154.2,55.9,152.4,55.9z"/>
		<path class="st3" d="M171.2,55.9c-1.8,0-3.6,0-5.4,0c-1.5,0-2.6-0.6-2.6-2.3c0-1.7,1.2-2.3,2.6-2.3c3.6-0.1,7.2-0.1,10.7,0
			c1.5,0,2.6,0.7,2.6,2.3c0,1.7-1.1,2.3-2.6,2.3C174.7,55.9,172.9,55.9,171.2,55.9z"/>
		<path class="st3" d="M152.4,66.7c-1.8,0-3.6,0-5.4,0c-1.5,0-2.6-0.6-2.6-2.3c0-1.7,1.2-2.3,2.6-2.3c3.6-0.1,7.2-0.1,10.7,0
			c1.5,0,2.6,0.7,2.6,2.3c0,1.7-1.1,2.3-2.6,2.3C156,66.8,154.2,66.7,152.4,66.7z"/>
		<path class="st3" d="M171.2,66.7c-1.8,0-3.6,0-5.4,0c-1.5,0-2.6-0.6-2.6-2.3c0-1.7,1.2-2.3,2.6-2.3c3.6-0.1,7.2-0.1,10.7,0
			c1.5,0,2.6,0.7,2.6,2.3c0,1.7-1.1,2.3-2.6,2.3C174.7,66.8,172.9,66.7,171.2,66.7z"/>
		<circle class="st4" cx="161.8" cy="100.2" r="4"/>
		<line class="st5" x1="138.2" y1="92.5" x2="185.5" y2="92.5"/>
	</g>
</g>
</svg>
