<?xml version="1.0" encoding="utf-8"?>
<!-- Generator: Adobe Illustrator 26.2.1, SVG Export Plug-In . SVG Version: 6.00 Build 0)  -->
<svg version="1.1" id="Layer_1" xmlns="http://www.w3.org/2000/svg" xmlns:xlink="http://www.w3.org/1999/xlink" x="0px" y="0px"
	 viewBox="0 0 185 166" style="enable-background:new 0 0 185 166;" xml:space="preserve">
<style type="text/css">
	.st0{fill:#F4F5F9;stroke:#F4F5F9;stroke-miterlimit:10;}
	.st1{fill:#F4F5F9;}
	.st2{fill:none;stroke:#F4F5F9;stroke-width:5;stroke-miterlimit:10;}
</style>
<g id="a">
</g>
<path class="st0" d="M184.4,113.6c-0.5-3.2-3.4-5.5-6.7-5.3c-35.6,2-52.2,9.7-59,14.2c-0.4,0.2-0.7,0.2-0.9,0.2
	c-0.2,0-0.5-0.2-0.7-0.6c-2.2-3.8-7.5-9.8-18-7.9c-12.5,2.2-22.8-6.2-22.9-6.3c-29.7-23.5-67.4-7.7-75.7-3.7
	c-0.9,0.4-1.3,1.5-0.8,2.4l0.8,1.5c0.4,0.8,1.5,1.1,2.3,0.7c3.3-1.6,12-5.4,23-7.3c18.5-3.2,34.4,0.3,47.1,10.4
	c0.5,0.4,12.2,10,27.1,7.4c5.6-1,9.8,0.8,12.5,5.4c0,0,0,0,0,0c0.6,1,0.8,2.3,0.5,3.4c-0.4,1.5-1.2,3.3-2.7,4.7
	c-1.6,1.5-3.7,2.1-6.5,2c-10-0.5-31.1-4.5-37.3-5.6c-0.9-0.2-1.9,0.4-2,1.4l-0.3,1.7c-0.2,1,0.4,1.9,1.4,2.1
	c6.2,1.2,27.5,5.2,38,5.7c0.3,0,0.7,0,1,0c3.8,0,6.9-1.1,9.4-3.4c2.5-2.3,3.7-5.4,4.2-7.7c0.2-0.7,0.7-1.1,1.3-1.3
	c0.7-0.2,1.4-0.5,2-0.9c6.3-4.2,22-11.4,56.4-13.3c0.6,0,1.1,0.4,1.2,0.9c0.1,0.9-0.1,4.5-8.8,11.1c-15.9,12.1-73.2,35.1-79.4,35.1
	c-6.6,0-53.3-9.8-85.7-16.6c-0.9-0.2-1.9,0.4-2.1,1.4L2.9,147c-0.2,0.9,0.4,1.9,1.3,2.1c13.7,2.9,79.8,16.7,86.7,16.7
	c8.2,0,66.4-23.9,82.6-36.1C181.4,123.7,185,118.3,184.4,113.6z"/>
<polygon class="st1" points="104.6,29.4 115,29.4 111.2,52.9 108.5,52.9 "/>
<path class="st2" d="M162.6,42.4c0.9-0.9,0.4-2.5-0.9-2.7l-34-4.9c-0.5-0.1-1-0.4-1.2-0.9L111.3,3.1c-0.6-1.2-2.2-1.2-2.8,0L93.2,34
	c-0.2,0.5-0.7,0.8-1.2,0.9l-34,4.9c-1.3,0.2-1.8,1.8-0.9,2.7l24.6,24c0.4,0.4,0.5,0.9,0.5,1.4l-5.8,33.9c-0.2,1.3,1.1,2.3,2.3,1.7
	l30.4-16c0.5-0.2,1-0.2,1.5,0l30.4,16c1.2,0.6,2.5-0.4,2.3-1.7l-5.8-33.9c-0.1-0.5,0.1-1,0.5-1.4L162.6,42.4z M105.1,31.6
	c2.3-2.8,3.8-4.3,4.7-4.3c0.6,0,1.2,0.3,1.8,0.9c0.6,0.6,2,2.3,4.3,5.1c-2.6,11.5-4.4,22-5.4,31.5c0,0.6-0.3,0.9-0.7,0.9
	c-0.4,0-0.7-0.8-0.9-2.5c-0.4-3.7-2-12.9-4.6-27.6l-0.4-2.4C104.2,32.7,104.6,32.2,105.1,31.6z"/>
<circle class="st1" cx="109.8" cy="75" r="5.8"/>
</svg>
